<svg width="15" height="18" viewBox="0 0 15 18" fill="none" xmlns="http://www.w3.org/2000/svg">
<path d="M7.32324 0.0322266C7.4429 0.0322266 7.56256 0.0322266 7.68222 0.160798C8.04119 0.289369 8.40017 0.417941 8.63948 0.675084C10.195 2.08937 11.7506 3.37508 13.4258 4.78937C14.3831 5.5608 14.3831 7.10366 13.5455 7.74651C13.3061 8.00366 13.0668 8.00366 12.8275 7.87508C12.5882 7.74651 12.4685 7.48937 12.4685 7.23223C12.4685 7.10366 12.5882 6.84651 12.7079 6.71794C12.9472 6.33223 12.9472 6.07508 12.7079 5.81794C11.1523 4.53223 9.59675 3.11794 8.04119 1.83223C7.32324 1.31794 6.72495 1.31794 6.24632 1.83223C4.69076 3.11794 3.13521 4.53223 1.57965 5.81794C1.22068 6.07508 1.22068 6.4608 1.57965 6.71794C3.13521 8.13223 4.69076 9.41794 6.24632 10.8322C6.72495 11.2179 7.32324 11.2179 7.80188 10.8322C8.04119 10.5751 8.28051 10.4465 8.51982 10.1894C8.8788 9.93223 9.23777 9.93223 9.47709 10.3179C9.71641 10.5751 9.59675 11.0894 9.35743 11.3465C8.99846 11.6037 8.75914 11.8608 8.40017 12.1179C7.4429 12.7608 6.24632 12.6322 5.40871 11.8608C4.69076 11.2179 3.97282 10.5751 3.25487 9.93223C3.25487 9.93223 3.13521 9.93223 3.13521 9.80366C2.53692 10.4465 2.05829 10.8322 1.46 11.3465C1.34034 11.4751 1.34034 11.7322 1.34034 11.8608C1.34034 11.9894 1.46 12.1179 1.57965 12.2465C3.13521 13.5322 4.69076 14.9465 6.24632 16.2322C6.48564 16.4894 6.72495 16.6179 7.08393 16.6179C7.4429 16.6179 7.68222 16.4894 7.92153 16.2322C9.23777 15.0751 10.554 13.9179 11.9899 12.7608C12.2292 12.6322 12.4685 12.3751 12.5882 12.2465C12.9472 11.9894 12.9472 11.6037 12.5882 11.3465C10.913 9.93223 9.35743 8.64651 7.80188 7.23223C7.32324 6.84651 6.72495 6.84651 6.24632 7.23223C6.007 7.3608 5.76769 7.61794 5.52837 7.87508C5.1694 8.13223 4.81042 8.00366 4.57111 7.74651C4.33179 7.3608 4.45145 6.97508 4.69076 6.71794C5.04974 6.4608 5.40871 6.07508 5.88735 5.81794C6.84461 5.30366 7.68222 5.43223 8.51982 6.07508C10.195 7.48937 11.7506 8.90366 13.3061 10.3179C14.2634 11.0894 14.1438 12.5037 13.3061 13.4037C12.1096 14.4322 10.7933 15.4608 9.59675 16.4894C9.23777 16.7465 8.99846 17.0037 8.63948 17.3894C7.68222 18.1608 6.36598 18.1608 5.40871 17.3894C3.85316 15.9751 2.2976 14.6894 0.742047 13.2751C-0.215218 12.3751 -0.215218 10.9608 0.742047 10.1894C1.22068 9.80366 1.57965 9.41794 2.05829 9.03223L1.93863 8.90366C1.57965 8.51794 1.10102 8.13223 0.622389 7.74651C-0.0955602 7.10366 -0.215218 5.81794 0.383072 5.04651C0.50273 4.91794 0.622389 4.78937 0.742047 4.78937C2.2976 3.37508 3.85316 2.08937 5.40871 0.803655C5.76769 0.546512 6.12666 0.289369 6.6053 0.160798C6.6053 0.160798 6.60529 0.160798 6.72495 0.160798C6.96427 0.0322266 7.08393 0.0322266 7.32324 0.0322266Z" fill="#344051"/>
</svg>
