<svg width="20" height="20" viewBox="0 0 20 20" fill="none" xmlns="http://www.w3.org/2000/svg">
<path d="M16 4L12.8284 7.17157M12.8284 7.17157C12.1046 6.44772 11.1046 6 10 6C8.89543 6 7.89543 6.44772 7.17157 7.17157M12.8284 7.17157C13.5523 7.89543 14 8.89543 14 10C14 11.1046 13.5523 12.1046 12.8284 12.8284M16 16L12.8284 12.8284M12.8284 12.8284C12.1046 13.5523 11.1046 14 10 14C8.89543 14 7.89543 13.5523 7.17157 12.8284M4 16L7.17157 12.8284M7.17157 12.8284C6.44772 12.1046 6 11.1046 6 10C6 8.89543 6.44772 7.89543 7.17157 7.17157M4 4L7.17157 7.17157M19 10C19 14.9706 14.9706 19 10 19C5.02944 19 1 14.9706 1 10C1 5.02944 5.02944 1 10 1C14.9706 1 19 5.02944 19 10Z" stroke="#344051" stroke-linecap="round" stroke-linejoin="round"/>
</svg>
