<svg width="13" height="13" viewBox="0 0 13 13" fill="none" xmlns="http://www.w3.org/2000/svg">
<path d="M9.50737 1.07812V2.17813M2.57178 1.07812V2.17813" stroke="#344051" stroke-linecap="round" stroke-linejoin="round"/>
<path d="M0.548828 6.71269C0.548828 4.31617 0.548828 3.11791 1.27251 2.37341C1.99619 1.62891 3.16094 1.62891 5.49044 1.62891H6.58857C8.91807 1.62891 10.0828 1.62891 10.8065 2.37341C11.5302 3.11791 11.5302 4.31617 11.5302 6.71269V6.99512C11.5302 9.39164 11.5302 10.5899 10.8065 11.3344C10.0828 12.0789 8.91807 12.0789 6.58857 12.0789H5.49044C3.16094 12.0789 1.99619 12.0789 1.27251 11.3344C0.548828 10.5899 0.548828 9.39164 0.548828 6.99512V6.71269Z" stroke="#344051" stroke-linecap="round" stroke-linejoin="round"/>
<path d="M0.837891 4.37891H11.2413" stroke="#344051" stroke-linecap="round" stroke-linejoin="round"/>
</svg>
