<svg width="18" height="18" viewBox="0 0 18 18" fill="none" xmlns="http://www.w3.org/2000/svg">
<path d="M1 13.7996C1 12.5673 1 11.9511 1.27739 11.4984C1.4326 11.2452 1.64555 11.0322 1.89884 10.877C2.35149 10.5996 2.96767 10.5996 4.20004 10.5996C5.4324 10.5996 6.04858 10.5996 6.50123 10.877C6.75452 11.0322 6.96747 11.2452 7.12268 11.4984C7.40007 11.9511 7.40007 12.5673 7.40007 13.7996C7.40007 15.032 7.40007 15.6482 7.12268 16.1008C6.96747 16.3541 6.75452 16.5671 6.50123 16.7223C6.04858 16.9997 5.4324 16.9997 4.20004 16.9997C2.96767 16.9997 2.35149 16.9997 1.89884 16.7223C1.64555 16.5671 1.4326 16.3541 1.27739 16.1008C1 15.6482 1 15.032 1 13.7996Z" stroke="" stroke-width="1.5"/>
<path d="M10.6011 13.7996C10.6011 12.5673 10.6011 11.9511 10.8785 11.4984C11.0337 11.2452 11.2466 11.0322 11.4999 10.877C11.9526 10.5996 12.5687 10.5996 13.8011 10.5996C15.0335 10.5996 15.6497 10.5996 16.1023 10.877C16.3556 11.0322 16.5685 11.2452 16.7238 11.4984C17.0011 11.9511 17.0011 12.5673 17.0011 13.7996C17.0011 15.032 17.0011 15.6482 16.7238 16.1008C16.5685 16.3541 16.3556 16.5671 16.1023 16.7223C15.6497 16.9997 15.0335 16.9997 13.8011 16.9997C12.5687 16.9997 11.9526 16.9997 11.4999 16.7223C11.2466 16.5671 11.0337 16.3541 10.8785 16.1008C10.6011 15.6482 10.6011 15.032 10.6011 13.7996Z" stroke="" stroke-width="1.5"/>
<path d="M1 4.20003C1 2.96767 1 2.35149 1.27739 1.89884C1.4326 1.64555 1.64555 1.4326 1.89884 1.27739C2.35149 1 2.96767 1 4.20004 1C5.4324 1 6.04858 1 6.50123 1.27739C6.75452 1.4326 6.96747 1.64555 7.12268 1.89884C7.40007 2.35149 7.40007 2.96767 7.40007 4.20003C7.40007 5.4324 7.40007 6.04858 7.12268 6.50123C6.96747 6.75452 6.75452 6.96747 6.50123 7.12268C6.04858 7.40007 5.4324 7.40007 4.20004 7.40007C2.96767 7.40007 2.35149 7.40007 1.89884 7.12268C1.64555 6.96747 1.4326 6.75452 1.27739 6.50123C1 6.04858 1 5.4324 1 4.20003Z" stroke="" stroke-width="1.5"/>
<path d="M10.6011 4.20003C10.6011 2.96767 10.6011 2.35149 10.8785 1.89884C11.0337 1.64555 11.2466 1.4326 11.4999 1.27739C11.9526 1 12.5687 1 13.8011 1C15.0335 1 15.6497 1 16.1023 1.27739C16.3556 1.4326 16.5685 1.64555 16.7238 1.89884C17.0011 2.35149 17.0011 2.96767 17.0011 4.20003C17.0011 5.4324 17.0011 6.04858 16.7238 6.50123C16.5685 6.75452 16.3556 6.96747 16.1023 7.12268C15.6497 7.40007 15.0335 7.40007 13.8011 7.40007C12.5687 7.40007 11.9526 7.40007 11.4999 7.12268C11.2466 6.96747 11.0337 6.75452 10.8785 6.50123C10.6011 6.04858 10.6011 5.4324 10.6011 4.20003Z" stroke="" stroke-width="1.5"/>
</svg>
