<svg width="28" height="24" viewBox="0 0 28 24" fill="none" xmlns="http://www.w3.org/2000/svg">
<path d="M17.4076 8.76941C17.1613 8.68667 16.9149 8.68667 16.6686 8.68667C16.1759 8.68667 15.6833 8.76941 15.1906 9.01761C14.6979 9.26581 14.2874 9.51401 13.9589 9.92768C13.6305 9.51401 13.1378 9.18307 12.6451 9.01761C12.1525 8.76941 11.6598 8.68667 11.085 8.68667C10.5102 8.68667 10.0176 8.85214 9.5249 9.10034C9.03224 9.34854 8.62168 9.67948 8.29323 10.0931C7.96479 10.5068 7.71845 11.0032 7.63634 11.4996C7.55423 11.996 7.47212 12.5752 7.63634 13.0716C7.71845 13.568 7.96479 14.0644 8.29323 14.478C8.62168 14.8917 9.03224 15.2226 9.5249 15.4708V19.1939C8.86801 19.0284 8.21112 18.7802 7.63634 18.4493C6.56889 17.7874 5.66567 16.9601 5.00877 15.8018C4.35188 14.7262 4.02344 13.4852 4.02344 12.2442V1.6543L7.63634 6.20466C9.27857 5.29458 11.2492 4.96365 13.0557 5.46005C14.8621 5.95646 16.4223 7.19746 17.4076 8.76941Z" fill="#4172ED"/>
<path d="M23.8123 12.4105C23.8123 13.5688 23.4838 14.727 22.9912 15.8026C22.4164 16.7954 21.6774 17.7054 20.6921 18.3673C19.7067 19.0292 18.5572 19.4429 17.4076 19.5256C16.258 19.6083 15.0264 19.4429 13.9589 19.0292C13.6305 18.9465 13.3841 18.781 13.1378 18.6155L9.5249 23.1659V15.6371C10.0176 15.8853 10.6745 16.0508 11.2492 16.0508C11.7419 16.0508 12.2346 15.968 12.7272 15.7198C13.2199 15.4716 13.6305 15.2234 13.9589 14.8098C14.3695 15.2234 14.8621 15.5544 15.3548 15.8026C15.9296 15.968 16.5044 16.0508 17.0792 16.0508C17.6539 15.968 18.2287 15.8026 18.7214 15.4716C19.2141 15.1407 19.6246 14.727 19.8709 14.2306C20.1173 13.7342 20.2815 13.1551 20.3636 12.5759C20.3636 11.9968 20.2815 11.4177 20.0352 10.9213C19.7888 10.4249 19.4604 9.92847 18.9677 9.59753C18.475 9.26659 17.9824 9.01839 17.4076 8.85293C16.5865 7.52919 15.4369 6.45364 13.9589 5.87451C15.0264 5.46084 16.258 5.29537 17.4076 5.37811C18.5572 5.46084 19.7067 5.87451 20.6921 6.53638C21.6774 7.19825 22.4985 8.10832 22.9912 9.10113C23.4838 10.0939 23.8123 11.2522 23.8123 12.4105Z" fill="#4172ED"/>
<path d="M16.833 14.0651C16.7509 14.0651 16.7509 14.0651 16.6687 14.0651C15.4371 13.9824 14.616 12.9896 14.5339 12.9069C14.4517 12.8241 14.3696 12.6587 14.3696 12.4932C14.3696 12.3277 14.4517 12.1623 14.616 12.0795C14.7802 11.9968 14.8623 11.9141 15.0265 11.9141C15.1907 11.9141 15.355 11.9968 15.4371 12.1623C15.4371 12.1623 15.9297 12.8241 16.6687 12.8241C17.1614 12.8241 17.6541 12.5759 18.1468 12.0795C18.2289 11.9968 18.3931 11.9141 18.5573 11.9141C18.7215 11.9141 18.8858 11.9968 18.9679 12.0795C19.05 12.1623 19.1321 12.3277 19.1321 12.4932C19.1321 12.6587 19.05 12.8241 18.9679 12.9069C18.3931 13.6515 17.6541 14.0651 16.833 14.0651Z" fill="#4172ED"/>
<path d="M11.2494 14.0651C11.1673 14.0651 11.1673 14.0651 11.0852 14.0651C9.8535 13.9824 9.03239 12.9896 9.03239 12.9069C8.95028 12.8241 8.86816 12.6587 8.86816 12.4932C8.86816 12.3277 8.95028 12.1623 9.1145 12.0795C9.27872 11.9968 9.36083 11.9141 9.52506 11.9141C9.68928 11.9141 9.8535 11.9968 9.93561 12.1623C9.93561 12.1623 10.4283 12.8241 11.1673 12.8241C11.66 12.8241 12.1526 12.5759 12.6453 12.0795C12.7274 11.9968 12.8916 11.9141 13.0558 11.9141C13.2201 11.9141 13.3843 11.9968 13.4664 12.0795C13.5485 12.1623 13.6306 12.3277 13.6306 12.4932C13.6306 12.6587 13.5485 12.8241 13.4664 12.9069C12.8095 13.6515 12.0705 14.0651 11.2494 14.0651Z" fill="#4172ED"/>
<path d="M3.77713 3.06115C3.69501 3.14388 3.6129 3.22662 3.44868 3.30935C2.05279 4.71583 1.31378 6.45324 1.31378 8.43885C1.31378 8.52158 1.31378 8.60432 1.31378 8.60432L1.23167 8.68705C0.492669 9.18345 0.0821114 9.92806 0 10.7554C0 11.6655 0 12.5755 0 13.4856C0 14.6439 0.821115 15.554 1.97067 15.8022C2.95601 15.9676 3.85924 15.3058 3.85924 14.3957C3.85924 12.9065 3.85924 11.4173 3.85924 9.92806C3.85924 9.26619 3.36657 8.68705 2.70968 8.52158C2.62757 8.52158 2.62757 8.52158 2.54545 8.43885C2.54545 7.03237 2.95601 5.79137 3.77713 4.71583V3.06115ZM5.7478 3.14388C7.8827 1.90288 10.9208 1.24101 14.3695 1.32374C19.7067 1.48921 25.3724 3.47482 25.4545 8.52158C25.4545 8.52158 25.4545 8.52158 25.3724 8.52158C24.4692 8.76978 24.1408 9.26619 24.1408 10.1763C24.1408 11.5 24.1408 12.8237 24.1408 14.1475C24.1408 14.313 24.1408 14.4784 24.1408 14.6439C24.305 15.3058 24.7977 15.7194 25.4545 15.8022C25.4545 16.2158 25.4545 18.3669 25.4545 18.7806C25.4545 19.7734 24.6334 20.7662 23.566 20.8489C22.9091 20.9317 21.1848 20.8489 20.5279 20.8489C20.4457 20.8489 20.3636 20.7662 20.3636 20.6835C20.0352 20.1043 19.6246 19.7734 18.9677 19.7734C18.3109 19.7734 17.7361 19.7734 17.0792 19.7734C16.176 19.8561 15.5191 20.6007 15.5191 21.4281C15.5191 22.3381 16.2581 23 17.1613 23C17.7361 23 18.2287 23 18.8035 23C19.5425 23 20.0352 22.6691 20.3636 22.0072C20.4457 21.9245 20.4457 21.8417 20.61 21.8417C21.1026 21.8417 22.7449 21.8417 23.3196 21.8417C24.9619 21.8417 26.2757 20.6835 26.522 19.0288C26.6041 18.5324 26.6041 16.2158 26.6041 15.6367C26.6041 15.4712 26.6041 15.4712 26.7683 15.3885C27.5894 14.8921 28 14.2302 28 13.3201C28 12.4928 28 11.5827 28 10.7554C28 9.84532 27.5894 9.10072 26.7683 8.60432L26.6862 8.52158V8.43885C26.6862 3.47482 22.0059 0.248201 14.3695 0C10.6745 0 7.30792 0.66187 5.0088 2.15108L5.7478 3.14388ZM2.79179 10.0935C2.79179 10.7554 2.79179 11.5 2.79179 12.1619C2.79179 12.8237 2.79179 13.5683 2.79179 14.2302C2.79179 14.6439 2.62757 14.8094 2.21701 14.7266C1.64223 14.6439 1.14956 14.1475 1.06745 13.4856C1.06745 12.5755 1.06745 11.6655 1.06745 10.7554C1.06745 10.0935 1.64223 9.51439 2.21701 9.51439C2.62757 9.59712 2.79179 9.76259 2.79179 10.0935ZM18.9677 22.0072C18.6393 22.0072 18.393 22.0072 18.1466 22.0072C17.9003 22.0072 17.5718 22.0072 17.3255 22.0072C16.9971 22.0072 16.7507 21.759 16.7507 21.4281C16.7507 21.0971 16.9971 20.8489 17.3255 20.8489C17.9003 20.8489 18.4751 20.8489 18.9677 20.8489C19.2962 20.8489 19.5425 21.0971 19.5425 21.4281C19.5425 21.759 19.2962 22.0072 18.9677 22.0072ZM26.9326 13.5683C26.9326 14.2302 26.3578 14.7266 25.783 14.7266C25.4545 14.7266 25.2903 14.5612 25.2903 14.2302C25.2903 13.5683 25.2903 12.8237 25.2903 12.1619C25.2903 11.5 25.2903 10.7554 25.2903 10.0935C25.2903 9.67986 25.4545 9.51439 25.8651 9.59712C26.4399 9.67986 26.9326 10.1763 26.9326 10.8381C26.9326 11.7482 26.9326 12.6583 26.9326 13.5683Z" fill="#4172ED"/>
</svg>
