<svg width="117" height="107" viewBox="0 0 117 107" fill="none" xmlns="http://www.w3.org/2000/svg">
<g clip-path="url(#clip0_1388_3192)">
<path opacity="0.3" d="M34.7965 44.8049C35.5996 45.273 36.9184 45.273 37.7232 44.8049L64.3442 29.3796C65.1473 28.9131 65.1473 28.1499 64.3442 27.6834L59.5764 24.9224C58.7716 24.4543 57.4545 24.4543 56.6497 24.9224L30.0254 40.3477C29.2207 40.8126 29.2207 41.5741 30.0254 42.0439L34.7949 44.8049H34.7965Z" fill="black"/>
<path d="M65.1227 7.95285L58.7864 4.24734C58.7404 4.21272 58.6895 4.18635 58.6386 4.16327C58.343 4.02646 57.9554 4.06767 57.53 4.31492L31.2999 19.5128C30.3786 20.0469 29.6296 21.3441 29.6296 22.4139V39.7678C29.6296 40.3283 29.8399 40.714 30.17 40.8722V40.8755L36.4159 44.4904L46.1107 32.1524L57.5284 25.5359C58.4497 25.0018 59.1987 23.7013 59.1987 22.6331V15.4925L65.1227 7.9545V7.95285Z" fill="#D9391E"/>
<path d="M37.5326 44.3433L63.7594 29.1471C64.6824 28.6097 65.4297 27.3108 65.4297 26.246V8.8937C65.4264 7.82226 64.6824 7.39204 63.7594 7.92446L37.5326 23.1223C36.6096 23.6597 35.8623 24.957 35.8623 26.0268V43.3807C35.8623 44.4472 36.6096 44.8774 37.5326 44.345V44.3433Z" fill="#EB5C44"/>
<path d="M49.5284 28.0612V32.0832L51.7374 30.8024V26.7821L55.2093 24.7678V22.2112L51.7374 24.2238V20.2002L49.5284 21.481V25.5046L46.0581 27.514V30.0739L49.5284 28.0612Z" fill="white"/>
<path d="M39.4149 18.8012L37.6428 17.7776L39.9963 16.416L41.7635 17.4396L39.4149 18.8012Z" fill="#E6E7E8"/>
<path d="M39.4149 19.5807L37.6428 18.5603V17.7773L39.4149 18.801V19.5807Z" fill="#A7A9AC"/>
<path d="M39.415 19.5807L41.7636 18.2191V17.4395L39.415 18.801V19.5807Z" fill="#D1D3D4"/>
<path d="M56.9782 8.62578L55.2061 7.59885L57.5596 6.2373L59.33 7.26094L56.9782 8.62578Z" fill="#E6E7E8"/>
<path d="M56.9782 9.40359L55.2061 8.37831V7.59863L56.9782 8.62556V9.40359Z" fill="#A7A9AC"/>
<path d="M56.9783 9.40361L59.3301 8.04042V7.26074L56.9783 8.62558V9.40361Z" fill="#D1D3D4"/>
<path d="M52.6571 6.90822L51.7637 6.38898L52.6571 5.87305L53.5522 6.38898L52.6571 6.90822Z" fill="#A7A9AC"/>
<path d="M52.6571 11.2925L51.7637 10.775V6.38867L52.6571 6.90791V11.2925Z" fill="#575757"/>
<path d="M52.6572 11.2925L53.5523 10.775V6.38867L52.6572 6.90791V11.2925Z" fill="#808080"/>
<path d="M51.2529 6.20451C51.4369 6.09901 51.6931 6.1122 51.9739 6.27868C52.5405 6.60506 53.002 7.40451 53.002 8.05726C53.002 8.38694 52.8854 8.61771 52.6998 8.7232L52.9889 8.55672C53.1745 8.44957 53.2895 8.21715 53.2895 7.88913C53.2895 7.23638 52.8312 6.43693 52.2663 6.11055C51.9805 5.94901 51.7292 5.93253 51.5403 6.03967L51.2529 6.20616V6.20451Z" fill="#A7A9AC"/>
<path d="M53.002 8.05765C53.002 7.4049 52.5405 6.60544 51.9739 6.27907C51.4105 5.9494 50.9507 6.21643 50.9507 6.87083C50.9507 7.52523 51.4089 8.32468 51.9739 8.65271C52.5421 8.98238 53.002 8.71535 53.002 8.05765Z" fill="#242424"/>
<path d="M45.0759 13.1445L44.9905 13.1033C44.8525 13.1 44.7014 13.0555 44.5388 12.9648C43.9738 12.6368 43.5156 11.8373 43.5156 11.1829C43.5156 10.995 43.555 10.8434 43.6207 10.7214L43.6289 10.6274L51.2544 6.20818C51.4384 6.10268 51.6946 6.11587 51.9754 6.28235C52.542 6.60873 53.0035 7.40818 53.0035 8.06094C53.0035 8.39061 52.8869 8.62138 52.7013 8.72687L45.0759 13.1478V13.1445Z" fill="white"/>
<path d="M43.6289 10.6254C43.8161 10.5166 44.0707 10.5331 44.3548 10.6963C44.9165 11.0259 45.3747 11.8221 45.3747 12.4781C45.3747 12.8029 45.2631 13.0336 45.0758 13.1408L45.3649 12.9743C45.5538 12.8671 45.6654 12.638 45.6654 12.3084C45.6654 11.6523 45.2056 10.8561 44.6422 10.5281C44.3581 10.3616 44.1019 10.3485 43.9147 10.4556L43.6289 10.6254Z" fill="#A7A9AC"/>
<path d="M45.3748 12.4782C45.3748 11.8205 44.9166 11.0243 44.3549 10.6963C43.7867 10.3683 43.3301 10.6337 43.3301 11.2881C43.3301 11.9425 43.7883 12.7419 44.3549 13.0716C44.9166 13.398 45.3748 13.1326 45.3748 12.4798V12.4782Z" fill="#808285"/>
<path d="M43.8458 12.0163L42.9507 11.4971L43.8458 10.9795L44.7376 11.4971L43.8458 12.0163Z" fill="#A7A9AC"/>
<path d="M43.8458 16.3993L42.9507 15.8834V11.4971L43.8458 12.0163V16.3993Z" fill="#575757"/>
<path d="M43.8457 16.3993L44.7375 15.8834V11.4971L43.8457 12.0163V16.3993Z" fill="#808080"/>
<path d="M30.0403 53.0622L56.6054 37.6533C57.0505 37.4176 57.7912 37.4176 58.2494 37.6533L102.072 63.0496L104.239 62.0474L104.255 64.5859C104.255 64.7738 104.117 64.9469 103.91 65.0887L75.8374 81.3514C75.3858 81.6036 74.6467 81.6036 74.1819 81.3514L28.5211 54.8754C28.3026 54.7534 28.186 54.5903 28.186 54.4073V51.8721H30.0419V53.0639L30.0403 53.0622Z" fill="#B4CAED"/>
<path d="M56.6054 35.1491C57.0505 34.8969 57.7912 34.8969 58.2494 35.1491L103.91 61.6036C104.37 61.8674 104.37 62.2861 103.91 62.5712L75.8374 78.8307C75.3858 79.0944 74.6467 79.0944 74.1819 78.8307L28.5211 52.353C28.0727 52.1008 28.0727 51.6871 28.5211 51.4069L56.6054 35.1491Z" fill="white"/>
<path d="M73.6695 65.317L71.5049 66.5812L53.3306 56.0317L55.4853 54.7773L73.6695 65.317Z" fill="#BCBEC0"/>
<path d="M57.3216 39.9899L55.1882 41.2097L53.0317 39.9899L55.1882 38.752L57.3216 39.9899Z" fill="#BCBEC0"/>
<path d="M61.3502 42.3244L59.225 43.564L57.0686 42.3244L59.225 41.0947L61.3502 42.3244Z" fill="#BCBEC0"/>
<path d="M54.2257 41.7736L52.0939 43.0231L49.9604 41.7736L52.0939 40.5439L54.2257 41.7736Z" fill="#BCBEC0"/>
<path d="M54.8449 45.1879L52.6951 46.4192L47.3213 43.3104L49.4711 42.0527L54.8449 45.1879Z" fill="#BCBEC0"/>
<path d="M52.1973 46.717L50.0656 47.9368L44.7065 44.8312L46.8367 43.6016L52.1973 46.717Z" fill="#BCBEC0"/>
<path d="M49.5187 48.2686L47.3836 49.5131L42.0049 46.3911L44.1629 45.1367L49.5187 48.2686Z" fill="#BCBEC0"/>
<path d="M64.0501 43.8984L61.9003 45.1132L59.7554 43.8984L61.9003 42.6357L64.0501 43.8984Z" fill="#BCBEC0"/>
<path d="M66.724 45.4346L64.602 46.6791L62.4473 45.4346L64.602 44.1934L66.724 45.4346Z" fill="#BCBEC0"/>
<path d="M69.4044 46.9958L67.2841 48.2437L65.1409 46.9958L67.2841 45.7744L69.4044 46.9958Z" fill="#BCBEC0"/>
<path d="M57.4775 43.6397L55.326 44.9039L53.1909 43.6397L55.326 42.3984L57.4775 43.6397Z" fill="#BCBEC0"/>
<path d="M60.1546 45.1976L58.0047 46.4454L55.8762 45.1976L58.0047 43.9795L60.1546 45.1976Z" fill="#BCBEC0"/>
<path d="M62.8578 46.775L60.708 48.0294L58.5762 46.775L60.708 45.5371L62.8578 46.775Z" fill="#BCBEC0"/>
<path d="M65.5315 48.3248L63.3998 49.571L61.2417 48.3248L63.3998 47.0869L65.5315 48.3248Z" fill="#BCBEC0"/>
<path d="M68.2234 49.8853L66.0883 51.1182L63.9319 49.8853L66.0883 48.6572L68.2234 49.8853Z" fill="#BCBEC0"/>
<path d="M70.9022 51.4568L68.7622 52.6964L66.637 51.4568L68.7622 50.209L70.9022 51.4568Z" fill="#BCBEC0"/>
<path d="M73.6006 52.9958L71.4606 54.2387L69.3271 52.9958L71.4606 51.7529L73.6006 52.9958Z" fill="#BCBEC0"/>
<path d="M76.289 54.5504L74.1556 55.7932L72.0156 54.5504L74.1556 53.3174L76.289 54.5504Z" fill="#BCBEC0"/>
<path d="M78.8889 56.0751L76.7588 57.2982L74.5974 56.0751L76.7588 54.8389L78.8889 56.0751Z" fill="#BCBEC0"/>
<path d="M81.589 57.6177L79.4441 58.8589L77.2959 57.6177L79.4441 56.3896L81.589 57.6177Z" fill="#BCBEC0"/>
<path d="M84.2742 59.1936L82.1194 60.4233L79.9827 59.1936L82.1194 57.959L84.2742 59.1936Z" fill="#BCBEC0"/>
<path d="M86.9661 60.7592L84.8244 61.9922L82.6812 60.7592L84.8244 59.5098L86.9661 60.7592Z" fill="#BCBEC0"/>
<path d="M89.6431 62.2857L87.5031 63.5154L85.3582 62.2857L87.5031 61.0527L89.6431 62.2857Z" fill="#BCBEC0"/>
<path d="M92.3334 63.8386L90.1951 65.0897L88.0583 63.8386L90.1951 62.6172L92.3334 63.8386Z" fill="#BCBEC0"/>
<path d="M54.9022 48.2689L52.7474 49.5134L50.6074 48.2689L52.7474 47.0293L54.9022 48.2689Z" fill="#BCBEC0"/>
<path d="M57.5991 49.8248L55.4344 51.0676L53.301 49.8248L55.4344 48.5918L57.5991 49.8248Z" fill="#BCBEC0"/>
<path d="M60.2745 51.3724L58.123 52.6202L55.9912 51.3724L58.123 50.1328L60.2745 51.3724Z" fill="#BCBEC0"/>
<path d="M62.9465 52.9416L60.8147 54.163L58.6731 52.9416L60.8147 51.6855L62.9465 52.9416Z" fill="#BCBEC0"/>
<path d="M65.6482 54.4877L63.5017 55.7289L61.3765 54.4877L63.5017 53.2432L65.6482 54.4877Z" fill="#BCBEC0"/>
<path d="M68.3401 56.0422L66.1854 57.2802L64.0503 56.0422L66.1854 54.8076L68.3401 56.0422Z" fill="#BCBEC0"/>
<path d="M71.0171 57.601L68.8886 58.8472L66.7454 57.601L68.8886 56.3516L71.0171 57.601Z" fill="#BCBEC0"/>
<path d="M73.6185 59.1064L71.4867 60.3558L69.3599 59.1064L71.4867 57.8701L73.6185 59.1064Z" fill="#BCBEC0"/>
<path d="M76.3218 60.6834L74.1671 61.9147L72.0205 60.6834L74.1671 59.4307L76.3218 60.6834Z" fill="#BCBEC0"/>
<path d="M79.0071 62.2316L76.8671 63.4844L74.7173 62.2316L76.8671 61.002L79.0071 62.2316Z" fill="#BCBEC0"/>
<path d="M81.6975 63.7845L79.5493 65.0306L77.406 63.7845L79.5493 62.5449L81.6975 63.7845Z" fill="#BCBEC0"/>
<path d="M84.3762 65.3337L82.2477 66.5815L80.0896 65.3337L82.2477 64.1123L84.3762 65.3337Z" fill="#BCBEC0"/>
<path d="M52.1972 49.8248L50.0654 51.0676L47.9172 49.8248L50.0654 48.5918L52.1972 49.8248Z" fill="#BCBEC0"/>
<path d="M54.9022 51.3724L52.7474 52.6202L50.6074 51.3724L52.7474 50.1328L54.9022 51.3724Z" fill="#BCBEC0"/>
<path d="M57.5991 52.9416L55.4344 54.163L53.301 52.9416L55.4344 51.6855L57.5991 52.9416Z" fill="#BCBEC0"/>
<path d="M60.2745 54.4877L58.123 55.7289L55.9912 54.4877L58.123 53.2432L60.2745 54.4877Z" fill="#BCBEC0"/>
<path d="M62.9465 56.0422L60.8147 57.2802L58.6731 56.0422L60.8147 54.8076L62.9465 56.0422Z" fill="#BCBEC0"/>
<path d="M65.6482 57.601L63.5017 58.8472L61.3765 57.601L63.5017 56.3516L65.6482 57.601Z" fill="#BCBEC0"/>
<path d="M68.3401 59.1773L66.1854 60.4102L64.0503 59.1773L66.1854 57.9229L68.3401 59.1773Z" fill="#BCBEC0"/>
<path d="M70.9415 60.6834L68.7998 61.9147L66.6582 60.6834L68.7998 59.4307L70.9415 60.6834Z" fill="#BCBEC0"/>
<path d="M73.6185 62.2316L71.4867 63.4844L69.3599 62.2316L71.4867 61.002L73.6185 62.2316Z" fill="#BCBEC0"/>
<path d="M76.3218 63.7845L74.1671 65.0306L72.0205 63.7845L74.1671 62.5449L76.3218 63.7845Z" fill="#BCBEC0"/>
<path d="M79.0071 65.3337L76.8671 66.5815L74.7173 65.3337L76.8671 64.1123L79.0071 65.3337Z" fill="#BCBEC0"/>
<path d="M81.6975 66.9111L79.5493 68.1605L77.406 66.9111L79.5493 65.6748L81.6975 66.9111Z" fill="#BCBEC0"/>
<path d="M87.0598 70.0186L84.9181 71.2467L80.0896 68.4626L82.2477 67.2197L87.0598 70.0186Z" fill="#BCBEC0"/>
<path d="M44.1629 48.244L42.0459 49.4835L39.3442 47.9193L41.499 46.6797L44.1629 48.244Z" fill="#BCBEC0"/>
<path d="M49.5679 51.3542L47.4181 52.6053L45.2847 51.3542L47.4181 50.1113L49.5679 51.3542Z" fill="#BCBEC0"/>
<path d="M46.863 49.7765L44.7296 51.0556L42.5896 49.7765L44.7296 48.5518L46.863 49.7765Z" fill="#BCBEC0"/>
<path d="M52.263 52.9298L50.0968 54.1793L47.9683 52.9298L50.0968 51.6787L52.263 52.9298Z" fill="#BCBEC0"/>
<path d="M54.9531 54.4976L52.7885 55.7536L50.6567 54.4976L52.7885 53.2432L54.9531 54.4976Z" fill="#BCBEC0"/>
<path d="M76.3514 66.8854L74.218 68.1216L72.0681 66.8854L74.218 65.6475L76.3514 66.8854Z" fill="#BCBEC0"/>
<path d="M79.0582 68.4476L76.9133 69.6954L74.7634 68.4476L76.9133 67.2031L79.0582 68.4476Z" fill="#BCBEC0"/>
<path d="M84.4238 71.5595L82.2854 72.7991L77.447 70.0035L79.5952 68.7441L84.4238 71.5595Z" fill="#BCBEC0"/>
<path d="M89.7269 68.4756L87.5738 69.7119L82.7485 66.9278L84.8951 65.6816L89.7269 68.4756Z" fill="#BCBEC0"/>
<path d="M92.3761 66.944L90.2295 68.1753L85.4043 65.3929L87.5492 64.1533L92.3761 66.944Z" fill="#BCBEC0"/>
<path d="M95.0185 65.4113L92.8785 66.6624L90.7319 65.4113L92.8785 64.1865L95.0185 65.4113Z" fill="#BCBEC0"/>
<path d="M57.5236 46.7421L55.3869 47.9652L53.2419 46.7421L55.3869 45.4844L57.5236 46.7421Z" fill="#BCBEC0"/>
<path d="M60.2284 48.28L58.0638 49.5344L55.9353 48.28L58.0638 47.0586L60.2284 48.28Z" fill="#BCBEC0"/>
<path d="M62.8956 49.8488L60.7573 51.1016L58.6074 49.8488L60.7573 48.6191L62.8956 49.8488Z" fill="#BCBEC0"/>
<path d="M65.6022 51.4051L63.4441 52.6546L61.314 51.4051L63.4441 50.1738L65.6022 51.4051Z" fill="#BCBEC0"/>
<path d="M68.2793 52.9477L66.136 54.2153L63.9993 52.9477L66.136 51.7246L68.2793 52.9477Z" fill="#BCBEC0"/>
<path d="M70.9858 54.5087L68.8425 55.7713L66.6877 54.5087L68.8425 53.2773L70.9858 54.5087Z" fill="#BCBEC0"/>
<path d="M73.6695 56.0966L71.5049 57.3378L69.3813 56.0966L71.5049 54.8389L73.6695 56.0966Z" fill="#BCBEC0"/>
<path d="M76.2693 57.5862L74.1129 58.8472L71.9844 57.5862L74.1129 56.3516L76.2693 57.5862Z" fill="#BCBEC0"/>
<path d="M78.9431 59.1443L76.808 60.3872L74.6697 59.1443L76.808 57.9229L78.9431 59.1443Z" fill="#BCBEC0"/>
<path d="M81.653 60.705L79.4933 61.9429L77.355 60.705L79.4933 59.4473L81.653 60.705Z" fill="#BCBEC0"/>
<path d="M84.3169 62.2625L82.1802 63.5037L80.0386 62.2625L82.1802 61.0098L84.3169 62.2625Z" fill="#BCBEC0"/>
<path d="M87.0268 63.8302L84.8654 65.0632L82.7336 63.8302L84.8654 62.5791L87.0268 63.8302Z" fill="#BCBEC0"/>
<path d="M73.4511 49.3362L71.3095 50.5791L69.158 49.3362L71.3095 48.0967L73.4511 49.3362Z" fill="#BCBEC0"/>
<path d="M76.1379 50.8889L73.9995 52.14L71.8579 50.8889L73.9995 49.6592L76.1379 50.8889Z" fill="#BCBEC0"/>
<path d="M78.8216 52.4392L76.6882 53.6953L74.5317 52.4392L76.6882 51.2178L78.8216 52.4392Z" fill="#BCBEC0"/>
<path d="M81.5152 54.0111L79.3785 55.2589L77.2188 54.0111L79.3785 52.7715L81.5152 54.0111Z" fill="#BCBEC0"/>
<path d="M85.5372 56.3524L83.3988 57.587L81.2654 56.3524L83.3988 55.0996L85.5372 56.3524Z" fill="#BCBEC0"/>
<path d="M88.2275 57.9051L86.094 59.1447L83.9524 57.9051L86.094 56.6523L88.2275 57.9051Z" fill="#BCBEC0"/>
<path d="M90.9061 59.4473L88.7759 60.705L86.6228 59.4473L88.7759 58.2012L90.9061 59.4473Z" fill="#BCBEC0"/>
<path d="M93.6111 61.0106L91.4498 62.2633L89.3147 61.0106L91.4498 59.7842L93.6111 61.0106Z" fill="#BCBEC0"/>
<path d="M98.1145 63.6298L95.9712 64.8644L92.0361 62.5798L94.1646 61.3369L98.1145 63.6298Z" fill="#BCBEC0"/>
<path d="M66.7077 65.0636L60.1399 68.8515L46.2373 60.7894L52.8002 56.9883L66.7077 65.0636Z" fill="#BCBEC0"/>
<path d="M37.1024 53.6599L35.1792 54.7775L33.1624 53.617L35.0806 52.4912L37.1024 53.6599Z" fill="#FFEC7A"/>
<path d="M34.6783 52.2637L32.7617 53.3763L30.7563 52.2109L32.6631 51.1016L34.6783 52.2637Z" fill="#8DD5FF"/>
<path d="M59.2777 0.0526484C59.3943 -0.0248245 59.6177 -0.0248245 59.8657 0.0955058L105.525 26.5698C106 26.8319 106.364 27.4665 106.364 28.0121V60.5211C106.364 60.7898 106.269 60.9892 106.128 61.0519V61.0749L104.773 61.8497L104.47 60.3859L59.8673 34.5594C59.3959 34.2792 59.0527 33.6512 59.0527 33.1204V1.95156L58.7833 2.17244L57.8899 0.870235L59.258 0.0542968H59.2793L59.2777 0.0526484Z" fill="#B4CAED"/>
<path d="M58.4892 0.89827L104.163 27.3561C104.628 27.6363 104.991 28.2709 104.991 28.8083V61.3304C104.991 61.8513 104.63 62.0739 104.163 61.8151L58.4892 35.3457C58.0359 35.0869 57.6763 34.4325 57.6763 33.9133L57.696 1.38618C57.696 0.843874 58.0376 0.622994 58.4909 0.899919L58.4892 0.89827Z" fill="#F5F5F5"/>
<path d="M60.4945 31.0224L102.999 55.639V56.4467L59.762 31.3965V3.96289L60.4945 4.39311V31.0224Z" fill="#B4CAED"/>
<path d="M102.999 55.6384L60.4946 31.0218V4.39258L103.02 29.0158L102.999 55.6384Z" fill="#8DD5FF"/>
<path d="M70.3388 40.3466L59.762 34.2065V33.0361L70.3388 39.1483V40.3466Z" fill="#DAE5F8"/>
<path opacity="0.6" d="M87.6655 34.5037L80.4622 30.3284V30.0186L87.6655 34.1922V34.5037Z" fill="white"/>
<path opacity="0.6" d="M85.3104 34.4228L80.4622 31.6107V31.3008L85.3104 34.1096V34.4228Z" fill="white"/>
<path opacity="0.6" d="M83.4299 32.6926L80.4622 30.9717V30.6602L83.4299 32.381V32.6926Z" fill="white"/>
<path opacity="0.6" d="M102.049 30.7261L90.3755 23.9629V23.1602L102.049 29.9234V30.7261Z" fill="white"/>
<path opacity="0.6" d="M93.7571 29.364V30.3348L101.698 34.9354C101.89 35.0458 102.046 34.9239 102.046 34.6585V34.6502C102.046 34.3849 101.89 34.0783 101.698 33.9662L93.7571 29.3623V29.364Z" fill="white"/>
<path d="M92.1262 28.4196L93.7554 29.3641V30.335L92.1229 29.3872C91.9686 29.6443 91.6582 29.7069 91.2985 29.4992C90.7861 29.2009 90.3689 28.4773 90.3689 27.8838C90.3689 27.2904 90.7844 27.0465 91.3001 27.3432C91.6631 27.5542 91.9768 27.9778 92.1279 28.4196H92.1262Z" fill="#EB5C44"/>
<path opacity="0.6" d="M100.432 31.4131V32.8422L100.88 33.1027V31.6735L100.432 31.4131Z" fill="white"/>
<path opacity="0.6" d="M97.4753 29.7021V31.128L97.9221 31.3884V29.9593L97.4753 29.7021Z" fill="white"/>
<path opacity="0.6" d="M94.5159 27.9863V29.4155L94.9626 29.6759V28.2451L94.5159 27.9863Z" fill="white"/>
<path opacity="0.6" d="M96.053 29.5928V30.3065L96.5013 30.5653V29.8516L96.053 29.5928Z" fill="white"/>
<path opacity="0.6" d="M98.9617 31.2764V31.9918L99.4117 32.2505V31.5352L98.9617 31.2764Z" fill="white"/>
<path opacity="0.6" d="M102.049 38.9267L90.3755 32.1668V31.7168L102.049 38.4817V38.9267Z" fill="white"/>
<path opacity="0.6" d="M94.4633 35.1057L90.3755 32.7354V33.1854L94.4633 35.5524V35.1057Z" fill="white"/>
<path opacity="0.6" d="M102.049 40.9641L90.3755 34.2042V33.7559L102.049 40.5207V40.9641Z" fill="white"/>
<path opacity="0.6" d="M102.049 41.986L90.3755 35.2228V34.7744L102.049 41.5409V41.986Z" fill="white"/>
<path opacity="0.6" d="M102.049 43.0049L90.3755 36.2433V35.7949L102.049 42.5581V43.0049Z" fill="white"/>
<path opacity="0.6" d="M98.1241 41.302L90.3755 36.8135V37.2602L98.1241 41.7503V41.302Z" fill="white"/>
<path opacity="0.6" d="M90.3755 38.2441V47.8557L102.049 54.619V45.0074L90.3755 38.2441ZM101.675 53.9069L90.745 47.5689V40.3425L101.675 46.6755V53.9069Z" fill="white"/>
<path d="M94.207 47.5773C94.207 47.1487 93.775 46.7036 93.2626 46.2322C93.7406 46.341 94.1232 46.3476 94.1232 45.9174C94.1232 45.4871 93.7406 45.052 93.2626 44.6003C93.775 44.7289 94.207 44.7816 94.207 44.3547C94.207 43.9278 93.775 43.4778 93.2626 43.0113C93.7406 43.1168 94.1232 43.1234 94.1232 42.6932L93.9557 42.5976C93.9557 42.5976 93.9557 42.6025 93.9557 42.6058L91.8666 41.3943C91.8666 41.3943 91.8666 41.3893 91.8666 41.3827L91.7007 41.2871C91.7007 41.719 92.0801 42.1492 92.5597 42.6009C92.0456 42.4723 91.6121 42.4195 91.6121 42.8481C91.6121 43.2767 92.0456 43.7217 92.5597 44.1899C92.0801 44.0844 91.7007 44.0761 91.7007 44.5064C91.7007 44.9366 92.0801 45.3717 92.5597 45.8234C92.0456 45.6948 91.6121 45.6421 91.6121 46.069C91.6121 46.4959 92.0456 46.9459 92.5597 47.4124C92.0801 47.3069 91.7007 47.297 91.7007 47.7289L91.8666 47.8262C91.8666 47.8262 91.8666 47.8179 91.8666 47.813L93.9557 49.0229C93.9557 49.0229 93.9557 49.0344 93.9557 49.0361L94.1232 49.1349C94.1232 48.7031 93.7406 48.2729 93.2626 47.8212C93.775 47.9481 94.207 48.0009 94.207 47.5723V47.5773ZM91.8765 41.4849L93.9409 42.6833C93.9179 42.7509 93.8605 42.7904 93.7833 42.8118L92.0374 41.7997C91.9586 41.691 91.9028 41.5855 91.8765 41.4866V41.4849ZM92.154 41.9514L93.665 42.8234C93.4614 42.83 93.1822 42.764 92.9095 42.6932C92.6369 42.4476 92.356 42.1921 92.154 41.9514ZM92.8537 42.9074C92.8717 42.9124 92.8898 42.919 92.9112 42.9206C92.9292 42.9388 92.9489 42.9552 92.9703 42.975C93.2166 43.1976 93.4827 43.4349 93.688 43.6575L92.1327 42.7574C92.338 42.7706 92.6024 42.8415 92.8537 42.9074ZM91.9898 42.7574L93.8309 43.8256C93.9459 43.9673 94.023 44.1009 94.0378 44.2129L91.7829 42.9074C91.7993 42.8135 91.8748 42.7673 91.9898 42.7574ZM91.7829 42.9899L94.0378 44.2987C94.023 44.3926 93.9426 44.4371 93.826 44.447L91.9947 43.3855C91.8765 43.2404 91.7993 43.1052 91.7829 42.9899ZM92.1393 43.5536L93.6798 44.447C93.4761 44.4305 93.2117 44.363 92.9687 44.297C92.9473 44.2904 92.9276 44.2871 92.9095 44.2805C92.8898 44.264 92.8701 44.2459 92.852 44.2294C92.604 44.0069 92.3429 43.7728 92.1376 43.5536H92.1393ZM92.9095 44.5097C93.1838 44.7586 93.4646 45.0157 93.6667 45.2547L92.1508 44.3778C92.3528 44.3712 92.6336 44.4388 92.9079 44.5097H92.9095ZM92.0341 44.3943L93.7849 45.408C93.8752 45.5399 93.9376 45.6635 93.9508 45.7756L91.8666 44.5673C91.8781 44.4701 91.9405 44.419 92.0341 44.3959V44.3943ZM91.865 44.6481L93.9524 45.8564C93.9393 45.9536 93.8769 46.008 93.7865 46.0327L92.0358 45.019C91.9405 44.8871 91.8798 44.7602 91.8666 44.6498L91.865 44.6481ZM92.1508 45.169L93.6667 46.0492C93.463 46.0542 93.1822 45.9882 92.9095 45.9174C92.6336 45.6685 92.3528 45.4113 92.1524 45.169H92.1508ZM92.852 46.1316C92.8701 46.1333 92.8882 46.1399 92.9095 46.1465C92.9276 46.1663 92.9473 46.1827 92.9687 46.1976C93.215 46.4234 93.4811 46.6591 93.6864 46.8816L92.131 45.9783C92.3347 45.9915 92.6008 46.0641 92.852 46.13V46.1316ZM93.9393 48.9371L91.8765 47.7421C91.9028 47.6778 91.9553 47.6415 92.0325 47.6201L93.7865 48.6355C93.8604 48.7426 93.9163 48.8448 93.9393 48.9371ZM93.6699 48.4855L92.1475 47.6036C92.3511 47.5954 92.6336 47.6646 92.9095 47.7338C93.1838 47.9827 93.4663 48.2432 93.6699 48.4855ZM92.9687 47.5212C92.9473 47.5163 92.9276 47.5097 92.9095 47.508C92.8898 47.4882 92.8701 47.4701 92.852 47.452C92.604 47.2327 92.3429 46.9987 92.1376 46.7794L93.6782 47.6712C93.4745 47.6564 93.2101 47.5871 92.967 47.5229L92.9687 47.5212ZM93.8243 47.6729L91.9931 46.6113C91.8748 46.4646 91.7977 46.3294 91.7812 46.2157L94.0362 47.5212C94.0181 47.6185 93.9409 47.6597 93.8243 47.6729ZM91.7812 46.13C91.7977 46.0377 91.8732 45.9932 91.9882 45.9816L93.8292 47.0498C93.9442 47.1915 94.0214 47.3267 94.0362 47.4371L91.7812 46.13Z" fill="#EB5C44"/>
<path opacity="0.6" d="M77.4978 33.3173L69.332 28.5849V28.0244L77.4978 32.7569V33.3173Z" fill="white"/>
<path opacity="0.6" d="M76.5338 33.7193L69.332 29.544V29.2324L76.5338 33.4044V33.7193Z" fill="white"/>
<path opacity="0.6" d="M77.4978 34.8816L69.332 30.1475V29.8359L77.4978 34.5667V34.8816Z" fill="white"/>
<path opacity="0.6" d="M76.5338 34.924L69.332 30.752V30.4404L76.5338 34.6124V34.924Z" fill="white"/>
<path opacity="0.6" d="M74.1786 34.163L69.332 31.3559V31.041L74.1786 33.8531V34.163Z" fill="white"/>
<path opacity="0.6" d="M72.2981 33.6812L69.332 31.9603V31.6455L72.2981 33.3664V33.6812Z" fill="white"/>
<path opacity="0.6" d="M76.5338 36.7375L69.332 32.5622V32.249L76.5338 36.426V36.7375Z" fill="white"/>
<path opacity="0.6" d="M101.281 47.9068L94.9543 44.2441V44.8013L101.281 48.4672V47.9068Z" fill="white"/>
<path opacity="0.6" d="M101.281 49.1145L94.9543 45.4502V45.7634L101.281 49.4277V49.1145Z" fill="white"/>
<path opacity="0.6" d="M101.281 49.7164L94.9543 46.0537V46.3652L101.281 50.0312V49.7164Z" fill="white"/>
<path opacity="0.6" d="M101.281 50.3179L94.9543 46.6553V46.9685L101.281 50.6328V50.3179Z" fill="white"/>
<path opacity="0.6" d="M99.8026 50.3824L94.9543 47.5736V47.2588L99.8026 50.0692V50.3824Z" fill="white"/>
<path opacity="0.6" d="M97.9221 49.8977L94.9543 48.1752V47.8604L97.9221 49.5829V49.8977Z" fill="white"/>
<path opacity="0.6" d="M101.281 52.1327L94.9543 48.4668V48.7767L101.281 52.4443V52.1327Z" fill="white"/>
<path opacity="0.6" d="M77.4978 21.6267L69.332 16.8926V16.5811L77.4978 21.3118V21.6267Z" fill="white"/>
<path opacity="0.6" d="M77.4978 20.3659L69.332 15.6318V14.6494L77.4978 19.3819V20.3659Z" fill="white"/>
<path opacity="0.6" d="M76.5338 21.6695L69.332 17.4958V17.1826L76.5338 21.3579V21.6695Z" fill="white"/>
<path opacity="0.6" d="M74.1786 20.9081L69.332 18.101V17.7861L74.1786 20.5982V20.9081Z" fill="white"/>
<path opacity="0.6" d="M72.2981 20.4237L69.332 18.7061V18.3896L72.2981 20.1105V20.4237Z" fill="white"/>
<path opacity="0.6" d="M76.5338 23.4826L69.332 19.3057V18.9941L76.5338 23.1678V23.4826Z" fill="white"/>
<path opacity="0.6" d="M69.332 20.7949V26.0878L77.4978 30.8235V25.5274L69.332 20.7966V20.7949ZM70.0793 26.1735L69.5915 25.89V25.2702L70.0793 25.5521V26.1735ZM70.0793 25.4664L69.5915 25.1829V24.6488L70.0793 24.9356V25.4664ZM70.0793 24.8482L69.5915 24.5614V24.0274L70.0793 24.3142V24.8482ZM70.0793 24.2252L69.5915 23.9416V23.4092L70.0793 23.6911V24.2252ZM70.0793 23.6054L69.5915 23.3219V22.7845L70.0793 23.0713V23.6037V23.6054ZM70.0793 22.9823L69.5915 22.7004V22.1664L70.0793 22.4482V22.9823ZM70.0793 22.3625L69.5915 22.0773V21.3405L70.0793 21.624V22.3625ZM70.8052 26.5922L70.1565 26.218V25.5966L70.8052 25.9724V26.5922ZM70.8052 25.8867L70.1565 25.5109V24.9768L70.8052 25.3543V25.8867ZM70.8052 25.2653L70.1565 24.8911V24.357L70.8052 24.7312V25.2653ZM70.8052 24.6455L70.1565 24.2697V23.7389L70.8052 24.1098V24.6471V24.6455ZM70.8052 24.0241L70.1565 23.6499V23.1158L70.8052 23.49V24.0241ZM70.8052 23.4026L70.1565 23.0268V22.496L70.8052 22.8702V23.4026ZM70.8052 22.7795L70.1565 22.4054V21.6669L70.8052 22.0394V22.7779V22.7795ZM71.5262 27.0125L70.8791 26.6351V26.0153L71.5262 26.3895V27.0109V27.0125ZM71.5262 26.3021L70.8791 25.9296V25.3955L71.5262 25.7713V26.3021ZM71.5262 25.6823L70.8791 25.3081V24.7757L71.5262 25.1515V25.6823ZM71.5262 25.0625L70.8791 24.6883V24.151L71.5262 24.5252V25.0609V25.0625ZM71.5262 24.4427L70.8791 24.0653V23.5312L71.5262 23.9087V24.4427ZM71.5262 23.8197L70.8791 23.4455V22.9114L71.5262 23.2856V23.8197ZM71.5262 23.1999L70.8791 22.8241V22.0839L71.5262 22.4598V23.1982V23.1999ZM72.2489 27.4279L71.6034 27.0554V26.434L72.2489 26.8081V27.4279ZM72.2489 26.7208L71.6034 26.3466V25.8125L72.2489 26.1884V26.7208ZM72.2489 26.101L71.6034 25.7268V25.1927L72.2489 25.5669V26.101ZM72.2489 25.4779L71.6034 25.1037V24.5697L72.2489 24.9438V25.4779ZM72.2489 24.8581L71.6034 24.484V23.9499L72.2489 24.3224V24.8565V24.8581ZM72.2489 24.235L71.6034 23.8609V23.3268L72.2489 23.7059V24.2367V24.235ZM72.2489 23.6169L71.6034 23.2427V22.5026L72.2489 22.8801V23.6186V23.6169ZM72.9699 27.8466L72.3211 27.4708V26.851L72.9699 27.2252V27.8483V27.8466ZM72.9699 27.1395L72.3211 26.7603V26.2296L72.9699 26.6037V27.1378V27.1395ZM72.9699 26.5213L72.3211 26.1439V25.6098L72.9699 25.984V26.5213ZM72.9699 25.8982L72.3211 25.5208V24.9883L72.9699 25.3625V25.8966V25.8982ZM72.9699 25.2752L72.3211 24.901V24.3669L72.9699 24.7444V25.2752ZM72.9699 24.6554L72.3211 24.2779V23.7488L72.9699 24.1213V24.6554ZM72.9699 24.0339L72.3211 23.6598V22.9213L72.9699 23.2955V24.0339ZM73.6925 28.2653L73.0454 27.8911V27.268L73.6925 27.6455V28.2653ZM73.6925 27.5565L73.0454 27.184V26.6482L73.6925 27.0208V27.5548V27.5565ZM73.6925 26.9367L73.0454 26.5625V26.0252L73.6925 26.4026V26.9367ZM73.6925 26.3169L73.0454 25.9395V25.4054L73.6925 25.7796V26.3169ZM73.6925 25.6955L73.0454 25.3164V24.784L73.6925 25.1598V25.6938V25.6955ZM73.6925 25.0724L73.0454 24.6999V24.1658L73.6925 24.54V25.0741V25.0724ZM73.6925 24.4526L73.0454 24.0752V23.34L73.6925 23.7125V24.4526ZM74.4118 28.6856L73.7664 28.3098V27.6884L74.4118 28.0625V28.6856ZM74.4118 27.9752L73.7664 27.601V27.0686L74.4118 27.4378V27.9752ZM74.4118 27.3537L73.7664 26.9796V26.4455L74.4118 26.8197V27.3537ZM74.4118 26.734L73.7664 26.3565V25.8224L74.4118 26.1999V26.7323V26.734ZM74.4118 26.1125L73.7664 25.7384V25.2059L74.4118 25.5785V26.1125ZM74.4118 25.4944L73.7664 25.1202V24.5829L74.4118 24.9603V25.4944ZM74.4118 24.8697L73.7664 24.4971V23.7603L74.4118 24.1345V24.8697ZM75.1361 29.1027L74.489 28.7285V28.1087L75.1361 28.4812V29.1043V29.1027ZM75.1361 28.3955L74.489 28.0213V27.4873L75.1361 27.8614V28.3955ZM75.1361 27.7741L74.489 27.3983V26.8675L75.1361 27.24V27.7741ZM75.1361 27.151L74.489 26.7768V26.2428L75.1361 26.6169V27.1493V27.151ZM75.1361 26.5329L74.489 26.1587V25.6246L75.1361 25.9988V26.5329ZM75.1361 25.9098L74.489 25.5356V25.0015L75.1361 25.3757V25.9098ZM75.1361 25.2884L74.489 24.9125V24.179L75.1361 24.5532V25.2867V25.2884ZM75.8588 29.5213L75.2117 29.1439V28.5257L75.8588 28.8983V29.5213ZM75.8588 28.8142L75.2117 28.4367V27.9059L75.8588 28.2785V28.8158V28.8142ZM75.8588 28.1911L75.2117 27.8169V27.2829L75.8588 27.6554V28.1928V28.1911ZM75.8588 27.5713L75.2117 27.1955V26.6614L75.8588 27.0356V27.573V27.5713ZM75.8588 26.9499L75.2117 26.5724V26.0417L75.8588 26.4158V26.9499ZM75.8588 26.3301L75.2117 25.9526V25.4219L75.8588 25.7944V26.3318V26.3301ZM75.8588 25.707L75.2117 25.3329V24.596L75.8588 24.9702V25.7054V25.707ZM76.583 29.9417L75.9343 29.5642V28.9428L76.583 29.3169V29.9417ZM76.583 29.2312L75.9343 28.857V28.3246L76.583 28.6972V29.2312ZM76.583 28.6081L75.9343 28.234V27.6999L76.583 28.0741V28.6081ZM76.583 27.99L75.9343 27.6158V27.0818L76.583 27.4559V27.99ZM76.583 27.3686L75.9343 26.9928V26.4587L76.583 26.8329V27.3702V27.3686ZM76.583 26.7455L75.9343 26.373V25.8389L76.583 26.2098V26.7455ZM76.583 26.1241L75.9343 25.7499V25.0131L76.583 25.3905V26.1241ZM77.2383 30.3208L76.657 29.9845V29.3614L77.2383 29.6961V30.3208ZM77.2383 29.6104L76.657 29.2724V28.7384L77.2383 29.0763V29.6104ZM77.2383 28.9856L76.657 28.651V28.1202L77.2383 28.4548V28.9856ZM77.2383 28.3658L76.657 28.0312V27.4972L77.2383 27.8367V28.3675V28.3658ZM77.2383 27.7444L76.657 27.4098V26.8757L77.2383 27.2136V27.7444ZM77.2383 27.1263L76.657 26.79V26.2559L77.2383 26.5955V27.1279V27.1263ZM77.2383 26.5065L76.657 26.1702V25.4334L77.2383 25.7713V26.5065Z" fill="white"/>
<path d="M75.7372 26.5951L74.1589 27.3764L73.5939 26.633V25.9737L72.1503 25.0127L71.3636 25.9374L69.5898 25.7462V25.9012L71.426 26.094L72.1782 25.2121L73.4412 26.0578V26.6858L74.1145 27.566L75.7438 26.7616L77.235 27.4061V27.2446L75.7372 26.5951Z" fill="#EB5C44"/>
<path d="M71.4014 25.7345C71.27 25.6603 71.1616 25.7213 71.1616 25.8779C71.1616 26.0345 71.2684 26.2175 71.4014 26.2966C71.5361 26.3741 71.6445 26.3098 71.6445 26.1532C71.6445 25.9966 71.5344 25.8136 71.4014 25.7345Z" fill="#EB5C44"/>
<path d="M72.1846 24.93C72.0499 24.8558 71.9448 24.9168 71.9448 25.0684C71.9448 25.2201 72.0516 25.4113 72.1846 25.4887C72.3193 25.5662 72.4277 25.5069 72.4277 25.3519C72.4277 25.197 72.3193 25.0074 72.1846 24.93Z" fill="#EB5C44"/>
<path d="M75.7652 26.4233C75.6321 26.3442 75.5254 26.4101 75.5254 26.5634C75.5254 26.7167 75.6321 26.9063 75.7652 26.9837C75.8982 27.0579 76.0082 26.9953 76.0082 26.8453C76.0082 26.687 75.8999 26.4975 75.7652 26.4249V26.4233Z" fill="#EB5C44"/>
<path opacity="0.6" d="M64.2931 18.3169C64.2931 18.3169 64.1091 17.4829 64.8663 17.9213C65.4986 18.2873 65.4083 18.9631 65.405 19.0406C65.4477 19.2318 65.3853 19.8054 65.2506 19.9571C65.2292 19.9867 65.1061 19.8994 65.1061 19.8994V19.9884C65.3541 20.2801 65.6645 20.6411 65.6645 20.6411C65.6645 20.6411 66.1178 20.8406 66.2689 21.3005C66.42 21.7604 66.2491 22.4263 66.4249 23.6082C66.5579 24.0186 66.5267 24.5082 66.6992 25.7115C66.7386 25.7774 66.8043 25.878 66.8486 25.9703C66.8897 26.0642 67.0145 26.5522 67.0325 26.6148C67.0523 26.6824 67.0079 26.9412 66.9701 26.9725C66.9274 27.0087 66.4676 26.6049 66.438 26.5291C66.4068 26.4549 66.4249 26.2752 66.4249 26.2752C66.4249 26.2752 66.3033 25.7675 66.3099 25.7214C66.3132 25.6736 66.3132 25.6538 66.3247 25.5879C66.1917 24.8543 65.8698 24.0384 65.8895 23.4038C65.8139 23.0642 65.7778 22.7148 65.7778 22.7148L65.607 23.2736C65.607 23.2736 65.8106 24.7505 65.8501 25.0423C66.0439 26.7516 65.8057 28.1972 65.7991 28.4362C65.7893 28.6736 65.8451 28.9175 65.8615 29.0774C65.8796 29.239 65.6776 31.0489 65.7187 31.7758C65.7351 32.0297 66.3674 32.7269 66.3707 32.8423C66.3707 32.9577 66.0258 32.7549 65.9174 32.6709C65.809 32.5868 65.6546 32.3857 65.5709 32.3231C65.4854 32.2654 65.3508 32.239 65.2867 32.1747C65.2243 32.1121 65.1504 31.8994 65.157 31.8236C65.1603 31.7527 65.203 31.6753 65.2194 31.5549C65.3031 30.8725 65.0634 29.506 65.0798 29.2406C65.0946 28.9719 65.1652 28.7923 65.1603 28.5368C65.1553 28.2796 64.8449 26.8159 64.8728 25.2302C64.8039 25.189 64.684 25.1247 64.6281 25.0868C64.7562 26.8093 64.4705 28.0357 64.4787 28.2714C64.4853 28.5038 64.5411 28.6851 64.5723 29.0379C64.5986 29.3478 64.4442 29.6857 64.4311 31.0588C64.4278 31.1643 64.5115 31.5665 64.4705 31.639C64.4311 31.7099 64.1781 31.5665 64.1781 31.5665C64.1781 31.5665 63.9449 31.5862 63.7922 31.4807C63.6427 31.3753 63.4703 31.2764 63.4538 31.1643C63.4391 31.0505 63.9022 31.011 63.9712 30.8395C64.0385 30.6648 63.8053 28.0225 63.8053 27.8494C63.8053 27.678 63.8382 27.5511 63.8513 27.4258C63.8694 27.3038 63.5393 25.6538 63.6066 23.806C63.6181 23.4928 63.8694 22.278 63.8694 22.278L63.6838 21.4554C63.6838 21.4554 63.6345 21.9236 63.6066 22.1642C63.5672 22.901 63.3438 23.0939 63.1697 23.6824C63.1697 23.6824 63.1878 23.7714 63.1829 23.8653C63.1812 23.9576 63.1106 24.4291 63.017 24.4653C62.925 24.5016 62.5046 24.4324 62.4422 24.3401C62.3797 24.251 62.3978 23.9576 62.4224 23.9016C62.4504 23.8439 62.5374 23.6527 62.5818 23.5554C62.6245 23.4549 62.7246 23.4598 62.7476 23.4335C62.948 22.7889 62.9332 22.1444 63.0236 21.6911C63.1845 21.0285 63.0663 19.5944 63.2666 19.4527C63.4259 19.3406 63.9433 19.601 63.9433 19.601C63.9433 19.601 64.436 19.6043 64.3588 18.8642C64.3588 18.8642 64.303 18.8098 64.2734 18.734C64.2488 18.6499 64.211 18.3994 64.2241 18.3549C64.2389 18.3136 64.2915 18.3268 64.2915 18.3268L64.2931 18.3169Z" fill="white"/>
<path d="M64.7185 21.3616C64.7185 21.3616 64.863 21.2297 64.9714 21.4638C65.1094 21.7638 64.7185 21.7654 64.7185 21.7654C64.7185 21.7654 64.3276 21.3105 64.4639 21.1687C64.5723 21.0583 64.7185 21.3616 64.7185 21.3616Z" fill="#EB5C44"/>
<path d="M83.9901 43.2647L84.6191 39.9432L85.2711 43.2531L86.0561 41.2075L86.493 42.5938L87.6328 43.2548V42.8674L86.7082 42.33L86.0266 40.1443L85.3286 41.9723L84.5747 38.1696L83.9079 41.6855L83.3709 39.4635L82.819 40.4245L82.0603 36.6201L81.4296 39.2806L80.3719 38.6558L80.3687 39.0432L81.6957 39.8229L82.0734 38.2256L82.7205 41.4679L83.3035 40.4443L83.9901 43.2647Z" fill="#EB5C44"/>
<path opacity="0.6" d="M78.9939 15.7393V32.7339L89.1338 38.6103V21.6157L78.9939 15.7393ZM88.8086 37.9872L79.3142 32.4833V19.3047L88.8086 24.8069V37.9872Z" fill="white"/>
<path opacity="0.6" d="M68.3416 9.56543V33.9826L78.4831 39.8606V15.4402L68.3416 9.56543ZM78.1612 39.2343L68.6651 33.732V13.1341L78.1612 18.6364V39.2343Z" fill="white"/>
<path d="M67.5631 18.33L62.1926 15.2179V8.69043L67.5631 11.8025V18.33Z" fill="white"/>
<path opacity="0.6" d="M61.8674 5.8125V15.4702L67.8883 18.9549V9.30043L61.8674 5.8125ZM67.5631 18.3301L62.1926 15.218V8.68724L67.5631 11.7993V18.3301Z" fill="white"/>
<path opacity="0.6" d="M89.1339 39.3401L78.9939 33.4654V40.7956L61.3796 30.5791V31.0736L89.1355 47.1666V39.3434L89.1339 39.3401ZM88.8087 46.494L79.3142 40.9901V34.2154L88.8087 39.7176V46.494Z" fill="white"/>
<g opacity="0.6">
<path d="M83.944 25.2931C83.944 25.2931 85.6192 23.7584 86.869 26.4914C88.449 29.953 83.944 29.9645 83.944 29.9645C83.944 29.9645 79.4374 24.7277 81.0157 23.1024C82.2655 21.815 83.944 25.2914 83.944 25.2914V25.2931Z" fill="white"/>
</g>
<path d="M82.2327 24.6652C82.0668 24.5696 81.9321 24.6455 81.9321 24.84C81.9321 25.0345 82.0668 25.2685 82.2327 25.3658C82.4018 25.463 82.5382 25.3856 82.5382 25.1878C82.5382 24.99 82.4018 24.7641 82.2327 24.6669V24.6652Z" fill="#EB5C44"/>
<path d="M82.2327 24.1689C81.832 23.9365 81.5051 24.1244 81.5051 24.5925C81.5051 25.0607 81.832 25.6244 82.2327 25.8585C82.6367 26.0909 82.9619 25.9013 82.9619 25.4381C82.9619 24.975 82.6367 24.403 82.2327 24.1689ZM82.2327 25.6607C81.9223 25.4843 81.6743 25.0475 81.6743 24.6914C81.6743 24.3354 81.9223 24.1854 82.2327 24.3651C82.5447 24.5447 82.796 24.9832 82.796 25.3425C82.796 25.7019 82.5431 25.8453 82.2327 25.6607Z" fill="#EB5C44"/>
<path opacity="0.3" d="M65.6975 15.4726C65.2475 15.0209 64.5101 14.7044 64.0699 14.777C63.6117 14.8429 63.6117 15.2682 64.0666 15.7215C64.5084 16.1682 65.2458 16.4847 65.6975 16.4187C66.1426 16.3495 66.1426 15.9259 65.6975 15.4726Z" fill="black"/>
<path d="M64.2228 12.7808C64.0388 12.8038 63.9485 12.9044 63.9485 13.0461V14.2C63.9485 14.7143 64.3624 15.311 64.8813 15.5335C65.4003 15.756 65.8027 15.5071 65.8027 14.9945V13.8406C65.8027 13.6989 65.7124 13.5209 65.5366 13.3445C65.1737 12.9802 64.5874 12.7297 64.2228 12.7824V12.7808Z" fill="#F7F7F7"/>
<path d="M64.8813 11.3579C64.3624 11.1354 63.9485 11.3728 63.9485 11.8887V13.0459C63.9485 13.1827 64.0388 13.3607 64.2228 13.5404C64.5874 13.9113 65.1753 14.1618 65.5334 14.1008C65.7124 14.0761 65.8027 13.9755 65.8027 13.8387V12.6832C65.8027 12.1656 65.3855 11.5722 64.8813 11.3563V11.3579Z" fill="#EB5C44"/>
<path d="M64.234 11.6648C64.1815 11.7753 64.1848 11.9055 64.2472 11.9549C64.3047 12.0011 64.395 11.9483 64.4475 11.8362C64.5001 11.7242 64.4886 11.5906 64.4328 11.5428C64.3671 11.4901 64.2817 11.5494 64.2324 11.6665L64.234 11.6648Z" fill="#F5F5F5"/>
<path opacity="0.3" d="M94.7195 77.8555C98.0141 79.7627 103.36 79.7627 106.676 77.8555C109.972 75.9434 109.972 72.8412 106.676 70.9307C103.36 69.0088 98.0141 69.0088 94.7195 70.9307C91.4167 72.8412 91.4167 75.9434 94.7195 77.8555Z" fill="#0D0D0D"/>
<path d="M108.709 72.041V74.2234C108.709 75.4218 107.921 76.6169 106.349 77.5317C103.186 79.3564 98.0783 79.3564 94.9282 77.5317C93.3499 76.6185 92.5566 75.4235 92.5566 74.2234V72.041H108.709Z" fill="#003552"/>
<path d="M94.9297 75.3415C98.0797 77.1695 103.186 77.1695 106.351 75.3415C109.497 73.5167 109.497 70.5497 106.351 68.7348C103.187 66.9035 98.0797 66.9035 94.9297 68.7348C91.7764 70.5497 91.7764 73.5167 94.9297 75.3415Z" fill="#1078AD"/>
<path d="M107.339 70.8418V71.6231C107.339 72.6187 106.689 73.611 105.377 74.3742C102.754 75.8924 98.5167 75.8924 95.8938 74.3742C94.5865 73.611 93.9329 72.6187 93.9329 71.6231V70.8418H107.339Z" fill="#F26716"/>
<path d="M95.8938 73.5847C98.515 75.1012 102.752 75.1012 105.377 73.5847C107.998 72.0666 107.998 69.6072 105.377 68.0908C102.754 66.5726 98.5167 66.5726 95.8938 68.0908C93.2792 69.6072 93.2792 72.0666 95.8938 73.5847Z" fill="#FFA769"/>
<path d="M105.541 68.95L103.843 69.9291V63.5351C103.843 63.5351 104.932 62.9499 106.091 61.7549L105.539 68.95H105.541Z" fill="#FF8530"/>
<path d="M102.148 68.9504L103.843 69.9295V63.5355L102.148 62.5498V68.9504Z" fill="#F26716"/>
<path d="M102.449 61.0676C105.083 59.5494 107.231 55.8357 107.252 52.778C107.271 50.3978 105.976 49.0956 104.163 49.351C103.956 49.3774 104.13 50.6961 103.91 50.7703L102.503 49.951L102.511 48.306C104.199 47.3384 105.735 47.251 106.848 47.8889H106.852L106.876 47.9153H106.886L108.327 48.751L108.148 49.351C108.488 50.045 108.678 50.9186 108.673 51.9604C109.47 52.7252 110.081 54.6654 107.763 58.3428C106.756 59.9302 103.845 63.5352 103.845 63.5352L102.439 62.7176L102.45 61.0659L102.449 61.0676Z" fill="#F26716"/>
<path d="M108.233 58.9133C107.1 60.8567 105.553 62.5512 103.843 63.5369L103.853 61.8836C106.489 60.3803 108.645 56.6517 108.658 53.5907C108.678 50.5264 106.545 49.2671 103.909 50.772L103.917 49.1237C107.331 47.1638 110.1 48.8039 110.079 52.7797C110.069 54.7611 109.363 56.9633 108.231 58.9133H108.233Z" fill="#FF8530"/>
<path d="M102.031 49.4875V49.4579C102.031 49.0689 101.903 48.7853 101.695 48.6386L102.667 48.0732L103.917 48.7952L101.576 50.9084C101.854 50.4634 102.031 49.9474 102.031 49.4875Z" fill="#1078AD"/>
<path d="M100.711 48.691C101.071 48.4816 101.397 48.4585 101.632 48.5871V48.5805L101.64 48.5953C101.64 48.5953 101.642 48.6019 101.65 48.6019L102.946 49.3519L101.514 52.7723L100.269 52.0437V48.9464L100.711 48.6893V48.691Z" fill="#F26716"/>
<path d="M103.281 50.2092V50.1779C103.281 49.7823 103.148 49.5004 102.946 49.3587L103.918 48.7949V50.9971L102.823 51.6285C103.104 51.1817 103.283 50.6757 103.283 50.2092H103.281Z" fill="#00537D"/>
<path d="M103.281 50.1784V50.2097C103.281 51.0504 102.692 52.0905 101.954 52.5158L101.516 52.7729V49.6641L101.954 49.4119C102.692 48.9899 103.281 49.3278 103.281 50.1784Z" fill="#FF8530"/>
<path d="M102.396 50.3646C102.572 50.2525 102.714 50.3399 102.714 50.546C102.714 50.752 102.57 51.0009 102.396 51.1064C102.22 51.2102 102.072 51.1196 102.072 50.9185C102.072 50.7174 102.22 50.4619 102.396 50.3646Z" fill="#00537D"/>
<path d="M100.594 56.4102V59.8437C100.594 59.9937 100.504 60.1355 100.313 60.2442C99.9356 60.4585 99.3296 60.4585 98.9535 60.2442C98.7597 60.1371 98.6677 59.9953 98.6677 59.8437V56.4102H100.593H100.594Z" fill="#003552"/>
<path d="M98.9552 56.8074C99.3313 57.0233 99.9373 57.0233 100.315 56.8074C100.69 56.5832 100.69 56.2354 100.315 56.0145C99.9373 55.7986 99.3313 55.7986 98.9552 56.0145C98.5758 56.2337 98.5758 56.5832 98.9552 56.8074Z" fill="#1D374E"/>
<path d="M101.729 55.9043V56.8719C101.729 57.195 101.519 57.523 101.098 57.7604C100.243 58.2598 98.8747 58.2598 98.0305 57.7604C97.6117 57.523 97.3916 57.195 97.3916 56.8719V55.9043H101.729Z" fill="#00537D"/>
<path d="M98.0306 56.7941C98.8748 57.2886 100.243 57.2886 101.099 56.7941C101.936 56.3045 101.936 55.5051 101.099 55.0139C100.243 54.5292 98.8748 54.5292 98.0306 55.0139C97.1815 55.5051 97.1815 56.3045 98.0306 56.7941Z" fill="#1D374E"/>
<path d="M101.729 46.2422V55.9049C101.729 56.2362 101.519 56.5477 101.098 56.795C100.243 57.2895 98.8747 57.2895 98.0305 56.795C97.6117 56.5477 97.3916 56.2362 97.3916 55.9049V46.2422H101.729Z" fill="#FF8530"/>
<path d="M98.0306 47.1306C98.8748 47.6268 100.243 47.6268 101.099 47.1306C101.936 46.6444 101.936 45.8482 101.099 45.3636C100.243 44.8658 98.8748 44.8658 98.0306 45.3636C97.1815 45.8482 97.1815 46.6444 98.0306 47.1306Z" fill="#FFA769"/>
<path d="M101 40.8154V46.105C100.993 46.3193 100.864 46.5303 100.579 46.6968C100.011 47.0166 99.1112 47.0166 98.5495 46.6968C98.2653 46.5286 98.1257 46.3177 98.1257 46.105V40.8154H101Z" fill="#00537D"/>
<path d="M98.5497 41.4055C99.1114 41.7286 100.011 41.7286 100.58 41.4055C101.133 41.0791 101.133 40.5533 100.58 40.2302C100.011 39.8972 99.1114 39.8972 98.5497 40.2302C97.9864 40.5533 97.9864 41.0791 98.5497 41.4055Z" fill="#1078AD"/>
<path d="M98.7169 41.0228C98.7612 40.9733 98.822 40.9173 98.909 40.8612C99.2621 40.6519 99.855 40.6519 100.216 40.8612C100.303 40.9189 100.367 40.9733 100.41 41.0228C100.553 40.8282 100.496 40.5991 100.216 40.4343C99.855 40.2315 99.2621 40.2315 98.909 40.4343C98.6315 40.5991 98.5641 40.8282 98.7169 41.0228Z" fill="#003552"/>
<path d="M98.717 41.0226C98.7614 41.0902 98.8221 41.143 98.9092 41.1924C99.2623 41.4067 99.8552 41.4067 100.217 41.1924C100.304 41.143 100.368 41.0919 100.41 41.0226C100.369 40.9732 100.304 40.9172 100.217 40.8611C99.8552 40.6518 99.2623 40.6518 98.9092 40.8611C98.8221 40.9188 98.7614 40.9732 98.717 41.0226Z" fill="#4FBEFF"/>
<path d="M107.132 66.1523L99.4019 70.6276V69.9105L107.132 65.4336V66.1523Z" fill="#00537D"/>
<path d="M91.6829 66.1523L99.4019 70.6276V69.9105L91.6829 65.4336V66.1523Z" fill="#003552"/>
<path d="M99.4019 69.9109L107.133 65.4339L99.4019 60.9619L91.6829 65.4339L99.4019 69.9109Z" fill="#1078AD"/>
<path d="M95.2485 66.0487C95.3553 65.6069 95.6952 65.1767 96.2766 64.8404C97.7088 64.0179 100.028 64.0179 101.455 64.8404C102.038 65.1767 102.38 65.6069 102.483 66.0487C102.644 65.4091 102.294 64.7415 101.455 64.252C100.028 63.4212 97.7104 63.4212 96.2766 64.252C95.4374 64.7415 95.0958 65.4091 95.2485 66.0487Z" fill="#003552"/>
<path d="M95.2485 66.0488C95.3553 66.4823 95.6953 66.9158 96.2767 67.2471C97.7088 68.0779 100.028 68.0779 101.455 67.2471C102.038 66.9158 102.38 66.4807 102.483 66.0488C102.38 65.607 102.038 65.1768 101.455 64.8405C100.028 64.018 97.7104 64.018 96.2767 64.8405C95.6953 65.1768 95.3569 65.607 95.2485 66.0488Z" fill="#659EC9"/>
<path d="M94.7212 64.4679L100.947 68.0729L102.859 66.9586V66.802L94.7212 64.2998V64.4679Z" fill="#1DA4B5"/>
<path d="M94.7212 64.2997L100.947 67.9096L102.859 66.8019L96.6296 63.1953L94.7212 64.2997Z" fill="#4DEBFF"/>
<path d="M103.779 64.7289L97.5478 68.3421L97.0781 68.0668V67.9102L103.779 64.5723V64.7289Z" fill="#808285"/>
<path d="M103.779 64.5718L97.5478 68.1784L97.0781 67.9097L103.306 64.2998L103.779 64.5718Z" fill="#BCBEC0"/>
<path d="M103.193 64.6267C103.25 64.6662 103.344 64.6662 103.401 64.6267C103.459 64.597 103.459 64.5558 103.401 64.5096C103.344 64.4734 103.252 64.4734 103.193 64.5096C103.13 64.5558 103.13 64.5986 103.193 64.6267Z" fill="#0F2034"/>
<path d="M100.831 63.0144L94.6062 66.6227L94.1299 66.3458V66.1908L100.831 62.8496V63.0144Z" fill="#808285"/>
<path d="M100.831 62.8494L94.6062 66.4642L94.1299 66.1906L100.363 62.584L100.831 62.8494Z" fill="#BCBEC0"/>
<path d="M100.243 62.9172C100.304 62.9501 100.401 62.9501 100.453 62.9172C100.512 62.8809 100.515 62.8265 100.453 62.7935C100.405 62.7589 100.304 62.7589 100.243 62.7935C100.182 62.8265 100.182 62.8826 100.243 62.9172Z" fill="#0F2034"/>
<path d="M103.849 63.5349L102.448 64.3409L103.849 61.875V63.5349Z" fill="#939598"/>
<path d="M102.448 64.341L103.849 61.8751L102.448 61.0674L101.046 63.535L102.448 64.341Z" fill="#BCBEC0"/>
<path opacity="0.3" d="M44.2039 75.9336C41.3445 77.5885 36.7065 77.5885 33.8472 75.9336C30.9862 74.277 30.9862 71.5902 33.8472 69.9319C36.7065 68.2753 41.3462 68.2753 44.2039 69.9319C47.0632 71.5902 47.0632 74.277 44.2039 75.9336Z" fill="black"/>
<path d="M38.8268 31.2315C38.8268 31.2315 36.2778 29.9161 35.1775 31.8776C34.0771 33.8375 31.2785 38.1975 31.2407 38.9013C31.5971 41.4645 37.1056 43.7277 37.1056 43.7277L37.3027 40.459C37.3027 40.459 35.882 39.3826 35.0346 38.4134C35.1775 38.054 37.3027 36.7963 37.3027 36.7963L38.8268 31.2298V31.2315Z" fill="white"/>
<path d="M38.8267 31.2314C38.8267 31.2314 33.1918 32.6672 36.0314 37.6139C36.7721 37.5875 37.3026 36.7996 37.3026 36.7996L38.8267 31.2331V31.2314Z" fill="#B4CAED"/>
<path d="M35.9526 69.1455C35.9526 69.1455 35.3482 70.9076 35.5634 71.3065C36.4453 72.3829 37.5392 71.4186 37.5392 71.4186L38.9335 70.2054L35.9543 69.1455H35.9526Z" fill="#DAE5F8"/>
<path d="M40.8106 73.3031C41.7287 74.1932 43.284 74.4784 44.1791 74.8855C45.0758 75.2943 44.2465 76.1581 44.2465 76.1581C44.2465 76.1581 44.2465 76.4531 41.2672 76.6443C39.6561 76.7251 37.4832 75.9949 36.8641 75.7246C36.2482 75.4575 37.2927 72.6306 37.2927 72.6306C37.2927 72.6306 39.8876 72.4146 40.809 73.3015L40.8106 73.3031Z" fill="#DAE5F8"/>
<path d="M35.5634 68.9313C35.5634 68.9313 35.3499 70.6308 35.5634 71.0297C36.4453 72.1028 37.5392 71.1385 37.5392 71.1385L38.9335 69.9253L35.5634 68.9297V68.9313Z" fill="#BF6E34"/>
<path d="M36.2202 50.318C35.9837 53.7367 36.0839 57.79 35.9936 58.0653C34.0753 61.0422 35.069 67.7445 35.1051 68.9016C36.6522 70.5747 38.7528 69.0434 38.7528 69.0434L39.7907 52.2317C39.7907 52.2317 36.5257 49.3966 36.2186 50.318H36.2202Z" fill="#295E87"/>
<path d="M40.8106 73.0239C41.7287 73.9173 43.284 74.2024 44.1791 74.6063C45.0758 75.0184 44.2465 75.8821 44.2465 75.8821C44.2465 75.8821 44.2465 76.1755 41.2672 76.3684C39.6561 76.4475 37.4832 75.7173 36.8641 75.4469C36.2482 75.1783 37.2927 72.353 37.2927 72.353C37.2927 72.353 39.8876 72.1337 40.809 73.0239H40.8106Z" fill="#BF6E34"/>
<path d="M44.8346 53.9605C44.1924 57.8062 42.7964 62.1512 42.5484 62.8683C42.2971 63.587 41.7962 72.7106 41.7962 72.7106C41.7962 72.7106 38.8268 74.5403 37.1106 72.5623C37.0399 66.46 37.646 63.4419 38.5049 62.3276C38.9336 59.3836 38.592 57.7732 39.111 53.4594C39.4017 52.5281 44.7689 53.0968 44.8346 53.9589V53.9605Z" fill="#517FA2"/>
<path d="M44.5094 27.2342C44.5932 27.8837 43.7342 30.7683 43.4172 31.0386C43.0937 31.3073 42.7964 31.1392 42.6092 31.0897C42.1789 31.8166 42.4762 33.2425 42.4762 33.2425C42.4762 33.2425 38.454 32.0342 38.2356 31.8166C38.8285 31.1177 39.1225 30.2392 39.1225 30.2392L43.097 27.2342C43.097 27.2342 44.4256 26.5864 44.511 27.2342H44.5094Z" fill="#F0C6B4"/>
<path d="M38.454 31.5747C38.454 31.5747 38.9024 30.6252 38.881 30.739C38.8564 30.8494 39.1077 31.456 41.0457 31.9851C42.2249 32.3065 42.6535 31.8928 42.6535 31.8928C42.6535 31.8928 42.3316 32.7945 42.5813 33.4208C42.7094 33.6203 39.6168 33.4208 39.6168 33.4208L38.4524 31.5747H38.454Z" fill="#517FA2"/>
<path d="M43.174 24.2212C40.0059 23.1712 38.3406 25.8893 38.0975 26.7234C37.7526 28.1229 38.7413 30.4157 38.8792 30.7405C39.5756 31.7361 41.4528 31.5201 41.9899 31.141C42.5269 31.0075 43.2791 28.1806 43.5731 29.0443C43.8425 27.8311 44.5257 27.5591 44.5651 26.9937C44.6078 26.43 44.6308 23.8816 43.1724 24.2228L43.174 24.2212Z" fill="#85413A"/>
<path d="M40.3557 26.4828C40.7006 26.8306 42.8537 24.4619 42.8537 24.4619C42.8537 24.4619 40.0075 26.1334 40.3557 26.4828Z" fill="#572B26"/>
<path d="M37.1088 31.4589C36.644 31.6023 35.9986 32.5221 35.675 34.3914C35.3515 36.2589 36.9544 40.2216 36.823 42.0068C36.6851 43.7854 35.2612 46.2414 35.6159 51.559C35.6159 51.559 36.4453 52.4805 37.5736 53.3722C37.4307 52.2299 37.9398 51.1881 37.9398 51.1881C37.9398 51.1881 38.2634 53.8832 38.4063 53.9772C39.2734 54.5541 40.2211 55.0041 41.0817 55.0041C46.375 55.0041 46.375 52.7393 46.375 52.7393V38.9919C46.375 36.5804 42.4333 32.9919 42.4333 32.9919C42.4333 32.9919 40.2786 32.9342 39.257 32.2913C38.2355 31.6452 38.6526 31.2314 38.6526 31.2314C38.6526 31.2314 37.5752 31.3139 37.1121 31.4589H37.1088Z" fill="white"/>
<path d="M40.9667 39.3286C40.9667 39.3286 40.3016 47.4929 41.8043 48.6764C42.6239 49.321 46.375 48.4885 46.375 48.4885C46.375 48.4885 47.413 46.5435 46.375 45.5429L45.2582 45.0385L44.9051 38.9033L40.9667 39.3302V39.3286Z" fill="#B4CAED"/>
<path d="M53.7607 44.2933C54.0843 44.107 54.508 44.0114 54.935 44.0098L55.3785 44.0444C55.6527 44.0856 55.9122 44.168 56.1307 44.2933C56.7843 44.6708 56.7843 45.2889 56.1307 45.668C55.4786 46.0455 54.4144 46.0455 53.7607 45.668C53.1087 45.2889 53.1087 44.6708 53.7607 44.2933Z" fill="#FF8530"/>
<path d="M56.2047 45.3782C56.1423 45.3123 56.0651 45.253 55.9748 45.2002C55.7843 45.0947 55.5593 45.0222 55.3211 44.9843L54.9352 44.953C54.5673 44.9596 54.1994 45.0387 53.9169 45.2002C53.8266 45.253 53.751 45.314 53.687 45.3782C53.3634 45.0601 53.439 44.6348 53.9169 44.3563C54.1994 44.1947 54.5689 44.1123 54.9352 44.1123L55.3211 44.1387C55.5593 44.1766 55.7859 44.2491 55.9748 44.3563C56.4511 44.6315 56.5299 45.0618 56.2047 45.3782Z" fill="#F26716"/>
<path d="M56.2047 45.3774C56.1423 45.4417 56.0651 45.5011 55.9748 45.5505C55.4065 45.8752 54.4851 45.8752 53.9152 45.5505C53.8249 45.4994 53.7494 45.4417 53.6853 45.3774C53.7494 45.3115 53.8233 45.2521 53.9152 45.1994C54.1977 45.0379 54.5673 44.9587 54.9335 44.9521L55.3194 44.9835C55.5576 45.0214 55.7842 45.0939 55.9731 45.1994C56.0634 45.2521 56.1406 45.3131 56.203 45.3774H56.2047Z" fill="#572B26"/>
<path d="M56.1307 45.6678C55.4787 46.0452 54.4145 46.0452 53.7608 45.6678C53.4537 45.4881 53.2894 45.259 53.2747 45.0249V47.8139V47.8189C53.2747 48.0661 53.4356 48.315 53.7624 48.4997C54.4161 48.8821 55.4803 48.8821 56.1324 48.4997C56.4773 48.3035 56.6415 48.0365 56.6185 47.7744V45.5557L56.6234 44.9854C56.6185 45.2326 56.4559 45.4749 56.1307 45.6678Z" fill="#FF8530"/>
<path d="M53.273 47.8987H52.5011C52.1463 47.8987 51.854 47.607 51.854 47.2509V45.9108C51.854 45.5564 52.1463 45.2646 52.5011 45.2646H53.273V45.6965H52.5011C52.3796 45.6965 52.2859 45.7905 52.2859 45.9108V47.2509C52.2859 47.3713 52.3796 47.4636 52.5011 47.4636H53.273V47.8987Z" fill="#FF8530"/>
<path d="M49.8108 45.975C49.8108 45.975 50.425 45.2349 50.7371 45.1145C51.619 44.6909 52.3433 45.2893 52.3433 45.2893C52.3433 45.2893 51.9097 45.3948 51.8818 45.8102C51.9984 45.8645 52.138 45.8942 52.2891 45.9091C52.2891 45.9091 52.2809 45.7047 52.5043 45.6964H53.1054C53.1694 45.975 53.4535 48.0717 52.0871 48.1558C50.9851 48.2184 49.8699 47.7734 49.8699 47.7734L49.8124 45.975H49.8108Z" fill="#F0C6B4"/>
<path d="M49.0226 45.8809C49.0226 45.8809 49.5958 46.0803 49.8109 45.9732C50.4744 46.7462 49.9719 47.9149 49.9719 47.9149L48.8452 47.999L49.0209 45.8809H49.0226Z" fill="#517FA2"/>
<path d="M42.6633 35.9375C40.6334 35.9375 40.9027 38.7381 40.9027 38.7381C40.9027 38.7381 41.1146 47.8584 42.0425 48.3266C42.977 48.7881 49.3806 48.3266 49.3806 48.3266C49.3806 48.3266 50.095 46.7474 49.057 45.737C47.5214 45.737 44.8707 45.3414 44.8707 45.3414L44.9068 38.5205C44.9068 38.5205 45.076 35.9375 42.6617 35.9375H42.6633Z" fill="white"/>
<path opacity="0.3" d="M54.1057 76.8075L71.2175 86.7207L74.6976 84.713L57.5842 74.7998L54.1057 76.8075Z" fill="#0D0D0D"/>
<path d="M73.8765 70.9891V71.805L74.581 71.4029V70.5869L73.8765 70.9891Z" fill="#00537D"/>
<path d="M57.4676 60.6699L56.7664 61.0771L73.8764 70.9887L74.581 70.5865L57.4676 60.6699Z" fill="#1078AD"/>
<path d="M56.7664 61.0771V61.8898L73.8765 71.8047V70.9887L56.7664 61.0771Z" fill="#003552"/>
<path d="M62.4014 66.0762V74.8504C62.4014 75.2608 62.0713 75.6004 61.6574 75.6004H61.6361C61.2255 75.6004 60.8921 75.2592 60.8921 74.8504V66.0762H62.4014Z" fill="#D9391E"/>
<path d="M62.1895 66.3895C61.884 66.5609 61.4012 66.5609 61.1056 66.3895C60.8034 66.2131 60.8034 65.9329 61.1056 65.7648C61.4012 65.5966 61.884 65.5966 62.1895 65.7648C62.4818 65.9329 62.4818 66.2131 62.1895 66.3895Z" fill="#EB5C44"/>
<path d="M62.6231 60.9941V74.9211C62.6231 75.4618 62.1928 75.9003 61.6591 75.9003H61.6328C61.0974 75.9003 60.6572 75.4618 60.6572 74.9211V60.9941H59.9592V74.9211C59.9592 75.8475 60.7098 76.6058 61.6328 76.6058H61.6591C62.5804 76.6058 63.3326 75.8459 63.3326 74.9211V60.9941H62.6248H62.6231Z" fill="#517FA2"/>
<path opacity="0.2" d="M62.4325 60.9941V74.9211C62.4325 75.4618 61.9907 75.8343 61.9907 74.9211V60.9941H62.4325Z" fill="white"/>
<path opacity="0.3" d="M61.2993 60.9941V74.9211C61.2993 75.4618 60.8591 75.8343 60.8591 74.9211V60.9941H61.2993Z" fill="black"/>
<path d="M63.0583 59.9457C62.2814 59.4908 61.0135 59.4908 60.2416 59.9457C59.4582 60.4023 59.4582 61.1177 60.2416 61.5693C61.0135 62.0259 62.2814 62.0259 63.0583 61.5693C63.8351 61.1177 63.8351 60.4007 63.0583 59.9457ZM62.3373 60.7831C61.9562 60.9957 61.3305 60.9957 60.9528 60.7831C60.5602 60.5589 60.5602 60.193 60.9528 59.9737C61.3305 59.7495 61.9562 59.7495 62.3373 59.9737C62.7199 60.193 62.7199 60.5589 62.3373 60.7831Z" fill="#659EC9"/>
<path d="M60.8493 60.707C60.8756 60.6889 60.91 60.6609 60.9527 60.6411C61.3305 60.4202 61.9562 60.4202 62.3372 60.6411C62.375 60.6609 62.4144 60.6889 62.4391 60.707C62.7183 60.4845 62.6838 60.1729 62.3372 59.9718C61.9562 59.7477 61.3305 59.7477 60.9527 59.9718C60.6029 60.1713 60.5701 60.4828 60.8493 60.707Z" fill="#295E87"/>
<path d="M66.4857 68.4385V77.2127C66.4857 77.6297 66.149 77.9611 65.7384 77.9611H65.7204C65.3098 77.9611 64.978 77.6281 64.978 77.2127V68.4385H66.4841H66.4857Z" fill="#D9391E"/>
<path d="M66.2673 68.752C65.9717 68.9201 65.4905 68.9201 65.1883 68.752C64.8861 68.5756 64.8861 68.2954 65.1883 68.1289C65.4905 67.9492 65.9734 67.9492 66.2673 68.1289C66.5663 68.2954 66.5663 68.5756 66.2673 68.752Z" fill="#EB5C44"/>
<path d="M66.7107 63.3564V77.2818C66.7107 77.8192 66.2739 78.2576 65.7368 78.2576H65.7171C65.1735 78.2576 64.7432 77.8175 64.7432 77.2818V63.3564H64.0337V77.2818C64.0337 78.2082 64.7859 78.9631 65.7155 78.9631H65.7352C66.6549 78.9631 67.4087 78.2082 67.4087 77.2818V63.3564H66.7091H66.7107Z" fill="#517FA2"/>
<path opacity="0.2" d="M66.5169 63.3564V77.2818C66.5169 77.8192 66.0735 78.2016 66.0735 77.2818V63.3564H66.5169Z" fill="white"/>
<path opacity="0.3" d="M65.3787 63.3564V77.2818C65.3787 77.8192 64.9353 78.2016 64.9353 77.2818V63.3564H65.3787Z" fill="black"/>
<path d="M67.1345 62.2999C66.3593 61.8532 65.1046 61.8532 64.3212 62.2999C63.5411 62.7581 63.5411 63.4801 64.3212 63.9367C65.1029 64.3801 66.3577 64.3801 67.1345 63.9367C67.9163 63.4784 67.9163 62.7565 67.1345 62.2999ZM66.4201 63.1438C66.0374 63.3614 65.4101 63.3614 65.0307 63.1438C64.6414 62.9131 64.6414 62.5537 65.0307 62.3312C65.4101 62.1186 66.0374 62.1186 66.4201 62.3312C66.8028 62.5537 66.8028 62.9131 66.4201 63.1438Z" fill="#659EC9"/>
<path d="M64.9256 63.0715C64.9634 63.05 64.9913 63.0204 65.0307 63.0055C65.4101 62.7764 66.0375 62.7764 66.4202 63.0055C66.4547 63.0187 66.4924 63.05 66.5253 63.0715C66.8012 62.8473 66.7683 62.5341 66.4202 62.3314C66.0375 62.1187 65.4101 62.1187 65.0307 62.3314C64.6793 62.5358 64.6415 62.8473 64.9256 63.0715Z" fill="#295E87"/>
<path d="M70.7037 70.8926V79.6701C70.7037 80.0739 70.3654 80.4135 69.9564 80.4135H69.9433C69.5261 80.4135 69.2009 80.0756 69.2009 79.6701V70.8926H70.7053H70.7037Z" fill="#D9391E"/>
<path d="M70.4819 71.2045C70.1912 71.3808 69.705 71.3808 69.4028 71.2045C69.1105 71.0281 69.1105 70.7429 69.4028 70.5797C69.705 70.4083 70.1912 70.4083 70.4819 70.5797C70.7874 70.7429 70.7874 71.0281 70.4819 71.2045Z" fill="#EB5C44"/>
<path d="M70.9285 65.8047V79.735C70.9285 80.2773 70.4917 80.7092 69.9563 80.7092H69.9349C69.3946 80.7092 68.9577 80.2773 68.9577 79.735V65.8047H68.2581V79.735C68.2581 80.6597 69.0103 81.4196 69.9349 81.4196H69.9563C70.8743 81.4196 71.6331 80.6597 71.6331 79.735V65.8047H70.9285Z" fill="#517FA2"/>
<path opacity="0.2" d="M70.733 65.8047V79.735C70.733 80.2773 70.2961 80.6581 70.2961 79.735V65.8047H70.733Z" fill="white"/>
<path opacity="0.3" d="M69.5999 65.8047V79.735C69.5999 80.2773 69.1548 80.6581 69.1548 79.735V65.8047H69.5999Z" fill="black"/>
<path d="M71.3539 64.7548C70.5787 64.3031 69.319 64.3031 68.5389 64.7548C67.7621 65.2015 67.7621 65.9333 68.5389 66.3817C69.3174 66.8366 70.5787 66.8366 71.3539 66.3817C72.139 65.9333 72.139 65.2015 71.3539 64.7548ZM70.6346 65.5971C70.2568 65.8147 69.6327 65.8147 69.2517 65.5971C68.8674 65.3663 68.8674 65.007 69.2517 64.7811C69.6344 64.5668 70.2585 64.5668 70.6346 64.7811C71.0255 65.007 71.0255 65.3663 70.6346 65.5971Z" fill="#659EC9"/>
<path d="M69.1483 65.5259C69.1712 65.4995 69.2139 65.4764 69.2501 65.4567C69.6327 65.2308 70.2568 65.2308 70.6329 65.4567C70.6773 65.4764 70.7118 65.4995 70.743 65.5259C71.0238 65.3034 70.9844 64.9885 70.6329 64.7808C70.2552 64.5665 69.6311 64.5665 69.2501 64.7808C68.9052 64.9902 68.8723 65.3034 69.1483 65.5259Z" fill="#295E87"/>
<path d="M54.8185 76.4029V77.2172L54.1057 76.8067V75.999L54.8185 76.4029Z" fill="#003552"/>
<path d="M57.5842 73.9814L58.2855 74.3869L54.8185 76.4029L54.1057 75.999L57.5842 73.9814Z" fill="#1078AD"/>
<path d="M58.2856 74.3867V75.1977L54.8186 77.217V76.4027L58.2856 74.3867Z" fill="#00537D"/>
<path d="M56.1505 63.0496L55.4492 62.6457L56.1505 62.2402L56.8485 62.6457L56.1505 63.0496Z" fill="#1D374E"/>
<path d="M56.8484 75.2241L56.1504 75.6214V63.0494L56.8484 62.6455V75.2241Z" fill="#00537D"/>
<path d="M56.1505 75.6214L55.4492 75.2192V62.6455L56.1505 63.0494V75.6214Z" fill="#003552"/>
<path d="M55.1323 62.8376V63.6453L54.4277 63.2365V62.4238L55.1323 62.8376Z" fill="#1D374E"/>
<path d="M56.7665 61.0771L57.4677 61.4793L55.1323 62.8376L54.4277 62.4239L56.7665 61.0771Z" fill="#1078AD"/>
<path d="M57.4678 61.4795V62.2888L55.1323 63.6454V62.8377L57.4678 61.4795Z" fill="#00537D"/>
<path d="M58.4399 63.8008V72.575C58.4399 72.9887 58.1065 73.3168 57.696 73.3168H57.6762C57.2624 73.3168 56.9355 72.9887 56.9355 72.575V63.8008H58.4416H58.4399Z" fill="#D9391E"/>
<path d="M58.2232 64.1127C57.9243 64.2842 57.4414 64.2842 57.1392 64.1127C56.8403 63.9463 56.8403 63.6545 57.1392 63.488C57.4414 63.31 57.9243 63.31 58.2232 63.488C58.5221 63.6545 58.5221 63.9463 58.2232 64.1127Z" fill="#EB5C44"/>
<path d="M58.6665 58.7197V72.6467C58.6665 73.1857 58.2313 73.6242 57.6942 73.6242H57.6712C57.1309 73.6242 56.6973 73.1874 56.6973 72.6467V58.7197H55.9878V72.6467C55.9878 73.5797 56.7449 74.328 57.6696 74.328H57.6926C58.6139 74.328 59.3661 73.5797 59.3661 72.6467V58.7197H58.6648H58.6665Z" fill="#517FA2"/>
<path opacity="0.2" d="M58.4728 58.7197V72.6467C58.4728 73.1857 58.031 73.5649 58.031 72.6467V58.7197H58.4728Z" fill="white"/>
<path opacity="0.3" d="M57.3346 58.7197V72.6467C57.3346 73.1857 56.8928 73.5649 56.8928 72.6467V58.7197H57.3346Z" fill="black"/>
<path d="M59.0869 57.673C58.3118 57.2132 57.057 57.2132 56.2802 57.673C55.5 58.1214 55.5 58.8434 56.2802 59.3C57.057 59.745 58.3134 59.745 59.0869 59.3C59.8687 58.8417 59.8687 58.1197 59.0869 57.673ZM58.3758 58.5071C57.9882 58.7263 57.3707 58.7263 56.9831 58.5071C56.5938 58.2846 56.5938 57.9236 56.9831 57.6994C57.3707 57.4818 57.9882 57.4818 58.3758 57.6994C58.7618 57.9252 58.7618 58.2846 58.3758 58.5071Z" fill="#659EC9"/>
<path d="M56.8845 58.4309C56.9158 58.4144 56.947 58.3847 56.9847 58.365C57.3723 58.1424 57.9899 58.1424 58.3775 58.365C58.4169 58.3847 58.4448 58.4144 58.4826 58.4309C58.7634 58.21 58.7191 57.8935 58.3775 57.6974C57.9899 57.4798 57.3723 57.4798 56.9847 57.6974C56.6382 57.8935 56.6004 58.2117 56.8845 58.4309Z" fill="#295E87"/>
<path d="M71.8909 84.7701V85.5894L72.5905 85.1707V84.3613L71.8909 84.7701Z" fill="#1D374E"/>
<path d="M56.8484 75.2197L56.1504 75.6219L71.8908 84.7703L72.5904 84.3615L56.8484 75.2197Z" fill="#1078AD"/>
<path d="M56.1504 75.6221V76.438L71.8908 85.5897V84.7705L56.1504 75.6221Z" fill="#003552"/>
<path d="M71.2044 85.9267V86.7509L70.4966 86.3338V85.5195L71.2044 85.9267Z" fill="#003552"/>
<path d="M73.9767 83.5049L74.678 83.9186L71.2044 85.9263L70.4966 85.5192L73.9767 83.5049Z" fill="#1078AD"/>
<path d="M74.6779 83.9189V84.7266L71.2043 86.7508V85.9267L74.6779 83.9189Z" fill="#00537D"/>
<path d="M72.5905 72.5498L71.8909 72.1509L72.5905 71.7471L73.2885 72.1509L72.5905 72.5498Z" fill="#1D374E"/>
<path d="M73.2886 84.7185L72.5906 85.124V72.5503L73.2886 72.1514V84.7185Z" fill="#00537D"/>
<path d="M72.5905 85.124L71.8909 84.7135V72.1514L72.5905 72.5503V85.124Z" fill="#003552"/>
<path d="M71.5428 72.3467V73.1527L70.8464 72.7489V71.9346L71.5428 72.3467Z" fill="#1D374E"/>
<path d="M73.1786 70.5859L73.8766 70.9881L71.5428 72.3464L70.8464 71.9343L73.1786 70.5859Z" fill="#1078AD"/>
<path d="M73.8765 70.9883V71.8042L71.5427 73.1526V72.3465L73.8765 70.9883Z" fill="#00537D"/>
<path d="M70.8464 72.7489V73.5648L71.5428 73.1527V72.3467L70.8464 72.7489Z" fill="#00537D"/>
<path d="M54.4277 62.4238L53.728 62.8376L70.8463 72.7492L71.5427 72.347L54.4277 62.4238Z" fill="#1078AD"/>
<path d="M53.728 62.8379V63.6456L70.8463 73.5654V72.7495L53.728 62.8379Z" fill="#003552"/>
<path opacity="0.3" d="M89.8255 88.7439C87.3356 87.3197 83.3037 87.3197 80.8089 88.7439C78.2977 90.2044 78.2977 92.5401 80.8089 93.9939C83.3037 95.428 87.3356 95.428 89.8255 93.9939C92.3186 92.5401 92.3186 90.2044 89.8255 88.7439Z" fill="black"/>
<path d="M79.5674 91.0355C79.5674 91.8993 80.1274 92.7482 81.2442 93.3927C83.4975 94.7015 87.1354 94.7015 89.3887 93.3927C90.517 92.7482 91.0721 91.8993 91.0721 91.0355V83.9756H79.5674V91.0355Z" fill="#B4CAED"/>
<path d="M90.7831 86.1396C90.5137 86.6243 90.0522 87.0759 89.3887 87.4583C88.4279 88.0204 87.1978 88.3353 85.9529 88.4276V92.9029C87.1978 92.8287 88.4279 92.504 89.3887 91.9402C90.0539 91.5578 90.5137 91.1062 90.7831 90.6232V86.1413V86.1396Z" fill="#FFC654"/>
<path d="M90.773 82.917L89.7334 80.8038H87.1418C85.9511 80.5862 84.6651 80.5862 83.4842 80.8038H80.8942L79.8628 82.8857C79.1862 84.061 79.6362 85.3978 81.2424 86.3308C83.4957 87.6462 87.1336 87.6462 89.3869 86.3308C90.98 85.411 91.4398 84.0791 90.7632 82.917H90.7714H90.773Z" fill="#DAE5F8"/>
<path d="M88.5542 79.6533C86.7656 78.6182 83.8669 78.6182 82.0701 79.6533C80.2849 80.6918 80.2849 82.3797 82.0701 83.4198C83.8669 84.4435 86.7673 84.4435 88.5542 83.4198C90.3411 82.3814 90.3411 80.6934 88.5542 79.6533Z" fill="#F7F7F7"/>
<path d="M82.5302 81.3197C82.5302 81.7252 82.8143 82.1357 83.3645 82.4489C84.4403 83.0802 86.191 83.0802 87.2733 82.4489C87.8153 82.134 88.083 81.7252 88.083 81.3197V79.4258H82.5286V81.3197H82.5302Z" fill="#B4CAED"/>
<path d="M87.2751 78.2982C86.1928 77.6636 84.4404 77.6636 83.3663 78.2982C82.2708 78.923 82.2708 79.9466 83.3663 80.5664C84.442 81.196 86.1928 81.196 87.2751 80.5664C88.3508 79.9466 88.3508 78.923 87.2751 78.2982Z" fill="#F7F7F7"/>
<path d="M85.3172 71.5996C84.4402 71.5996 83.7241 72.3249 83.7241 73.2084V79.309C83.7241 79.5398 83.8752 79.7804 84.1873 79.9519C84.813 80.3095 85.8132 80.3095 86.434 79.9519C86.7494 79.7821 86.8889 79.5398 86.8889 79.309V73.2084C86.8889 72.3249 86.1893 71.5996 85.3156 71.5996H85.3172Z" fill="#FFC654"/>
<path opacity="0.3" d="M106.118 85.926C104.544 85.0012 101.967 85.0012 100.374 85.926C98.8108 86.8375 98.8108 88.3243 100.374 89.2491C101.967 90.1573 104.544 90.1573 106.118 89.2491C107.704 88.3243 107.704 86.8375 106.118 85.926Z" fill="black"/>
<path d="M99.2822 85.9492V87.5267C99.2822 88.1185 99.6648 88.7152 100.445 89.1635C101.99 90.0652 104.502 90.0652 106.07 89.1635C106.842 88.7135 107.223 88.1185 107.223 87.5267V85.9492H99.2805H99.2822Z" fill="#B4CAED"/>
<path d="M106.07 84.3286C104.695 83.5374 102.598 83.4385 101.061 84.0369V84.3517L100.222 84.777L99.9752 84.6435C98.9011 85.527 99.0751 86.7781 100.447 87.594C101.992 88.4858 104.503 88.4611 106.072 87.594C106.159 87.5281 106.259 87.4704 106.348 87.4061L106.573 87.5281V87.2133C107.599 86.3314 107.427 85.11 106.072 84.3303L106.07 84.3286Z" fill="#F7F7F7"/>
<path d="M101.061 84.3516L100.222 84.7768L105.824 88.0126C105.824 88.0126 106.318 87.7736 106.573 87.528L106.348 87.406L101.061 84.3532V84.3516Z" fill="#B4CAED"/>
<path opacity="0.3" d="M115.883 78.5873C114.405 77.717 111.984 77.717 110.486 78.5873C109.018 79.4445 109.018 80.8406 110.486 81.7093C111.984 82.5632 114.405 82.5632 115.883 81.7093C117.373 80.8406 117.373 79.4445 115.883 78.5873Z" fill="black"/>
<path d="M109.46 78.6084V80.0886C109.46 80.6458 109.82 81.2046 110.552 81.6282C112.004 82.4754 114.364 82.4754 115.837 81.6282C116.561 81.2062 116.919 80.6458 116.919 80.0886V78.6084H109.458H109.46Z" fill="#B4CAED"/>
<path d="M115.839 77.0852C114.546 76.3418 112.576 76.2495 111.132 76.8116V77.1066L110.344 77.5055L110.112 77.3803C109.104 78.211 109.266 79.3863 110.554 80.1528C112.006 80.9902 114.366 80.9671 115.839 80.1528C115.921 80.0902 116.015 80.0374 116.098 79.9764L116.31 80.0902V79.7951C117.274 78.966 117.113 77.8204 115.839 77.0869V77.0852Z" fill="#F7F7F7"/>
<path d="M111.132 77.1064L110.344 77.5054L115.606 80.5449C115.606 80.5449 116.072 80.3207 116.31 80.0883L116.098 79.9746L111.132 77.1064Z" fill="#B4CAED"/>
<path opacity="0.3" d="M114.576 83.9194C113.098 83.049 110.679 83.049 109.181 83.9194C107.713 84.7749 107.713 86.171 109.181 87.0413C110.679 87.8952 113.099 87.8952 114.576 87.0413C116.067 86.171 116.067 84.7765 114.576 83.9194Z" fill="black"/>
<path d="M108.153 83.9395V85.4213C108.153 85.9785 108.514 86.5373 109.246 86.9609C110.698 87.8082 113.058 87.8082 114.532 86.9609C115.257 86.5389 115.614 85.9785 115.614 85.4213V83.9395H108.153Z" fill="#B4CAED"/>
<path d="M114.531 82.4175C113.241 81.6741 111.27 81.5818 109.824 82.1423V82.4373L109.036 82.8362L108.803 82.711C107.795 83.5417 107.959 84.717 109.245 85.4835C110.697 86.3209 113.057 86.2978 114.53 85.4835C114.612 85.4209 114.707 85.3681 114.789 85.3071L115.001 85.4209V85.1258C115.965 84.2967 115.804 83.1511 114.53 82.4159L114.531 82.4175Z" fill="#F7F7F7"/>
<path d="M109.825 82.4372L109.036 82.8361L114.298 85.8757C114.298 85.8757 114.765 85.6515 115.003 85.4191L114.791 85.3053L109.825 82.4355V82.4372Z" fill="#B4CAED"/>
<path opacity="0.3" d="M111.758 100.155L109.685 98.9439C108.746 98.4131 107.458 98.4395 106.799 99.0032C106.119 99.5752 106.318 100.46 107.248 100.996L109.327 102.203L111.385 103.401V103.416C112.321 103.943 113.615 103.924 114.289 103.355C114.959 102.786 114.766 101.901 113.843 101.351L111.758 100.155Z" fill="black"/>
<path d="M109.754 96.3778V96.358C108.744 95.7943 107.473 96.1322 106.901 97.1344C106.318 98.1333 106.658 99.4157 107.658 99.9877L109.895 101.298C110.16 101.453 110.519 101.427 110.948 101.189C111.758 100.723 112.425 99.5789 112.425 98.6295C112.425 98.1646 112.252 97.8317 111.973 97.6718L109.752 96.3795L109.754 96.3778Z" fill="#F7F7F7"/>
<path d="M111.974 97.6704C111.735 97.5138 111.347 97.5467 110.95 97.7676C110.133 98.2506 109.458 99.3863 109.458 100.334C109.458 100.809 109.629 101.139 109.897 101.297L112.137 102.601C113.129 103.186 114.425 102.83 115.005 101.831C115.563 100.829 115.218 99.5594 114.238 98.9726L111.974 97.6704Z" fill="#FF8530"/>
<path d="M114.022 99.6187C113.903 99.7127 113.981 99.9863 114.182 100.255C114.405 100.491 114.643 100.628 114.75 100.539C114.868 100.448 114.786 100.169 114.591 99.9187C114.389 99.6715 114.129 99.5445 114.024 99.6187H114.022Z" fill="#F5F5F5"/>
<path opacity="0.3" d="M68.5059 103.578L70.4537 102.439C71.334 101.941 72.5428 101.965 73.1636 102.496C73.8025 103.035 73.6186 103.868 72.7432 104.367L70.7904 105.503L68.8574 106.627V106.64C67.9771 107.138 66.7584 107.118 66.1294 106.584C65.4987 106.048 65.6761 105.216 66.5515 104.702L68.5059 103.578Z" fill="black"/>
<path d="M70.3866 100.026V100.009C71.3343 99.4768 72.5299 99.795 73.0686 100.739C73.6204 101.677 73.2936 102.881 72.3574 103.416L70.2519 104.649C70.0023 104.794 69.6689 104.771 69.2665 104.546C68.5061 104.11 67.8804 103.034 67.8804 102.142C67.8804 101.704 68.043 101.392 68.3041 101.242L70.3883 100.026H70.3866Z" fill="#FF8530"/>
<path d="M68.304 101.243C68.5307 101.094 68.8936 101.126 69.2681 101.332C70.0351 101.785 70.669 102.853 70.669 103.745C70.669 104.193 70.5097 104.501 70.2535 104.65L68.1513 105.876C67.2184 106.425 66.0014 106.092 65.4578 105.151C64.9339 104.21 65.2574 103.016 66.1739 102.466L68.304 101.243Z" fill="#F7F7F7"/>
<path opacity="0.3" d="M78.2387 103.576L80.1881 102.439C81.0701 101.94 82.2805 101.964 82.898 102.495C83.5369 103.034 83.3497 103.865 82.4776 104.368L80.5248 105.502L78.5918 106.627V106.641C77.7115 107.137 76.4945 107.119 75.8622 106.583C75.2315 106.049 75.4122 105.216 76.2793 104.701L78.237 103.576H78.2387Z" fill="black"/>
<path d="M80.1225 100.027V100.009C81.0701 99.4784 82.2658 99.7966 82.8012 100.738C83.3497 101.676 83.0295 102.881 82.09 103.416L79.9878 104.648C79.7382 104.793 79.4015 104.768 78.9991 104.545C78.2387 104.107 77.6113 103.032 77.6113 102.141C77.6113 101.704 77.7739 101.391 78.0367 101.241L80.1225 100.026V100.027Z" fill="#F7F7F7"/>
<path d="M78.0366 101.242C78.26 101.096 78.6262 101.127 79.0007 101.333C79.7677 101.786 80.4 102.854 80.4 103.744C80.4 104.191 80.2423 104.499 79.9894 104.649L77.8839 105.874C76.951 106.425 75.7357 106.09 75.1904 105.151C74.6665 104.209 74.9917 103.016 75.9114 102.465L78.0383 101.242H78.0366Z" fill="#FF8530"/>
<path d="M76.1118 103.073C76.2235 103.161 76.1496 103.418 75.9624 103.672C75.7538 103.894 75.5288 104.021 75.4286 103.937C75.3153 103.853 75.3941 103.589 75.578 103.355C75.7686 103.123 76.0116 103.004 76.1118 103.073Z" fill="#F5F5F5"/>
<path opacity="0.3" d="M7.37427 56.088L27.9333 67.9381L32.8555 65.0831L12.2964 53.2363L7.37427 56.088Z" fill="black"/>
<path d="M3.41956 35.6042C3.09601 35.4196 2.81024 35.385 2.5721 35.5037V35.4905L2.55732 35.5103C2.54582 35.5202 2.53104 35.5202 2.51462 35.5284L2.12866 35.7592L2.24034 35.9141C2.20914 36.0312 2.16644 36.1663 2.16644 36.3246V47.596C2.16644 48.3988 2.73798 49.3565 3.4212 49.7636L18.4603 58.4653C19.1534 58.8675 19.6986 58.5395 19.6986 57.7499V46.4834C19.6986 45.6823 19.1534 44.7114 18.4603 44.3158L3.4212 35.6059L3.41956 35.6042Z" fill="#808080"/>
<path d="M27.981 67.1913L31.5744 65.1144V51.3242L27.981 53.411V67.1913Z" fill="#B4CAED"/>
<path d="M3.01713 35.8297C2.33883 35.4341 1.77222 35.7588 1.77222 36.5533V47.8232C1.77222 48.6243 2.33883 49.5869 3.01713 49.9891L18.0496 58.699C18.7444 59.093 19.2945 58.7683 19.2945 57.982V46.7072C19.2945 45.9078 18.7444 44.9435 18.0496 44.5479L3.01713 35.8297Z" fill="#ADADAD"/>
<path d="M4.80545 38.0837C4.26019 37.7607 3.7527 37.7277 3.39795 37.9453L2.42896 38.5008L5.25053 43.3766L6.19817 42.8195C6.55784 42.6085 6.78613 42.1618 6.78613 41.5288C6.78613 40.2563 5.89762 38.7217 4.80709 38.0837H4.80545Z" fill="#B4CAED"/>
<path d="M3.8267 38.6361C3.77414 38.6064 3.70024 38.5635 3.63126 38.5306V38.3525L3.43582 38.4531C2.53088 38.1383 1.84766 38.6789 1.84766 39.7784C1.84766 40.8778 2.53088 42.2212 3.43582 42.9614L3.63126 42.8493L4.19294 43.2103V43.4064C5.12416 43.7443 5.81231 43.2103 5.81231 42.0894C5.81231 40.8119 4.94514 39.2723 3.8267 38.6344V38.6361Z" fill="#F7F7F7"/>
<path d="M3.63135 38.5375V42.8512L4.19303 43.2122V38.6364C4.19303 38.6364 3.87113 38.4188 3.63135 38.3545V38.5375Z" fill="#B4CAED"/>
<path d="M9.22697 40.6363C8.68171 40.3066 8.18407 40.2786 7.82275 40.4928L6.85376 41.0615L9.66548 45.9275L10.623 45.3687C10.9777 45.1626 11.2044 44.7192 11.2044 44.0797C11.2044 42.817 10.3159 41.2643 9.22533 40.6363H9.22697Z" fill="#B4CAED"/>
<path d="M8.25297 41.1951C8.18399 41.1621 8.12651 41.1176 8.05753 41.0945V40.9033L7.86209 41.0022C6.95715 40.694 6.27393 41.2247 6.27393 42.339C6.27393 43.4533 6.95715 44.7803 7.86209 45.5138L8.05753 45.4033L8.61264 45.7676V45.9588C9.54386 46.3017 10.2369 45.7676 10.2369 44.6435C10.2369 43.3759 9.34185 41.8281 8.25133 41.1951H8.25297Z" fill="#F7F7F7"/>
<path d="M8.05762 41.0948V45.4036L8.61273 45.7679V41.1855C8.61273 41.1855 8.28919 40.9679 8.05762 40.9053V41.0965V41.0948Z" fill="#B4CAED"/>
<path d="M4.80545 45.2566C4.26019 44.9319 3.7527 44.9055 3.39795 45.1149L2.42896 45.672L5.25053 50.5429L6.19817 49.9858C6.55784 49.7863 6.78613 49.3396 6.78613 48.6967C6.78613 47.4242 5.89762 45.8896 4.80709 45.255L4.80545 45.2566Z" fill="#B4CAED"/>
<path d="M3.8267 45.8221C3.77414 45.7809 3.70024 45.7347 3.63126 45.7034V45.5254L3.43582 45.6276C2.53088 45.3226 1.84766 45.8485 1.84766 46.9545C1.84766 48.0606 2.53088 49.3974 3.43582 50.1342L3.63126 50.0238L4.19294 50.3881V50.5793C5.12416 50.9188 5.81231 50.3881 5.81231 49.2589C5.81231 47.9897 4.94514 46.4518 3.8267 45.8237V45.8221Z" fill="#F7F7F7"/>
<path d="M3.63135 45.7037V50.0241L4.19303 50.3884V45.8059C4.19303 45.8059 3.87113 45.5982 3.63135 45.5273V45.7054V45.7037Z" fill="#B4CAED"/>
<path d="M9.22697 47.8157C8.68171 47.486 8.18407 47.4563 7.82275 47.6723L6.85376 48.2212L9.66548 53.1069L10.623 52.5481C10.9777 52.3421 11.2044 51.8937 11.2044 51.2508C11.2044 49.9866 10.3159 48.4437 9.22533 47.814L9.22697 47.8157Z" fill="#B4CAED"/>
<path d="M8.25297 48.3729C8.18399 48.3268 8.12651 48.2922 8.05753 48.2625V48.0713L7.86209 48.1784C6.95715 47.8718 6.27393 48.4059 6.27393 49.5268C6.27393 50.6477 6.95715 51.9466 7.86209 52.69L8.05753 52.5779L8.61264 52.9471V53.1416C9.54386 53.473 10.2369 52.9471 10.2369 51.8131C10.2369 50.5471 9.34185 49.0043 8.25133 48.3729H8.25297Z" fill="#F7F7F7"/>
<path d="M8.05762 48.2628V52.5799L8.61273 52.9491V48.365C8.61273 48.365 8.28919 48.1458 8.05762 48.0732V48.2644V48.2628Z" fill="#B4CAED"/>
<path d="M9.17432 42.5014V56.2784L27.981 67.1922V53.4119L31.5744 51.3251L12.7514 40.4229L9.17432 42.5014Z" fill="white"/>
<path d="M19.5852 55.0651L25.5453 65.7778L27.9809 67.1921V53.4118L25.593 52.0156L19.5852 55.0651Z" fill="#9DE368"/>
<path d="M9.17432 56.2776L27.981 67.1914V63.2024L9.17432 52.3018V56.2776Z" fill="#89C75B"/>
<path d="M9.17432 51.7042L27.981 62.6032V61.8285L9.17432 50.918V51.7042Z" fill="#89C75B"/>
<path opacity="0.3" d="M5.40993 56.3156C4.16666 55.5986 2.16627 55.5986 0.921363 56.3272C-0.307121 57.0393 -0.307121 58.1882 0.921363 58.9118C2.16627 59.6288 4.16666 59.6288 5.40993 58.9118C6.62692 58.1882 6.63349 57.0393 5.40993 56.3156Z" fill="black"/>
<path d="M0.359619 57.3621C0.359619 57.7676 0.640462 58.1879 1.1808 58.5044C2.28118 59.1423 4.05 59.1423 5.15038 58.5044C5.69564 58.1879 5.96006 57.7692 5.96006 57.3621V56.2412H0.359619V57.3621Z" fill="#B4CAED"/>
<path d="M5.1505 55.0927C4.18643 54.5306 2.70995 54.4679 1.6145 54.8883V55.1091L1.02654 55.419L0.8623 55.3168C0.100245 55.9465 0.211926 56.8267 1.17928 57.3938C2.27966 58.0251 4.05833 58.0251 5.14886 57.3938C5.22276 57.3509 5.28681 57.3163 5.3443 57.2668L5.49868 57.3624L5.50853 57.135C6.22789 56.5086 6.10142 55.6547 5.14886 55.0927H5.1505Z" fill="#F7F7F7"/>
<path d="M1.61433 55.1074L1.02637 55.4173L4.98117 57.7003C4.98117 57.7003 5.31949 57.5355 5.50015 57.3624L5.34577 57.2668L1.61433 55.1091V55.1074Z" fill="#B4CAED"/>
<path opacity="0.3" d="M7.52703 59.8767C6.29854 59.1531 4.28665 59.1531 3.04339 59.8767C1.82147 60.5888 1.82147 61.7492 3.04339 62.4712C4.2883 63.1817 6.29854 63.1817 7.52703 62.4712C8.76537 61.7476 8.76537 60.5872 7.52703 59.8767Z" fill="black"/>
<path d="M2.48828 59.7939V60.9082C2.48828 61.3269 2.75763 61.7473 3.30782 62.0637C4.39834 62.7017 6.17209 62.7017 7.2774 62.0637C7.82266 61.7473 8.09201 61.3286 8.09201 60.9082V59.7939H2.48828Z" fill="#B4CAED"/>
<path d="M7.27894 58.652C6.30995 58.0949 4.8269 58.024 3.74294 58.4476V58.6685L3.15005 58.9685L2.97596 58.8746C2.21883 59.4993 2.34037 60.3812 3.30936 60.9564C4.39988 61.5861 6.17363 61.568 7.27894 60.9564C7.34299 60.9103 7.41033 60.8691 7.47438 60.8246L7.63205 60.9103V60.6894C8.35797 60.0647 8.23643 59.2042 7.2773 58.652H7.27894Z" fill="#F7F7F7"/>
<path d="M3.74304 58.667L3.15015 58.967L7.10495 61.2516C7.10495 61.2516 7.45477 61.0851 7.63379 60.9104L7.47612 60.8247L3.74468 58.6686L3.74304 58.667Z" fill="#B4CAED"/>
<path opacity="0.3" d="M28.431 70.7362C27.1861 70.0192 25.1906 70.0291 23.9588 70.7362C22.7139 71.45 22.7139 72.6121 23.9588 73.3307C25.1922 74.0445 27.1877 74.0445 28.431 73.3307C29.6644 72.6121 29.6644 71.45 28.431 70.7362Z" fill="black"/>
<path d="M23.3857 71.7712C23.3857 72.1899 23.66 72.6119 24.2004 72.9234C25.3007 73.5613 27.0745 73.5613 28.1699 72.9234C28.7201 72.6102 28.9911 72.1899 28.9911 71.7712V70.6553H23.3857V71.7712Z" fill="#B4CAED"/>
<path d="M28.1715 69.5162C27.2189 68.9524 25.7375 68.8832 24.6519 69.3085V69.5294L24.0475 69.831L23.8833 69.7321C23.1212 70.3585 23.228 71.242 24.2019 71.8041C25.3023 72.4437 27.076 72.4321 28.1715 71.8041C28.2503 71.7662 28.3144 71.7266 28.362 71.6871L28.5262 71.7695L28.5312 71.5486C29.2456 70.9189 29.1241 70.0568 28.1715 69.5145V69.5162Z" fill="#F7F7F7"/>
<path d="M24.652 69.5293L24.0476 69.8309L27.9958 72.1139C27.9958 72.1139 28.3506 71.9458 28.5263 71.7711L28.3621 71.6886L24.652 69.5293Z" fill="#B4CAED"/>
<path opacity="0.3" d="M26.6869 73.9215L24.9065 72.8814C24.1034 72.4265 22.9998 72.4495 22.4348 72.9325C21.8534 73.4254 22.0226 74.1836 22.8207 74.6402L24.6011 75.677L26.3666 76.7039V76.7155C27.1697 77.1688 28.2783 77.1523 28.8564 76.6644C29.4329 76.1765 29.2686 75.4149 28.4754 74.9468L26.6901 73.9232L26.6869 73.9215Z" fill="black"/>
<path d="M24.9705 70.682V70.6672C24.1034 70.1809 23.0161 70.4694 22.5251 71.3315C22.0225 72.1886 22.3181 73.2864 23.1754 73.7743L25.0937 74.8985C25.322 75.0304 25.6275 75.0106 25.9921 74.8046C26.6901 74.4073 27.26 73.4249 27.26 72.6122C27.26 72.2133 27.1122 71.9282 26.8724 71.7897L24.9705 70.682Z" fill="#F7F7F7"/>
<path d="M26.8708 71.7899C26.6655 71.6564 26.3321 71.6844 25.9888 71.8723C25.2908 72.2861 24.7144 73.2619 24.7144 74.0729C24.7144 74.4817 24.8572 74.7619 25.0905 74.8971L27.0087 76.0147C27.8595 76.5174 28.9697 76.2108 29.4657 75.3553C29.9469 74.4949 29.6513 73.4086 28.8104 72.9042L26.8691 71.7883L26.8708 71.7899Z" fill="#EB5C44"/>
<path d="M28.6264 73.4597C28.5262 73.5388 28.5952 73.7729 28.7627 74.002C28.9532 74.2064 29.1585 74.3234 29.2488 74.246C29.349 74.1701 29.2817 73.9311 29.1125 73.7152C28.9384 73.5042 28.7167 73.3954 28.6264 73.458V73.4597Z" fill="#F5F5F5"/>
<path opacity="0.3" d="M21.9059 77.6398C18.6655 75.7607 13.4132 75.7607 10.1811 77.6398C6.93248 79.5091 6.93248 82.5635 10.1811 84.4344C13.4149 86.3151 18.6671 86.3151 21.9174 84.4344C25.1561 82.5635 25.1561 79.5091 21.9075 77.6398H21.9059Z" fill="black"/>
<path d="M8.55835 80.5986C8.55835 81.7211 9.28591 82.8206 10.7558 83.6728C13.6727 85.3623 18.401 85.3623 21.3293 83.6728C22.7976 82.8206 23.5317 81.7228 23.5317 80.5986V68.8145H8.55835V80.5986Z" fill="#FFC654"/>
<path d="M21.3293 74.2793C20.0877 75.0095 18.4962 75.4315 16.8687 75.5304V82.4897C18.4962 82.3876 20.086 81.9672 21.3293 81.2551C22.7976 80.3963 23.5317 79.2985 23.5317 78.176V71.2051C23.5317 72.3276 22.7976 73.4436 21.3293 74.2809V74.2793Z" fill="#F7F7F7"/>
<path d="M7.63379 68.1342C7.63379 69.3837 8.46318 70.6265 10.1072 71.5958C13.3985 73.4947 18.746 73.4947 22.0373 71.5958C23.6813 70.6265 24.4942 69.3837 24.4942 68.1342V64.9199H7.63379V68.1342Z" fill="#B4CAED"/>
<path d="M22.021 61.4694C18.7445 59.5623 13.397 59.5623 10.1057 61.4694C6.81275 63.3766 6.81275 66.4722 10.1057 68.3843C13.397 70.2832 18.7445 70.2832 22.0358 68.3843C25.3172 66.4722 25.3172 63.3766 22.0194 61.4694H22.021Z" fill="#F7F7F7"/>
<path opacity="0.3" d="M10.1318 86.3765C9.26132 85.8771 7.86039 85.8771 6.9883 86.3765C6.11621 86.8826 6.11621 87.6985 6.9883 88.1947C7.86039 88.704 9.25968 88.704 10.1318 88.1947C11.0039 87.6985 11.0039 86.8826 10.1318 86.3765Z" fill="black"/>
<path d="M7.29531 82.4125C6.95698 82.6219 6.76318 82.8856 6.76318 83.146V85.3713C6.76318 86.3702 7.57122 87.173 8.55992 87.173C9.54862 87.173 10.3402 86.3702 10.3402 85.3713L10.3501 83.146C10.3501 82.8856 10.1711 82.6235 9.82783 82.4125C9.12982 82.007 7.99495 82.007 7.29531 82.4125Z" fill="#F7F7F7"/>
<path d="M8.55846 79.127C7.56976 79.127 6.76172 79.9297 6.76172 80.9237V83.144C6.76172 83.411 6.95716 83.6731 7.29384 83.8759C7.99185 84.2863 9.12672 84.2863 9.82636 83.8759C10.1696 83.6731 10.3486 83.411 10.3486 83.144L10.3388 80.9237H10.3486C10.3486 79.9297 9.55044 79.127 8.55846 79.127Z" fill="#EB5C44"/>
<path d="M7.31183 80.2463C7.22642 80.5167 7.22642 80.7573 7.34303 80.8051C7.45471 80.8447 7.63373 80.665 7.72899 80.3996C7.82424 80.1392 7.81275 79.9035 7.70271 79.8557C7.58117 79.8145 7.42186 79.9875 7.31183 80.2447V80.2463Z" fill="#F5F5F5"/>
<path opacity="0.3" d="M29.3604 92.2017C28.4932 91.7023 27.0726 91.7023 26.2268 92.2017C25.3448 92.7078 25.3448 93.5237 26.2218 94.0232C27.0726 94.521 28.4932 94.521 29.3604 94.0232C30.2161 93.5237 30.2161 92.7078 29.3604 92.2017Z" fill="black"/>
<path d="M26.5225 88.2323C26.1677 88.4285 25.9937 88.6955 25.9937 88.9691V91.1895C25.9937 92.1785 26.7918 92.9878 27.7904 92.9878C28.7889 92.9878 29.5658 92.1785 29.5658 91.1911V88.9691C29.5658 88.6955 29.3917 88.4285 29.0534 88.2323C28.3554 87.8301 27.2254 87.8301 26.5225 88.2323Z" fill="#F7F7F7"/>
<path d="M27.7904 84.9502C26.7918 84.9502 25.9937 85.748 25.9937 86.7403V88.9705C25.9937 89.2343 26.1677 89.5013 26.5225 89.6958C27.2254 90.1079 28.3554 90.1079 29.0468 89.6958C29.39 89.4997 29.5641 89.2343 29.5641 88.9705V86.7403C29.5641 85.748 28.761 84.9502 27.7887 84.9502H27.7904Z" fill="#EB5C44"/>
<path d="M26.5438 86.0762C26.4436 86.33 26.4485 86.5806 26.5701 86.6234C26.6818 86.663 26.8559 86.4883 26.956 86.2278C27.0562 85.969 27.0349 85.7201 26.9298 85.674C26.8033 85.6245 26.6391 85.8108 26.5438 86.0762Z" fill="#F5F5F5"/>
<path opacity="0.3" d="M17.6619 87.3324L15.88 86.2989C15.0933 85.8489 13.9732 85.867 13.4016 86.3549C12.8252 86.8362 13.0009 87.606 13.7974 88.0659L15.5794 89.0994L17.3548 90.1247C18.1415 90.578 19.2566 90.5665 19.843 90.0785C20.4079 89.5923 20.2289 88.8241 19.4472 88.3659L17.6619 87.334V87.3324Z" fill="black"/>
<path d="M15.9556 84.098V84.0947C15.0933 83.5969 13.9897 83.8837 13.4937 84.7425C13.0125 85.6013 13.3031 86.7024 14.1375 87.1969L16.0672 88.3195C16.2988 88.4431 16.6174 88.4316 16.9705 88.2288C17.6636 87.8184 18.2434 86.8442 18.2434 86.0283C18.2434 85.6228 18.0956 85.3392 17.8623 85.2057L15.9556 84.098Z" fill="#F7F7F7"/>
<path d="M19.7855 86.3234L17.8623 85.2058C17.6356 85.0723 17.3285 85.0987 16.9688 85.2965C16.2708 85.6938 15.7009 86.6861 15.7009 87.4971C15.7009 87.8927 15.8372 88.1811 16.0655 88.3196L17.9838 89.424V89.429C18.851 89.9301 19.9333 89.6284 20.4293 88.7712C20.9269 87.9207 20.6461 86.8245 19.7838 86.3218L19.7855 86.3234Z" fill="#EB5C44"/>
<path d="M19.5966 86.8826C19.5014 86.9601 19.5753 87.1991 19.7493 87.4101C19.9251 87.6293 20.1567 87.7381 20.2306 87.6672C20.3307 87.5881 20.2618 87.3524 20.0877 87.1348C19.9185 86.9172 19.6968 86.8035 19.5966 86.8826Z" fill="#F5F5F5"/>
<path d="M50.4663 105.653L68.9001 94.97C69.227 94.7821 69.3945 94.5349 69.4044 94.2843V94.2711C69.4044 94.2711 69.4044 94.2612 69.4044 94.2547V93.6843L68.6719 93.6662L58.5172 87.7815C57.8421 87.3892 56.75 87.3892 56.0733 87.7815L37.6411 98.4629C37.5902 98.4942 37.5442 98.5239 37.5015 98.5552L37.1353 98.4283V98.9129C37.132 98.9228 37.132 98.9327 37.1336 98.9409V98.9574C37.1468 99.2047 37.3143 99.447 37.6379 99.6349L48.0225 105.653C48.6975 106.044 49.7929 106.044 50.4663 105.653Z" fill="#B4CAED"/>
<path d="M37.6427 97.7246L56.0766 87.0433C56.7516 86.6509 57.8454 86.6509 58.5204 87.0433L68.905 93.0598C69.58 93.4504 69.58 94.0867 68.905 94.4774L50.4712 105.16C49.7962 105.551 48.7024 105.551 48.0274 105.16L37.6427 99.1422C36.9677 98.7516 36.9677 98.1169 37.6427 97.7263V97.7246Z" fill="white"/>
<path d="M61.3141 92.8408L55.5707 96.1671C54.7824 96.6254 54.7824 97.3655 55.5707 97.8238C56.3607 98.2803 57.6401 98.2803 58.4284 97.8238L64.1701 94.4957C64.9585 94.0391 64.9585 93.2973 64.1701 92.8408C63.3802 92.3825 62.1008 92.3825 61.3141 92.8408Z" fill="#8DD5FF"/>
<path d="M53.1367 93.74L49.9095 91.8691L49.5251 92.0917L52.7507 93.9625L53.1367 93.74Z" fill="#383838"/>
<path d="M54.1944 93.127L50.9655 91.2578L50.3447 91.6172L53.572 93.488L54.1944 93.127Z" fill="#383838"/>
<path d="M52.3861 94.1756L49.1589 92.3047L48.9651 92.4151L52.194 94.286L52.3861 94.1756Z" fill="#383838"/>
<path d="M51.4729 94.7029L48.2457 92.832L48.0798 92.9293L51.3087 94.8002L51.4729 94.7029Z" fill="#383838"/>
<path d="M51.7653 94.535L48.538 92.6641L48.3984 92.7448L51.6257 94.6157L51.7653 94.535Z" fill="#383838"/>
<path d="M54.8465 92.7481L51.6192 90.8789L51.4287 90.9893L54.6543 92.8602L54.8465 92.7481Z" fill="#383838"/>
<path d="M57.2294 91.368L54.0022 89.4971L53.8101 89.6075L57.0373 91.4784L57.2294 91.368Z" fill="#383838"/>
<path d="M56.9256 91.5467L53.6968 89.6758L53.3174 89.895L56.5446 91.7643L56.9256 91.5467Z" fill="#383838"/>
<path d="M55.9911 92.0867L52.7622 90.2158L52.6062 90.3065L55.8334 92.1774L55.9911 92.0867Z" fill="#383838"/>
<path d="M55.4392 92.4054L52.2119 90.5361L51.7488 90.8048L54.976 92.6741L55.4392 92.4054Z" fill="#383838"/>
<path d="M51.146 94.8927L47.9188 93.0234L47.7529 93.119L50.9802 94.9899L51.146 94.8927Z" fill="#383838"/>
<path d="M58.2199 90.7947L54.9926 88.9238L54.3718 89.2832L57.6007 91.1524L58.2199 90.7947Z" fill="#383838"/>
<path d="M47.009 97.2908L43.7818 95.4199L43.3794 95.6523L46.6066 97.5232L47.009 97.2908Z" fill="#383838"/>
<path d="M46.0663 97.836L42.8375 95.9668L42.6946 96.0492L45.9218 97.9201L46.0663 97.836Z" fill="#383838"/>
<path d="M45.7559 98.0157L42.5286 96.1465L42.1394 96.3723L45.3666 98.2416L45.7559 98.0157Z" fill="#383838"/>
<path d="M45.1942 98.3426L41.9654 96.4717L41.3462 96.8327L44.5734 98.7019L45.1942 98.3426Z" fill="#383838"/>
<path d="M47.9862 96.7234L44.7589 94.8525L44.3713 95.0784L47.5986 96.9476L47.9862 96.7234Z" fill="#383838"/>
<path d="M47.2966 97.1248L44.0693 95.2539L43.9248 95.338L47.1537 97.2072L47.2966 97.1248Z" fill="#383838"/>
<path d="M49.9374 95.5945L46.7085 93.7236L46.0894 94.083L49.3182 95.9539L49.9374 95.5945Z" fill="#383838"/>
<path d="M49.0077 96.1319L45.7804 94.2627L45.6343 94.3451L48.8632 96.2176L49.0077 96.1319Z" fill="#383838"/>
<path d="M50.5714 95.2273L47.3425 93.3564L47.198 93.4405L50.4252 95.3098L50.5714 95.2273Z" fill="#383838"/>
<path d="M48.7188 96.3006L45.4916 94.4297L45.3389 94.5187L48.5661 96.3879L48.7188 96.3006Z" fill="#383838"/>
<path d="M47.9107 102.366C46.743 101.691 46.743 100.595 47.9107 99.917C49.0784 99.2412 50.9721 99.2412 52.1398 99.917C53.3075 100.593 53.3075 101.689 52.1398 102.366C50.9721 103.044 49.0784 103.042 47.9123 102.366H47.9107Z" fill="#EB5C44"/>
<path d="M48.8322 102.343L50.0246 101.654L51.2153 102.343L52.0956 101.834L50.9049 101.141L52.0956 100.451L51.2153 99.9414L50.0229 100.632L48.8322 99.9414L47.9519 100.451L49.1443 101.141L47.9519 101.834L48.8322 102.343Z" fill="white"/>
<path d="M54.7053 94.026L60.4601 90.6914L60.9019 90.9469L55.1455 94.2832L54.7053 94.026Z" fill="#666666"/>
<path d="M43.6111 100.454L54.1386 94.3535L54.5804 94.609L44.0529 100.71L43.6111 100.454Z" fill="#666666"/>
</g>
<defs>
<clipPath id="clip0_1388_3192">
<rect width="117" height="107" fill="white"/>
</clipPath>
</defs>
</svg>
