<svg width="160" height="61.33" viewBox="0 0 300 115" fill="none" xmlns="http://www.w3.org/2000/svg">
<path d="M145.297 27.8338C148.465 27.8338 150.96 28.8895 152.879 31.0968C154.703 33.3042 155.662 36.2794 155.662 39.9264C155.662 43.5733 154.703 46.5485 152.879 48.7559C150.96 50.9633 148.465 52.1149 145.297 52.1149C142.034 52.1149 139.539 50.8673 137.907 48.276V51.6351H132.437V19.5801H138.099V31.3848C139.731 28.9854 142.13 27.8338 145.297 27.8338ZM139.539 45.3968C140.595 46.6445 142.034 47.3163 143.858 47.3163C145.681 47.3163 147.217 46.6445 148.273 45.3009C149.328 43.9572 149.808 42.1337 149.808 39.7344C149.808 37.3351 149.328 35.6076 148.273 34.3599C147.217 33.1123 145.777 32.5364 143.858 32.5364C141.938 32.5364 140.499 33.2083 139.443 34.4559C138.387 35.7036 137.907 37.623 137.907 39.9264C137.907 42.3257 138.483 44.1492 139.539 45.3968ZM163.916 51.5391H158.254V19.5801H163.916V51.5391ZM173.226 51.5391H167.563V28.3136H173.226V51.5391ZM173.226 25.3385H167.659V20.0599H173.226V25.3385ZM189.637 27.8338C192.132 27.8338 194.148 28.6015 195.587 30.0411C197.027 31.4807 197.795 33.5921 197.795 36.1834V51.5391H192.132V37.1431C192.132 34.168 190.693 32.7284 187.813 32.7284C186.374 32.7284 185.126 33.2083 184.166 34.264C183.207 35.3197 182.631 36.7593 182.631 38.5827V51.5391H176.968V28.3136H182.439V31.6727C184.166 29.0814 186.566 27.8338 189.637 27.8338ZM223.611 51.5391H217.181L210.463 40.7901L207.008 44.2451V51.5391H201.442V19.5801H207.008V38.0069L216.413 28.4096H223.132L214.398 37.1431L223.611 51.5391ZM144.626 62.672C147.889 62.672 150.384 63.7277 152.303 65.935C154.223 68.1424 155.183 71.0216 155.183 74.7646C155.183 78.4115 154.223 81.3867 152.303 83.5941C150.384 85.8015 147.793 86.9531 144.626 86.9531C141.363 86.9531 138.867 85.7055 137.14 83.2102V95.2068H132.629V63.2478H136.948V66.7028C138.675 64.0156 141.267 62.672 144.626 62.672ZM138.867 80.9068C140.019 82.3464 141.746 83.1142 143.762 83.1142C145.777 83.1142 147.505 82.3464 148.752 80.9068C149.904 79.4673 150.576 77.3558 150.576 74.7646C150.576 72.1733 150 70.1579 148.752 68.8142C147.601 67.3746 145.873 66.7028 143.762 66.7028C141.746 66.7028 140.019 67.3746 138.867 68.8142C137.62 70.3498 137.044 72.3652 137.044 74.9565C137.044 77.3558 137.62 79.3713 138.867 80.9068ZM169.866 62.8639C170.538 62.8639 170.922 62.8639 171.21 62.8639V67.1827H170.058C167.755 67.1827 165.932 67.7585 164.684 68.9102C163.436 70.0619 162.764 71.6934 162.764 73.8048V86.3773H158.254V63.2478H162.573V67.3746C164.108 64.3995 166.507 62.8639 169.866 62.8639ZM193.188 74.9565V76.3001H175.721C175.913 78.6035 176.585 80.331 177.736 81.4827C178.888 82.6344 180.424 83.2102 182.343 83.2102C185.318 83.2102 187.142 81.9625 188.101 79.3713H192.612C191.94 81.7706 190.789 83.5941 188.965 84.9377C187.142 86.2813 184.934 86.9531 182.247 86.9531C178.888 86.9531 176.297 85.8015 174.185 83.5941C172.17 81.3867 171.114 78.4115 171.114 74.7646C171.114 71.1176 172.17 68.1424 174.185 65.935C176.201 63.7277 178.888 62.576 182.151 62.576C185.51 62.576 188.293 63.7277 190.213 66.031C192.132 68.4304 193.188 71.4055 193.188 74.9565ZM182.151 66.5109C180.424 66.5109 178.984 67.0867 177.832 68.1424C176.681 69.1981 176.009 70.7337 175.721 72.8451H188.485C188.293 70.9257 187.622 69.486 186.47 68.3344C185.414 67.0867 183.975 66.5109 182.151 66.5109ZM221.5 62.672C223.995 62.672 226.011 63.4398 227.354 64.8793C228.794 66.3189 229.466 68.3344 229.466 70.8297V86.3773H224.955V71.4055C224.955 68.2384 223.515 66.6069 220.54 66.6069C218.909 66.6069 217.661 67.1827 216.605 68.4304C215.55 69.678 215.07 71.4055 215.07 73.6129V86.3773H210.655V71.4055C210.655 68.2384 209.119 66.6069 206.144 66.6069C204.513 66.6069 203.265 67.1827 202.209 68.4304C201.154 69.678 200.674 71.4055 200.674 73.6129V86.3773H196.259V63.2478H200.578V66.7028C202.209 64.0156 204.417 62.672 207.296 62.672C210.751 62.672 213.15 64.1116 214.398 66.9908C216.03 64.1116 218.429 62.672 221.5 62.672ZM238.199 59.9847H233.593V55.1861H238.199V59.9847ZM238.103 86.3773H233.689V63.2478H238.199V86.3773H238.103ZM257.49 76.3001V63.2478H262.001V86.3773H257.682V82.9223C255.954 85.6095 253.459 86.9531 250.388 86.9531C247.893 86.9531 245.877 86.2813 244.438 84.8417C242.998 83.4021 242.326 81.3867 242.326 78.7954V63.2478H246.837V78.1236C246.837 81.3867 248.468 82.9223 251.731 82.9223C253.363 82.9223 254.803 82.3464 255.858 81.1948C256.914 80.0431 257.49 78.4115 257.49 76.3001ZM291.368 62.672C293.864 62.672 295.879 63.4398 297.223 64.8793C298.662 66.3189 299.334 68.3344 299.334 70.8297V86.3773H294.823V71.4055C294.823 68.2384 293.384 66.6069 290.409 66.6069C288.777 66.6069 287.529 67.1827 286.474 68.4304C285.418 69.678 284.938 71.4055 284.938 73.6129V86.3773H280.427V71.4055C280.427 68.2384 278.892 66.6069 275.917 66.6069C274.285 66.6069 273.038 67.1827 271.982 68.4304C270.926 69.678 270.446 71.4055 270.446 73.6129V86.3773H265.936V63.2478H270.254V66.7028C271.886 64.0156 274.093 62.672 276.972 62.672C280.427 62.672 282.827 64.1116 284.074 66.9908C285.898 64.1116 288.297 62.672 291.368 62.672Z" fill="url(#paint0_linear_4350_22614)"/>
<path d="M88.2952 1.15168C102.307 1.15168 113.632 12.4765 113.632 26.4886V96.5489C113.632 105.954 106.05 113.536 96.6448 113.536H18.1389C8.73355 113.536 1.15168 105.954 1.15168 96.5489V26.4886C1.15168 12.4765 12.4765 1.15168 26.4886 1.15168H88.2952ZM88.2952 0H26.4886C11.9007 0 0 11.9007 0 26.4886V96.5489C0 106.53 8.15771 114.688 18.1389 114.688H96.5489C106.53 114.688 114.688 106.53 114.688 96.5489V26.4886C114.688 11.9007 102.883 0 88.2952 0Z" fill="url(#paint1_linear_4350_22614)"/>
<path d="M96.5442 93.9563H18.1342C8.72884 93.9563 1.14697 86.3745 1.14697 76.9691V26.4873C1.14697 12.4752 12.4718 1.15039 26.4839 1.15039H88.2905C102.303 1.15039 113.627 12.4752 113.627 26.4873V76.9691C113.627 86.3745 105.95 93.9563 96.5442 93.9563Z" fill="url(#paint2_linear_4350_22614)"/>
<path d="M69.0913 35.222C68.2276 35.0301 67.4598 35.0301 66.596 35.0301C64.7725 35.0301 63.141 35.318 61.5094 36.0858C59.8779 36.8536 58.4383 37.9093 57.2866 39.1569C56.039 37.8133 54.5994 36.7576 52.8719 35.9898C51.2403 35.222 49.3209 34.9341 47.4974 35.0301C45.5779 35.1261 43.8504 35.51 42.2189 36.3737C40.5873 37.2375 39.1477 38.3892 37.9961 39.8287C36.8444 41.2683 36.0766 42.9959 35.6927 44.6274C35.3088 46.4509 35.3088 48.1784 35.6927 50.0019C36.0766 51.8254 36.8444 53.4569 37.9961 54.8965C39.1477 56.3361 40.4914 57.4878 42.2189 58.3515V71.116C40.0115 70.6361 37.8041 69.7723 35.8846 68.6207C32.1417 66.5093 29.0706 63.3421 26.8632 59.6952C24.6558 56.0482 23.6001 51.8254 23.6001 47.6026V11.1328L35.8846 26.4885C41.5471 23.2254 48.1692 22.3617 54.4074 24.0892C60.3578 25.6247 65.7323 29.7516 69.0913 35.222Z" fill="white"/>
<path d="M91.0689 47.5071C91.0689 51.442 90.0132 55.4728 88.0937 58.9279C86.1742 62.4789 83.487 65.454 80.1279 67.7574C76.7689 69.9648 72.93 71.3084 68.8991 71.6923C64.9642 72.0762 60.8374 71.5003 57.0944 70.0607C56.0387 69.6768 55.079 69.101 54.1192 68.6211L41.9307 83.9768V58.352C43.7542 59.3117 45.7696 59.7916 47.881 59.7916C49.7045 59.7916 51.336 59.5037 52.9676 58.7359C54.5031 57.9681 56.0387 56.9124 57.1904 55.6648C58.534 57.1044 60.2615 58.256 61.989 58.9279C63.9085 59.6956 65.8279 59.8876 67.8434 59.6956C69.8588 59.5037 71.6823 58.8319 73.4098 57.6802C75.0414 56.6245 76.481 55.1849 77.3447 53.4574C78.3044 51.8259 78.8803 49.8104 78.9763 47.891C79.0722 45.9715 78.6883 44.052 77.8246 42.1326C76.9608 40.3091 75.7132 38.7735 74.2736 37.5259C72.738 36.2782 70.9145 35.4145 68.8991 35.0306C66.2118 30.4239 61.989 26.8729 57.0944 24.8574C60.8374 23.4178 64.8682 22.746 68.8991 23.2259C73.0259 23.6098 76.7689 25.0494 80.1279 27.1608C83.487 29.3682 86.1742 32.4393 88.0937 35.9903C90.1091 39.6373 91.0689 43.5722 91.0689 47.5071Z" fill="white"/>
<path d="M67.0786 53.074C66.8867 53.074 66.7907 53.074 66.5988 53.074C62.28 52.882 59.4968 49.427 59.4008 49.235C59.1129 48.8512 58.9209 48.2753 59.0169 47.7954C59.1129 47.3156 59.3048 46.7397 59.7847 46.4518C60.1686 46.1639 60.7444 45.972 61.2243 46.0679C61.7042 46.1639 62.28 46.3559 62.5679 46.8357C62.5679 46.9317 64.3914 48.9471 66.7907 49.1391C68.3263 49.235 70.1498 48.3713 71.7813 46.7397C72.1652 46.3559 72.7411 46.0679 73.2209 46.0679C73.7008 46.0679 74.2766 46.2599 74.6605 46.7397C75.0444 47.1236 75.3323 47.6995 75.3323 48.1793C75.3323 48.6592 75.1404 49.235 74.6605 49.6189C72.4531 51.9223 69.7659 53.074 67.0786 53.074Z" fill="white"/>
<path d="M48.076 53.074C47.884 53.074 47.788 53.074 47.5961 53.074C43.2773 52.882 40.4941 49.427 40.3981 49.235C40.1102 48.8512 39.9183 48.2753 40.0142 47.7954C40.1102 47.3156 40.3021 46.7397 40.782 46.4518C41.1659 46.1639 41.7417 45.972 42.2216 46.0679C42.7015 46.1639 43.2773 46.3559 43.5652 46.8357C43.5652 46.9317 45.3887 48.9471 47.788 49.1391C49.3236 49.235 51.1471 48.3713 52.7786 46.7397C53.1625 46.3559 53.7384 46.0679 54.2182 46.0679C54.6981 46.0679 55.2739 46.2599 55.6578 46.7397C56.0417 47.1236 56.3296 47.6995 56.3296 48.1793C56.3296 48.6592 56.1377 49.235 55.6578 49.6189C53.3545 51.9223 50.7632 53.074 48.076 53.074Z" fill="white"/>
<path d="M26.7723 100.1C27.732 100.1 28.4998 100.388 29.0756 101.06C29.6515 101.732 29.9394 102.596 29.9394 103.651C29.9394 104.707 29.6515 105.571 29.0756 106.242C28.4998 106.914 27.732 107.202 26.7723 107.202C25.8125 107.202 25.1407 106.818 24.6609 106.147V109.698H22.9333V100.196H24.5649V101.156C25.0448 100.484 25.8125 100.1 26.7723 100.1ZM25.0448 105.379C25.3327 105.763 25.8125 105.955 26.3884 105.955C26.9642 105.955 27.3481 105.763 27.732 105.379C28.0199 104.995 28.2119 104.419 28.2119 103.747C28.2119 103.075 28.0199 102.5 27.732 102.116C27.4441 101.732 26.9642 101.54 26.3884 101.54C25.8125 101.54 25.4286 101.732 25.0448 102.116C24.7568 102.5 24.5649 103.075 24.5649 103.747C24.5649 104.419 24.7568 104.995 25.0448 105.379ZM37.8092 100.196C38.0011 100.196 38.0971 100.196 38.1931 100.196V101.732H37.8092C37.1374 101.732 36.6575 101.924 36.3696 102.212C35.9857 102.5 35.8897 102.979 35.8897 103.651V107.202H34.1622V100.292H35.7937V101.54C36.0817 100.58 36.8494 100.196 37.8092 100.196ZM48.5581 103.843V104.227H43.3756C43.4716 104.803 43.6635 105.283 43.9514 105.571C44.2394 105.859 44.7192 106.051 45.1991 106.051C45.9669 106.051 46.4467 105.763 46.7347 105.091H48.3662C48.1743 105.763 47.7904 106.338 47.2145 106.722C46.6387 107.106 45.9669 107.298 45.1031 107.298C44.0474 107.298 43.2796 107.01 42.6078 106.338C41.936 105.667 41.6481 104.803 41.6481 103.747C41.6481 102.691 41.936 101.828 42.6078 101.156C43.2796 100.484 44.0474 100.196 45.1031 100.196C46.1588 100.196 47.0226 100.58 47.5984 101.252C48.2702 101.828 48.5581 102.691 48.5581 103.843ZM45.1031 101.444C44.1434 101.444 43.5676 102.02 43.3756 103.075H46.8306C46.7347 102.596 46.5427 102.212 46.2548 101.828C45.9669 101.444 45.583 101.444 45.1031 101.444ZM60.7467 100.1C61.5145 100.1 62.0903 100.292 62.4742 100.772C62.8581 101.252 63.1461 101.828 63.1461 102.596V107.202H61.4185V102.883C61.4185 102.02 61.0346 101.54 60.2669 101.54C59.883 101.54 59.4991 101.732 59.2112 102.02C58.9232 102.308 58.8273 102.787 58.8273 103.363V107.202H57.1957V102.883C57.1957 102.02 56.8118 101.54 55.9481 101.54C55.5642 101.54 55.1803 101.732 54.8924 102.02C54.6045 102.308 54.5085 102.787 54.5085 103.363V107.202H52.781V100.292H54.4125V101.252C54.8924 100.484 55.5642 100.1 56.332 100.1C57.3877 100.1 58.0595 100.484 58.4434 101.348C59.1152 100.58 59.787 100.1 60.7467 100.1ZM69.3843 107.202H67.6568V100.292H69.3843V107.202ZM69.3843 99.3324H67.7528V97.7969H69.3843V99.3324ZM78.5017 104.131V100.292H80.2293V107.202H78.5977V106.242C78.1178 107.01 77.3501 107.394 76.3903 107.394C75.6225 107.394 75.0467 107.202 74.6628 106.722C74.183 106.242 73.991 105.667 73.991 104.899V100.292H75.7185V104.611C75.7185 105.475 76.1984 105.955 77.0621 105.955C77.446 105.955 77.8299 105.763 78.1178 105.475C78.3098 105.091 78.5017 104.707 78.5017 104.131ZM92.6098 100.1C93.3776 100.1 93.9534 100.292 94.3373 100.772C94.7212 101.252 95.0091 101.828 95.0091 102.596V107.202H93.2816V102.883C93.2816 102.02 92.8977 101.54 92.1299 101.54C91.746 101.54 91.3621 101.732 91.0742 102.02C90.7863 102.308 90.6903 102.787 90.6903 103.363V107.202H89.0588V102.883C89.0588 102.02 88.6749 101.54 87.8111 101.54C87.4272 101.54 87.0433 101.732 86.7554 102.02C86.4675 102.308 86.3715 102.787 86.3715 103.363V107.202H84.644V100.292H86.3715V101.252C86.8514 100.484 87.5232 100.1 88.291 100.1C89.3467 100.1 90.0185 100.484 90.4024 101.348C90.9782 100.58 91.65 100.1 92.6098 100.1Z" fill="url(#paint3_linear_4350_22614)"/>
<defs>
<linearGradient id="paint0_linear_4350_22614" x1="142.037" y1="9.61366" x2="261.822" y2="125.288" gradientUnits="userSpaceOnUse">
<stop stop-color="#A2BD36"/>
<stop offset="0.186" stop-color="#89B437"/>
<stop offset="0.5814" stop-color="#499E39"/>
<stop offset="0.999" stop-color="#00843C"/>
</linearGradient>
<linearGradient id="paint1_linear_4350_22614" x1="0" y1="57.3665" x2="114.733" y2="57.3665" gradientUnits="userSpaceOnUse">
<stop offset="0.00104742" stop-color="#00843C"/>
<stop offset="0.4186" stop-color="#499E39"/>
<stop offset="0.814" stop-color="#89B437"/>
<stop offset="1" stop-color="#A2BD36"/>
</linearGradient>
<linearGradient id="paint2_linear_4350_22614" x1="13.8166" y1="5.37791" x2="106.763" y2="100.667" gradientUnits="userSpaceOnUse">
<stop stop-color="#A2BD36"/>
<stop offset="0.186" stop-color="#89B437"/>
<stop offset="0.5814" stop-color="#499E39"/>
<stop offset="0.999" stop-color="#00843C"/>
</linearGradient>
<linearGradient id="paint3_linear_4350_22614" x1="15.6204" y1="94.8583" x2="98.4054" y2="114.583" gradientUnits="userSpaceOnUse">
<stop stop-color="#A2BD36"/>
<stop offset="0.186" stop-color="#89B437"/>
<stop offset="0.5814" stop-color="#499E39"/>
<stop offset="0.999" stop-color="#00843C"/>
</linearGradient>
</defs>
</svg>
