<svg width="22" height="20" viewBox="0 0 22 20" fill="none" xmlns="http://www.w3.org/2000/svg">
<path d="M14.1738 1.01953L17.3483 6.57487M4.65039 6.57487L7.82487 1.01953M19.3806 6.57503H2.61937C2.38132 6.57021 2.14523 6.61901 1.92859 6.71782C1.71195 6.81662 1.52032 6.9629 1.36789 7.14582C1.21546 7.32874 1.10613 7.54361 1.04801 7.77451C0.989891 8.00541 0.984465 8.24643 1.03214 8.47972L2.7781 17.2095C2.8523 17.5735 3.05178 17.8998 3.34179 18.1318C3.63181 18.3639 3.99401 18.4868 4.36534 18.4793H17.6347C18.006 18.4868 18.3682 18.3639 18.6582 18.1318C18.9482 17.8998 19.1477 17.5735 19.2219 17.2095L20.9679 8.47972C21.0155 8.24643 21.0101 8.00541 20.952 7.77451C20.8939 7.54361 20.7845 7.32874 20.6321 7.14582C20.4797 6.9629 20.288 6.81662 20.0714 6.71782C19.8548 6.61901 19.6187 6.57021 19.3806 6.57503Z" stroke="white" stroke-width="1.5" stroke-linecap="round" stroke-linejoin="round"/>
</svg>
