<svg width="" height="" viewBox="0 0 18 16" fill="none" xmlns="http://www.w3.org/2000/svg">
<path d="M7.80122 4.80019H14.2012M7.80122 8.00019H9.80122M7.80122 11.2002H9.80122M12.2012 11.2002H14.2012M12.2012 8.00019H14.2012M5.00122 4.40019H4.20122C2.69273 4.40019 1.93848 4.40019 1.46985 4.86882C1.00122 5.33745 1.00122 6.0917 1.00122 7.60019V12.8002C1.00122 13.9048 1.89665 14.8002 3.00122 14.8002M5.00122 4.40019V12.8002C5.00122 13.9048 4.10579 14.8002 3.00122 14.8002M5.00122 4.40019C5.00122 3.65622 5.00122 3.28423 5.083 2.97903C5.30492 2.15081 5.95183 1.50389 6.78005 1.28197C7.08525 1.2002 7.45724 1.2002 8.20122 1.2002H12.2012C14.464 1.2002 15.5953 1.2002 16.2983 1.90314C17.0012 2.60608 17.0012 3.73745 17.0012 6.00019V10.0002C17.0012 12.2629 17.0012 13.3943 16.2983 14.0972C15.5953 14.8002 14.464 14.8002 12.2012 14.8002H3.00122" stroke="" stroke-linecap="round" stroke-linejoin="round"/>
</svg>
