<svg width="14" height="5" viewBox="0 0 14 5" fill="none" xmlns="http://www.w3.org/2000/svg">
<path d="M13.4875 1.26256C12.804 0.579146 11.696 0.579146 11.0126 1.26256C10.3292 1.94598 10.3292 3.05402 11.0126 3.73743C11.696 4.42085 12.804 4.42085 13.4875 3.73743C14.1709 3.05404 14.1709 1.946 13.4875 1.26256Z" fill="#030229"/>
<path d="M8.23745 1.26256C7.55403 0.579146 6.44599 0.579146 5.76258 1.26256C5.07916 1.94598 5.07916 3.05402 5.76258 3.73743C6.44599 4.42085 7.55403 4.42085 8.23745 3.73743C8.92087 3.05404 8.92087 1.946 8.23745 1.26256Z" fill="#030229"/>
<path d="M2.98744 1.26256C2.30402 0.579146 1.19598 0.579146 0.512562 1.26256C-0.170854 1.94598 -0.170854 3.05402 0.512562 3.73743C1.19598 4.42085 2.30402 4.42085 2.98744 3.73743C3.67085 3.05404 3.67085 1.946 2.98744 1.26256Z" fill="#030229"/>
</svg>
