<svg width="" height="" viewBox="0 0 18 16" fill="none" xmlns="http://www.w3.org/2000/svg">
<path d="M16.6174 7.60232C16.8667 6.80721 17.0012 6.00996 17.0012 5.23678C17.0012 2.61356 15.0092 0.491211 12.5532 0.491211C11.1052 0.491211 9.80922 1.23828 9.00122 2.39283C8.19322 1.23828 6.90522 0.491211 5.44922 0.491211C2.99322 0.491211 1.00122 2.61356 1.00122 5.23678C1.00122 6.21265 1.15446 7.15345 1.43708 8.04677M16.6174 7.60232C15.5846 10.8956 12.5813 14.1522 9.00122 15.5094C5.47945 14.1743 2.51581 11.4565 1.43708 8.04677M16.6174 7.60232H14.4266C14.3677 7.60232 14.3111 7.57891 14.2695 7.53723L13.2192 6.487C13.112 6.37975 12.9312 6.40909 12.8633 6.54476L11.8058 8.65989C11.7379 8.79555 11.5571 8.8249 11.4499 8.71764L10.52 7.78781C10.4229 7.69071 10.2619 7.70404 10.1821 7.81578L8.39885 10.3123C8.28758 10.4681 8.04454 10.4197 8.00149 10.2331L6.909 5.49902C6.86324 5.30068 6.59707 5.26313 6.49822 5.44106L4.7232 8.63609C4.64501 8.77683 4.44777 8.79031 4.35116 8.66151L3.37718 7.36286C3.29604 7.25467 3.13789 7.24343 3.04226 7.33906L2.39964 7.98168C2.35797 8.02335 2.30144 8.04677 2.24251 8.04677H1.84409H1.43708" stroke="" stroke-linecap="round" stroke-linejoin="round"/>
</svg>
