<svg width="19" height="16" viewBox="0 0 19 16" fill="none" xmlns="http://www.w3.org/2000/svg">
<path d="M10.775 3.62812H11.5765C12.6903 3.62812 13.2473 3.62812 13.7195 3.89547C14.1917 4.16281 14.5065 4.65638 15.1362 5.64353C15.5777 6.33573 16.0411 6.83816 16.6929 7.28515C17.349 7.7352 17.661 7.95512 17.8342 8.30822C18 8.64639 18 9.04687 18 9.84784C18 10.9038 18 11.4318 17.7034 11.7673C17.6906 11.7817 17.6776 11.7957 17.6642 11.8094C17.3519 12.1281 16.8605 12.1281 15.8776 12.1281H15.45M12.05 12.1281H8.65M10.35 3.62812L11.1951 5.74085C11.6091 6.77599 11.8162 7.29355 12.2479 7.58584C12.6796 7.87812 13.237 7.87812 14.3519 7.87812H17.15M10.35 3.62812L10.35 12.1281H6.6913M10.35 3.62812C10.35 2.42604 10.35 1.825 9.9928 1.45156C9.63559 1.07812 9.06069 1.07812 7.91087 1.07812H3.43913C2.28931 1.07812 1.7144 1.07812 1.3572 1.45156C1 1.825 1 2.42604 1 3.62812V9.57812C1 10.7802 1 11.3812 1.3572 11.7547C1.7144 12.1281 2.28931 12.1281 3.43913 12.1281M15.4503 12.9782C15.4503 13.9171 14.6892 14.6782 13.7503 14.6782C12.8114 14.6782 12.0503 13.9171 12.0503 12.9782C12.0503 12.0393 12.8114 11.2782 13.7503 11.2782C14.6892 11.2782 15.4503 12.0393 15.4503 12.9782ZM6.95032 12.9782C6.95032 13.9171 6.1892 14.6782 5.25032 14.6782C4.31143 14.6782 3.55032 13.9171 3.55032 12.9782C3.55032 12.0393 4.31143 11.2782 5.25032 11.2782C6.1892 11.2782 6.95032 12.0393 6.95032 12.9782Z" stroke="#344051" stroke-width="1.5" stroke-linecap="round" stroke-linejoin="round"/>
</svg>
