<svg width="" height="" viewBox="0 0 18 18" fill="none" xmlns="http://www.w3.org/2000/svg">
<path d="M11.5632 5.8L6.36319 13M7.16343 7.87708C7.64783 7.42477 7.67384 6.66542 7.22153 6.18102C6.76921 5.69662 6.00986 5.67061 5.52546 6.12293C5.04107 6.57524 5.01506 7.33459 5.46737 7.81899C5.91968 8.30339 6.67904 8.32939 7.16343 7.87708ZM12.3632 12.5548C12.8476 12.1025 12.8736 11.3431 12.4213 10.8587C11.969 10.3743 11.2096 10.3483 10.7252 10.8007C10.2408 11.253 10.2148 12.0123 10.6671 12.4967C11.1195 12.9811 11.8788 13.0071 12.3632 12.5548ZM15.0941 5.46615V5.55336C15.0941 6.02619 15.0941 6.2626 15.174 6.47797C15.1851 6.50789 15.1973 6.53738 15.2106 6.56638C15.3064 6.77518 15.4736 6.94235 15.8079 7.27668C16.5774 8.0462 16.9622 8.43096 16.9976 8.90438C17.0024 8.96804 17.0024 9.03196 16.9976 9.09562C16.9622 9.56904 16.5774 9.9538 15.8079 10.7233C15.4735 11.0577 15.3064 11.2248 15.2106 11.4336C15.1973 11.4626 15.1851 11.4921 15.174 11.522C15.0941 11.7374 15.0941 11.9738 15.0941 12.4466V12.5339C15.0941 13.7402 15.0941 14.3433 14.7193 14.7181C14.3446 15.0928 13.7414 15.0928 12.5351 15.0928H12.4479C11.975 15.0928 11.7386 15.0928 11.5232 15.1728C11.4933 15.1839 11.4638 15.1961 11.4348 15.2094C11.226 15.3052 11.0589 15.4723 10.7245 15.8067C9.95502 16.5762 9.57026 16.9609 9.09684 16.9964C9.03318 17.0012 8.96926 17.0012 8.9056 16.9964C8.43218 16.9609 8.04742 16.5762 7.2779 15.8067C6.94357 15.4723 6.7764 15.3052 6.5676 15.2094C6.5386 15.1961 6.50911 15.1839 6.4792 15.1728C6.26382 15.0928 6.02741 15.0928 5.55459 15.0928H5.46737C4.26105 15.0928 3.65789 15.0928 3.28313 14.7181C2.90837 14.3433 2.90837 13.7402 2.90837 12.5338V12.4466C2.90837 11.9738 2.90837 11.7374 2.82846 11.522C2.81736 11.4921 2.80515 11.4626 2.79184 11.4336C2.69606 11.2248 2.52889 11.0577 2.19455 10.7233C1.42504 9.9538 1.04028 9.56904 1.0048 9.09562C1.00003 9.03196 1.00003 8.96804 1.0048 8.90438C1.04028 8.43096 1.42504 8.0462 2.19455 7.27668C2.52889 6.94235 2.69606 6.77518 2.79184 6.56638C2.80515 6.53738 2.81736 6.50789 2.82846 6.47798C2.90837 6.2626 2.90837 6.02619 2.90837 5.55336V5.46615C2.90837 4.25983 2.90837 3.65667 3.28313 3.28191C3.65789 2.90715 4.26105 2.90715 5.46737 2.90715H5.55459C6.02741 2.90715 6.26382 2.90715 6.4792 2.82724C6.50911 2.81614 6.5386 2.80393 6.5676 2.79062C6.7764 2.69484 6.94357 2.52767 7.2779 2.19333C8.04742 1.42381 8.43218 1.03906 8.9056 1.00358C8.96926 0.998807 9.03318 0.998807 9.09684 1.00358C9.57026 1.03906 9.95502 1.42381 10.7245 2.19333C11.0589 2.52767 11.226 2.69484 11.4348 2.79062C11.4638 2.80393 11.4933 2.81614 11.5232 2.82724C11.7386 2.90715 11.975 2.90715 12.4479 2.90715H12.5351C13.7414 2.90715 14.3446 2.90715 14.7193 3.28191C15.0941 3.65667 15.0941 4.25983 15.0941 5.46615Z" stroke="" stroke-linecap="round"/>
</svg>
