<svg width="22" height="22" viewBox="0 0 22 22" fill="none" xmlns="http://www.w3.org/2000/svg">
<path d="M13.3077 1H2.53846C2.13044 1 1.73912 1.16209 1.4506 1.4506C1.16209 1.73912 1 2.13044 1 2.53846V19.4615C1 19.8696 1.16209 20.2609 1.4506 20.5494C1.73912 20.8379 2.13044 21 2.53846 21H19.4615C19.8696 21 20.2609 20.8379 20.5494 20.5494C20.8379 20.2609 21 19.8696 21 19.4615V8.69231M13.3077 1L21 8.69231M13.3077 1L13.3076 7.92308C13.3076 8.12709 13.3887 8.32275 13.5329 8.467C13.6772 8.61126 13.8728 8.69231 14.0768 8.69231L21 8.69231M7.1543 7.15388V4.84619M7.1543 7.15388C5.87737 7.15388 4.8457 7.15381 4.8457 8.69227C4.8457 11 9.46109 11 9.46109 13.3077C9.46109 14.8461 8.43032 14.8461 7.1534 14.8461M7.1543 7.15388C8.43122 7.15388 9.46109 7.73842 9.46109 8.69227M4.8457 13.3077C4.8457 14.4615 5.87647 14.8461 7.1534 14.8461M7.1534 14.8461L7.1543 17.1539M13.3076 14.8462H17.923" />
</svg>
