<svg width="22" height="22" viewBox="0 0 22 22" fill="none" xmlns="http://www.w3.org/2000/svg">
<path d="M13.6683 3.265C13.269 3.20875 12.8608 3.17965 12.4457 3.17965C9.20793 3.17965 6.39029 4.95043 4.93765 7.56185M19.1191 6.33174C20.2959 7.77427 20.9999 9.60647 20.9999 11.6006C20.9999 13.0488 20.6286 14.4116 19.9745 15.6018M15.086 19.6127C14.2544 19.8781 13.3671 20.0215 12.4457 20.0215C8.45583 20.0215 5.10395 17.3325 4.15815 13.695M19.9473 4.23206C19.9473 5.97608 18.5335 7.38989 16.7894 7.38989C15.0454 7.38989 13.6316 5.97608 13.6316 4.23206C13.6316 2.48803 15.0454 1.07422 16.7894 1.07422C18.5335 1.07422 19.9473 2.48803 19.9473 4.23206ZM7.31568 10.5479C7.31568 12.2919 5.90186 13.7057 4.15784 13.7057C2.41381 13.7057 1 12.2919 1 10.5479C1 8.80384 2.41381 7.39002 4.15784 7.39002C5.90186 7.39002 7.31568 8.80384 7.31568 10.5479ZM21 17.9159C21 19.6599 19.5862 21.0737 17.8422 21.0737C16.0981 21.0737 14.6843 19.6599 14.6843 17.9159C14.6843 16.1719 16.0981 14.7581 17.8422 14.7581C19.5862 14.7581 21 16.1719 21 17.9159Z" />
</svg>
