<svg width="23" height="19" viewBox="0 0 23 19" fill="none" xmlns="http://www.w3.org/2000/svg">
<path d="M13.075 4.15049H14.0651C15.441 4.15049 16.129 4.15049 16.7123 4.48073C17.2956 4.81098 17.6845 5.42069 18.4623 6.64011C19.0077 7.49518 19.5802 8.11583 20.3853 8.668C21.1958 9.22393 21.5813 9.49559 21.7951 9.93179C22 10.3495 22 10.8442 22 11.8337C22 13.1381 22 13.7903 21.6336 14.2048C21.6178 14.2226 21.6017 14.2399 21.5852 14.2568C21.1994 14.6505 20.5923 14.6505 19.3782 14.6505H18.85M14.65 14.6505H10.45M12.55 4.15049L13.5939 6.76033C14.1054 8.03902 14.3612 8.67837 14.8944 9.03943C15.4277 9.40049 16.1163 9.40049 17.4935 9.40049H20.95M12.55 4.15049L12.55 14.6505H8.03043M12.55 4.15049C12.55 2.66556 12.55 1.9231 12.1088 1.4618C11.6675 1.00049 10.9573 1.00049 9.53696 1.00049H4.01304C2.59268 1.00049 1.8825 1.00049 1.44125 1.4618C1 1.9231 1 2.66556 1 4.15049V11.5005C1 12.9854 1 13.7279 1.44125 14.1892C1.8825 14.6505 2.59268 14.6505 4.01304 14.6505M18.8504 15.7006C18.8504 16.8604 17.9102 17.8006 16.7504 17.8006C15.5906 17.8006 14.6504 16.8604 14.6504 15.7006C14.6504 14.5408 15.5906 13.6006 16.7504 13.6006C17.9102 13.6006 18.8504 14.5408 18.8504 15.7006ZM8.35039 15.7006C8.35039 16.8604 7.41019 17.8006 6.25039 17.8006C5.09059 17.8006 4.15039 16.8604 4.15039 15.7006C4.15039 14.5408 5.09059 13.6006 6.25039 13.6006C7.41019 13.6006 8.35039 14.5408 8.35039 15.7006Z" />
</svg>
