<svg width="22" height="22" viewBox="0 0 22 22" fill="none" xmlns="http://www.w3.org/2000/svg">
<path d="M3.7391 1.24952L3.40787 0.30597L3.7391 1.24952ZM1.26547 3.57764L0.335814 3.20922L1.26547 3.57764ZM16.8421 11.0869C16.8421 11.6392 17.2898 12.0869 17.8421 12.0869C18.3944 12.0869 18.8421 11.6392 18.8421 11.0869H16.8421ZM17.3775 5.51112L16.4479 5.87954L17.3775 5.51112ZM13.0487 1.43692L12.7175 2.38047L13.0487 1.43692ZM16.8417 10.9066C16.8417 11.4589 17.2895 11.9066 17.8417 11.9066C18.394 11.9066 18.8417 11.4589 18.8417 10.9066H16.8417ZM14.5394 7.60426V8.60426V7.60426ZM11.2933 6.38043L12.2592 6.12161L11.2933 6.38043ZM12.4608 7.548L12.202 8.51392L12.202 8.51392L12.4608 7.548ZM7.93462 -0.000488281C7.38234 -0.000488281 6.93462 0.447227 6.93462 0.999512C6.93462 1.5518 7.38234 1.99951 7.93462 1.99951V-0.000488281ZM12.7387 21.7915C13.2907 21.7745 13.7245 21.3133 13.7075 20.7612C13.6905 20.2092 13.2293 19.7755 12.6772 19.7924L12.7387 21.7915ZM9.42105 21.8139H10.1866V19.8139H9.42105V21.8139ZM0 6.76381V12.8882H2V6.76381H0ZM7.1244 -0.000337183C5.42667 -0.000337183 4.32111 -0.0146135 3.40787 0.30597L4.07032 2.19307C4.58062 2.01394 5.25742 1.99966 7.1244 1.99966V-0.000337183ZM2 6.76381C2 5.91186 2.00051 5.32126 2.03102 4.85868C2.06094 4.40503 2.11664 4.14413 2.19514 3.94605L0.335814 3.20922C0.148837 3.68104 0.0717994 4.17447 0.0353525 4.72705C-0.000505567 5.2707 0 5.93823 0 6.76381H2ZM3.40787 0.30597C2.00484 0.798491 0.874916 1.84886 0.335814 3.20922L2.19514 3.94605C2.50961 3.15252 3.18484 2.50391 4.07032 2.19307L3.40787 0.30597ZM18.8421 11.0869C18.8421 9.63227 18.8426 8.49294 18.7819 7.57195C18.7205 6.64204 18.5937 5.86573 18.3072 5.1427L16.4479 5.87954C16.6259 6.32883 16.7314 6.87259 16.7862 7.70358C16.8416 8.5435 16.8421 9.6059 16.8421 11.0869H18.8421ZM7.1244 1.99966C10.3282 1.99966 11.6733 2.01394 12.7175 2.38047L13.3799 0.493365C11.9328 -0.0146126 10.1589 -0.000337183 7.1244 -0.000337183V1.99966ZM18.3072 5.1427C17.448 2.97463 15.6411 1.28715 13.3799 0.493365L12.7175 2.38047C14.4611 2.99257 15.8133 4.27829 16.4479 5.87954L18.3072 5.1427ZM9.42105 19.8139C7.40954 19.8139 5.99567 19.812 4.9265 19.6767C3.88019 19.5443 3.31664 19.2996 2.9186 18.925L1.54787 20.3814C2.38307 21.1675 3.42856 21.5031 4.67542 21.6609C5.89943 21.8158 7.46284 21.8139 9.42105 21.8139V19.8139ZM0 12.8882C0 14.7263 -0.00239182 16.2117 0.164204 17.3779C0.335841 18.5795 0.704102 19.5873 1.54787 20.3814L2.9186 18.925C2.52913 18.5585 2.28078 18.0519 2.1441 17.0951C2.00239 16.1031 2 14.7863 2 12.8882H0ZM18.8417 10.9066C18.8417 8.5305 16.9155 6.60426 14.5394 6.60426V8.60426C15.8109 8.60426 16.8417 9.63507 16.8417 10.9066H18.8417ZM10.3273 6.63925C10.5725 7.55415 11.2871 8.26877 12.202 8.51392L12.7196 6.58207C12.4949 6.52186 12.3194 6.34633 12.2592 6.12161L10.3273 6.63925ZM7.93462 1.99951C9.20619 1.99951 10.237 3.03032 10.237 4.30188H12.237C12.237 1.92575 10.3108 -0.000488281 7.93462 -0.000488281V1.99951ZM10.237 4.30188C10.237 4.44103 10.2309 4.59236 10.2227 4.7684C10.2149 4.93742 10.2049 5.13262 10.2009 5.32725C10.1929 5.71057 10.2041 6.17928 10.3273 6.63925L12.2592 6.12161C12.2106 5.94026 12.1936 5.6995 12.2005 5.36878C12.2038 5.20638 12.2121 5.04342 12.2205 4.86108C12.2287 4.68577 12.237 4.49254 12.237 4.30188H10.237ZM14.5394 6.60426C14.3487 6.60426 14.1555 6.61257 13.9802 6.62071C13.7978 6.62917 13.6349 6.63741 13.4725 6.64078C13.1418 6.64765 12.901 6.63066 12.7196 6.58207L12.202 8.51392C12.662 8.63717 13.1307 8.64831 13.514 8.64035C13.7086 8.63631 13.9038 8.6264 14.0729 8.61856C14.2489 8.61039 14.4002 8.60426 14.5394 8.60426L14.5394 6.60426ZM10.1866 21.8139C11.1598 21.8139 12.0069 21.814 12.7387 21.7915L12.6772 19.7924C11.9827 19.8138 11.1696 19.8139 10.1866 19.8139V21.8139Z" />
<path d="M4.1582 15.1099C3.74399 15.1099 3.4082 15.4456 3.4082 15.8599C3.4082 16.2741 3.74399 16.6099 4.1582 16.6099V15.1099ZM10.2263 16.6099C10.6405 16.6099 10.9763 16.2741 10.9763 15.8599C10.9763 15.4456 10.6405 15.1099 10.2263 15.1099V16.6099ZM4.1582 16.6099H10.2263V15.1099H4.1582V16.6099Z" />
<path d="M4.1582 3.67041C3.74399 3.67041 3.4082 4.0062 3.4082 4.42041C3.4082 4.83462 3.74399 5.17041 4.1582 5.17041V3.67041ZM7.13034 5.17041C7.54455 5.17041 7.88034 4.83462 7.88034 4.42041C7.88034 4.0062 7.54455 3.67041 7.13034 3.67041V5.17041ZM4.1582 5.17041H7.13034V3.67041H4.1582V5.17041Z" />
<path d="M4.1582 6.82861C3.74399 6.82861 3.4082 7.1644 3.4082 7.57861C3.4082 7.99283 3.74399 8.32861 4.1582 8.32861V6.82861ZM9.42136 8.32861C9.83557 8.32861 10.1714 7.99283 10.1714 7.57861C10.1714 7.1644 9.83557 6.82861 9.42136 6.82861V8.32861ZM4.1582 8.32861H9.42136V6.82861H4.1582V8.32861Z" />
<path d="M5.96094 12.8418C5.96094 12.4276 5.62515 12.0918 5.21094 12.0918C4.79672 12.0918 4.46094 12.4276 4.46094 12.8418L5.96094 12.8418ZM4.46094 14.9471C4.46094 15.3613 4.79672 15.6971 5.21094 15.6971C5.62515 15.6971 5.96094 15.3613 5.96094 14.9471L4.46094 14.9471ZM4.46094 12.8418L4.46094 14.9471L5.96094 14.9471L5.96094 12.8418L4.46094 12.8418Z" />
<path d="M8.06543 10.7363C8.06543 10.3221 7.72964 9.98633 7.31543 9.98633C6.90122 9.98633 6.56543 10.3221 6.56543 10.7363L8.06543 10.7363ZM6.56543 14.9469C6.56543 15.3611 6.90122 15.6969 7.31543 15.6969C7.72964 15.6969 8.06543 15.3611 8.06543 14.9469L6.56543 14.9469ZM6.56543 10.7363L6.56543 14.9469L8.06543 14.9469L8.06543 10.7363L6.56543 10.7363Z" />
<path d="M10.1709 11.7891C10.1709 11.3748 9.83511 11.0391 9.4209 11.0391C9.00668 11.0391 8.6709 11.3748 8.6709 11.7891L10.1709 11.7891ZM8.6709 14.947C8.6709 15.3612 9.00669 15.697 9.4209 15.697C9.83511 15.697 10.1709 15.3612 10.1709 14.947L8.6709 14.947ZM8.6709 11.7891L8.6709 14.947L10.1709 14.947L10.1709 11.7891L8.6709 11.7891Z" />
<path d="M15.8006 15.8001L14.2008 14.2003M18.6003 17H21M17.0004 18.5998V20.9995M18.5989 16.9986C18.5989 17.8822 17.8827 18.5984 16.9991 18.5984C16.1156 18.5984 15.3993 17.8822 15.3993 16.9986C15.3993 16.1151 16.1156 15.3988 16.9991 15.3988C17.8827 15.3988 18.5989 16.1151 18.5989 16.9986ZM20.9991 16.9991C20.9991 19.208 19.2084 20.9986 16.9996 20.9986C14.7907 20.9986 13 19.208 13 16.9991C13 14.7902 14.7907 12.9995 16.9996 12.9995C19.2084 12.9995 20.9991 14.7902 20.9991 16.9991Z" stroke='white' stroke-width="1.5" stroke-linecap="round"/>
</svg>