<svg width="22" height="22" viewBox="0 0 22 22" fill="none" xmlns="http://www.w3.org/2000/svg">
<path d="M14.0767 1V8.69231C14.0767 8.89632 13.9957 9.09198 13.8514 9.23624C13.7071 9.38049 13.5115 9.46154 13.3075 9.46154H8.69208C8.48807 9.46154 8.29241 9.38049 8.14815 9.23624C8.0039 9.09198 7.92285 8.89632 7.92285 8.69231V1M13.3076 17.1538H17.1538M2.53846 1H19.4615C20.3112 1 21 1.68879 21 2.53846V19.4615C21 20.3112 20.3112 21 19.4615 21H2.53846C1.68879 21 1 20.3112 1 19.4615V2.53846C1 1.68879 1.68879 1 2.53846 1Z" />
</svg>
