<svg width="25" height="15" viewBox="0 0 25 15" fill="none" xmlns="http://www.w3.org/2000/svg">
<path fill-rule="evenodd" clip-rule="evenodd" d="M5.72936 8.82322C6.9029 8.82322 7.93161 8.20319 8.50581 7.27286C9.07394 7.96401 9.84634 8.48089 10.7307 8.73118H8.97558C8.04121 8.73118 7.21568 9.19717 6.71872 9.90943H2.75C1.23122 9.90943 0 11.1407 0 12.6594V14.1734C0 14.5876 0.335786 14.9234 0.75 14.9234C1.16421 14.9234 1.5 14.5876 1.5 14.1734V12.6594C1.5 11.9691 2.05964 11.4094 2.75 11.4094H6.2265C6.22589 11.4333 6.22558 11.4572 6.22558 11.4812V13.6182C6.22558 14.0324 6.56137 14.3682 6.97558 14.3682C7.3898 14.3682 7.72558 14.0324 7.72558 13.6182V11.4812C7.72558 10.7908 8.28523 10.2312 8.97558 10.2312H14.9891C15.6794 10.2312 16.2391 10.7908 16.2391 11.4812V13.6182C16.2391 14.0324 16.5749 14.3682 16.9891 14.3682C17.4033 14.3682 17.7391 14.0324 17.7391 13.6182V11.4812C17.7391 11.4572 17.7388 11.4333 17.7381 11.4094H21.3999C22.0903 11.4094 22.6499 11.9691 22.6499 12.6594V14.1734C22.6499 14.5876 22.9857 14.9234 23.3999 14.9234C23.8141 14.9234 24.1499 14.5876 24.1499 14.1734V12.6594C24.1499 11.1407 22.9187 9.90943 21.3999 9.90943H17.2459C16.749 9.19717 15.9234 8.73118 14.9891 8.73118H13.1592C14.1171 8.46009 14.9436 7.87626 15.5214 7.09698C16.0702 8.12423 17.153 8.82322 18.399 8.82322C20.1996 8.82322 21.6593 7.36352 21.6593 5.56289C21.6593 3.76227 20.1996 2.30257 18.399 2.30257C17.5531 2.30257 16.7824 2.62477 16.2029 3.15313C15.648 1.32782 13.9516 -0.000488281 11.9449 -0.000488281C9.99673 -0.000488281 8.34095 1.25156 7.73835 2.9949C7.18469 2.56116 6.48722 2.30257 5.72936 2.30257C3.92874 2.30257 2.46904 3.76227 2.46904 5.56289C2.46904 7.36352 3.92874 8.82322 5.72936 8.82322ZM11.9449 1.49951C10.3159 1.49951 8.99527 2.82013 8.99527 4.44919C8.99527 6.07825 10.3159 7.39887 11.9449 7.39887C13.574 7.39887 14.8946 6.07825 14.8946 4.44919C14.8946 2.82013 13.574 1.49951 11.9449 1.49951ZM3.96904 5.56289C3.96904 4.5907 4.75716 3.80257 5.72936 3.80257C6.70156 3.80257 7.48968 4.5907 7.48968 5.56289C7.48968 6.53509 6.70156 7.32322 5.72936 7.32322C4.75716 7.32322 3.96904 6.53509 3.96904 5.56289ZM16.6387 5.56289C16.6387 4.5907 17.4268 3.80257 18.399 3.80257C19.3712 3.80257 20.1593 4.5907 20.1593 5.56289C20.1593 6.53509 19.3712 7.32322 18.399 7.32322C17.4268 7.32322 16.6387 6.53509 16.6387 5.56289Z" />
</svg>