<svg width="22" height="22" viewBox="0 0 22 22" fill="none" xmlns="http://www.w3.org/2000/svg">
<path d="M3.17999 22H2.06393C1.67663 21.8472 1.52374 21.5669 1.53394 21.144C1.55432 20.2983 1.53903 19.4576 1.53903 18.6119C1.53903 18.5405 1.53903 18.4743 1.53903 18.3724C1.29442 18.3724 1.07528 18.3571 0.85615 18.3724C0.468844 18.3979 0.173268 18.2756 0 17.9138V16.6707C0.163076 16.314 0.443363 16.1765 0.825573 16.2019C1.0549 16.2172 1.28932 16.2019 1.52884 16.2019V10.1593C1.29951 10.1593 1.08038 10.144 0.861246 10.1593C0.47394 10.1899 0.178365 10.0676 0 9.71098V8.46781C0.152884 8.10607 0.433171 7.96341 0.820477 7.99398C1.0549 8.00926 1.28423 7.99398 1.53903 7.99398C1.53903 7.88189 1.53903 7.80037 1.53903 7.71376C1.53903 5.42103 1.54413 3.1283 1.53903 0.835572C1.53903 0.422881 1.68682 0.152849 2.06903 0.00509495H3.18508C3.57239 0.163038 3.70998 0.448356 3.70998 0.866142C3.69979 3.15377 3.70489 5.4465 3.70489 7.73414V7.97869H4.82604C4.82604 7.89208 4.82604 7.81566 4.82604 7.73923C4.82604 7.25521 4.82604 6.7661 4.82604 6.28207C4.82604 6.03752 4.95854 5.88976 5.15729 5.88976C5.35094 5.88976 5.46815 6.03242 5.46815 6.27189C5.46815 6.7661 5.46815 7.26031 5.46815 7.75452C5.46815 7.83094 5.46815 7.90736 5.46815 7.97869H10.6662C10.6662 7.45901 10.6662 6.94951 10.6662 6.44511C10.6662 5.5484 10.6662 4.65679 10.6662 3.76007C10.6662 3.60723 10.6407 3.44419 10.4624 3.434C10.0852 3.41362 9.71323 3.4289 9.32592 3.4289C9.32592 3.97406 9.32592 4.49375 9.32592 5.01343C9.32592 5.43631 9.10169 5.56878 8.73477 5.37008C8.51564 5.2478 8.2965 5.044 8.07227 5.044C7.85314 5.044 7.62891 5.2478 7.40978 5.37008C7.03776 5.57388 6.82372 5.4465 6.82372 5.01853C6.82372 4.5447 6.82372 4.07596 6.82372 3.60213C6.82372 3.45947 6.77785 3.41362 6.64026 3.41871C6.37016 3.4289 6.09497 3.41871 5.82488 3.41871C5.55478 3.41871 5.47325 3.50533 5.46815 3.78555C5.46815 4.1371 5.46815 4.48865 5.46815 4.83511C5.46815 5.09495 5.35603 5.23251 5.15729 5.23761C4.95344 5.23761 4.82604 5.08476 4.82604 4.82492C4.82604 4.46827 4.82604 4.11163 4.82604 3.74988C4.82604 3.16396 5.20315 2.77165 5.78921 2.77165C7.31295 2.77165 8.83669 2.77165 10.3604 2.77165C10.9414 2.77165 11.3083 3.14868 11.3083 3.7295C11.3083 3.9333 11.3083 4.1371 11.3083 4.36637C11.4204 4.36637 11.5071 4.36637 11.5886 4.36637C13.1123 4.36637 14.6361 4.36637 16.1598 4.36637C16.7816 4.36637 17.1434 4.72812 17.1434 5.35479C17.1434 6.14961 17.1434 6.94442 17.1434 7.73923C17.1434 7.81566 17.1434 7.89208 17.1434 7.9736H18.2951V7.70866C18.2951 5.42612 18.3002 3.14358 18.29 0.861047C18.29 0.443261 18.4276 0.157943 18.8149 0H19.9768C20.354 0.188513 20.4661 0.489115 20.4661 0.906901C20.4508 3.17415 20.461 5.44141 20.461 7.70866V7.98888C20.7209 7.98888 20.9502 8.00417 21.1795 7.98888C21.5668 7.95831 21.842 8.10097 22 8.46271V9.66512C21.8624 10.0269 21.5974 10.1797 21.2152 10.1542C20.9706 10.139 20.7209 10.1542 20.4763 10.1542V16.1969C20.7107 16.1969 20.9349 16.2121 21.154 16.1969C21.5464 16.1663 21.8318 16.3038 22 16.6656V17.868C21.8675 18.245 21.5872 18.3877 21.1999 18.3673C21.0215 18.3571 20.8432 18.3724 20.6648 18.3673C20.5068 18.3571 20.4559 18.4081 20.4559 18.5711C20.4661 19.427 20.4457 20.283 20.4661 21.139C20.4763 21.5567 20.3234 21.837 19.9361 21.9898H18.82C18.4378 21.8319 18.2849 21.5466 18.2951 21.1288C18.3155 20.2932 18.3002 19.4525 18.3002 18.617C18.3002 18.5405 18.3002 18.4641 18.3002 18.3622C18.1932 18.3622 18.1066 18.3622 18.025 18.3622C16.6032 18.3622 15.1763 18.3622 13.7545 18.3622C13.6525 18.3622 13.5506 18.3622 13.4538 18.3418C13.3009 18.3062 13.2296 18.1941 13.2296 18.0412C13.2296 17.8884 13.306 17.7814 13.4538 17.7406C13.5302 17.7202 13.6118 17.7202 13.6882 17.7202C15.1355 17.7202 16.5777 17.7202 18.025 17.7202C18.1167 17.7202 18.2034 17.7101 18.2849 17.7101V16.8592H3.70489V17.7253C3.80171 17.7253 3.89344 17.7253 3.98517 17.7253C6.67593 17.7253 9.36669 17.7253 12.0574 17.7253C12.4091 17.7253 12.5671 17.8272 12.5671 18.0412C12.5671 18.2603 12.4091 18.3673 12.0625 18.3673C9.37179 18.3673 6.68103 18.3673 3.99027 18.3673C3.89854 18.3673 3.80681 18.3673 3.6896 18.3673C3.6896 18.4692 3.6896 18.5456 3.6896 18.622C3.6896 19.4576 3.67431 20.2983 3.6947 21.1339C3.70489 21.5516 3.5571 21.837 3.16979 21.9949L3.17999 22ZM3.71508 10.1797V16.1918H4.82094C4.82094 16.1051 4.82094 16.0338 4.82094 15.9625C4.82094 14.6378 4.82094 13.3131 4.82094 11.9935C4.82094 11.377 5.19296 10.9847 5.7943 10.9847C7.30276 10.9847 8.81631 10.9847 10.3248 10.9847C10.9312 10.9847 11.2981 11.3566 11.3032 11.9629C11.3032 12.1616 11.3032 12.3604 11.3032 12.5794C11.4153 12.5794 11.502 12.5794 11.5835 12.5794C13.092 12.5794 14.6055 12.5794 16.114 12.5794C16.7765 12.5794 17.1383 12.9361 17.1434 13.5933C17.1434 14.3881 17.1434 15.183 17.1434 15.9778C17.1434 16.0542 17.1434 16.1306 17.1434 16.2019H18.2849V10.1899H3.70998L3.71508 10.1797ZM9.32082 11.6216C9.32082 11.7184 9.32082 11.7897 9.32082 11.861C9.32082 12.3196 9.32082 12.7781 9.32082 13.2367C9.32082 13.6494 9.09659 13.7818 8.74496 13.5882C8.58189 13.4965 8.41371 13.4201 8.26083 13.3182C8.11814 13.2214 8.01112 13.2367 7.87352 13.3233C7.70535 13.4303 7.52699 13.522 7.34862 13.6188C7.06324 13.7717 6.82882 13.6392 6.82372 13.3131C6.81862 12.8342 6.82372 12.3553 6.82372 11.8763C6.82372 11.7999 6.81862 11.7235 6.81353 11.6267C6.49757 11.6267 6.20709 11.6267 5.91661 11.6267C5.54459 11.6267 5.47325 11.698 5.47325 12.0597C5.47325 13.3692 5.47325 14.6786 5.47325 15.988C5.47325 16.0593 5.47834 16.1255 5.48344 16.2019H10.6662C10.6662 14.755 10.6662 13.3284 10.6662 11.8967C10.6662 11.7184 10.5541 11.6369 10.391 11.6318C10.0496 11.6216 9.70813 11.6318 9.32592 11.6318L9.32082 11.6216ZM2.20153 0.672534V21.3377H3.03729V0.672534H2.20153ZM18.9525 0.672534V21.3377H19.7934V0.672534H18.9525ZM18.2798 8.66651H3.70998V9.50718H18.2798V8.66651ZM11.3134 16.1969H16.4962C16.4962 15.2747 16.5013 14.3678 16.486 13.4609C16.486 13.3844 16.3535 13.2469 16.277 13.2418C15.9101 13.2163 15.5381 13.2316 15.1559 13.2316C15.1559 13.8022 15.1559 14.3525 15.1559 14.9027C15.1559 15.2237 14.9164 15.3664 14.631 15.2135C14.4475 15.1167 14.2641 15.0199 14.0908 14.9078C13.9583 14.8212 13.8513 14.8263 13.7188 14.9078C13.5455 15.0199 13.3621 15.1167 13.1786 15.2135C12.8983 15.3613 12.6741 15.2288 12.6588 14.918C12.6537 14.7957 12.6588 14.6735 12.6588 14.5512C12.6588 14.1181 12.6588 13.6799 12.6588 13.2367H11.3134V16.1969ZM12.6588 5.044H11.3185V7.98888H16.4962C16.4962 7.08198 16.5013 6.18527 16.486 5.29365C16.486 5.20704 16.3586 5.05419 16.2821 5.0491C15.9152 5.02362 15.5432 5.03891 15.1559 5.03891C15.1559 5.14081 15.1559 5.21723 15.1559 5.29365C15.1559 5.76749 15.1559 6.23622 15.1559 6.71005C15.1559 7.03103 14.9113 7.1686 14.6259 7.01575C14.4577 6.92404 14.2845 6.83742 14.1214 6.73043C13.9736 6.62853 13.8462 6.62344 13.6933 6.72534C13.5302 6.83742 13.3468 6.92913 13.1684 7.02084C12.8881 7.1686 12.6588 7.03613 12.6537 6.72534C12.6435 6.27698 12.6537 5.82353 12.6537 5.37517C12.6537 5.26818 12.6537 5.16628 12.6537 5.0491L12.6588 5.044ZM13.3162 14.434C13.7239 14.0264 14.1163 14.0824 14.5036 14.4085V13.2367H13.3162V14.434ZM8.66852 11.6318H7.48112V12.8495C7.88372 12.4113 8.27612 12.503 8.66852 12.8189V11.6318ZM13.3162 6.24132C13.7188 5.83881 14.1163 5.88976 14.5036 6.22094V5.05419H13.3162V6.24641V6.24132ZM7.48622 3.44928V4.6415C7.89391 4.239 8.28121 4.30523 8.66852 4.62622V3.44928H7.48622ZM0.657401 17.7151H1.52374V16.8694H0.657401V17.7151ZM21.3273 17.7202V16.8694H20.4661V17.7202H21.3273ZM20.4661 8.66142V9.50718H21.3273V8.66142H20.4661ZM1.52374 9.51227V8.66651H0.662497V9.51227H1.52374Z"/>
</svg>
