<svg width="14" height="18" viewBox="0 0 14 18" fill="none" xmlns="http://www.w3.org/2000/svg">
<path d="M5.2892 18.001C5.23621 17.9803 5.18321 17.9601 5.13021 17.9385C4.80236 17.8051 4.61323 17.4867 4.67714 17.1776C4.74469 16.8517 5.04188 16.6004 5.40611 16.5981C6.46864 16.591 7.5317 16.591 8.59424 16.5981C8.95846 16.6004 9.25514 16.8512 9.3232 17.1776C9.38763 17.4867 9.1985 17.8047 8.87013 17.9385C8.81765 17.9601 8.76466 17.9803 8.71166 18.001C7.57067 18.001 6.42968 18.001 5.2892 18.001Z" fill="#344051"/>
<path d="M6.2234 1.44145C6.2234 1.20661 6.22184 0.973177 6.22392 0.739746C6.22756 0.311868 6.55749 -0.000469151 7.00225 5.29002e-07C7.44753 0.000470209 7.77486 0.311868 7.77902 0.741625C7.78109 0.975055 7.77954 1.20849 7.77954 1.44051C8.04504 1.49922 8.29807 1.54525 8.54435 1.61147C10.8424 2.22722 12.4256 4.11721 12.4438 6.28197C12.4557 7.69946 12.4505 9.11742 12.4438 10.5354C12.4422 10.8754 12.5622 11.114 12.9041 11.2991C13.7994 11.7838 14.1968 12.7556 13.9105 13.662C13.6295 14.5526 12.7186 15.1852 11.6868 15.1866C8.56306 15.1908 5.43936 15.1908 2.31567 15.1866C1.27963 15.1852 0.353743 14.5356 0.0871998 13.6437C-0.189215 12.7199 0.225927 11.7612 1.13467 11.2794C1.44174 11.1164 1.55968 10.8928 1.55916 10.5861C1.55604 9.186 1.55656 7.78588 1.55812 6.38577C1.56072 4.14398 3.09347 2.26808 5.46222 1.61147C5.70071 1.54431 5.94907 1.50157 6.2234 1.44145ZM6.99861 13.7813C8.54747 13.7813 10.0963 13.7823 11.6457 13.7804C12.0234 13.7799 12.3139 13.5808 12.4136 13.2675C12.5124 12.9566 12.3814 12.6447 12.0505 12.4714C11.241 12.0478 10.8908 11.4005 10.8908 10.5758C10.8908 9.1874 10.8944 7.79856 10.8871 6.41019C10.8856 6.15421 10.8617 5.89448 10.8107 5.64226C10.4356 3.78468 8.35107 2.50527 6.30809 2.87068C4.39865 3.21214 3.11425 4.62494 3.11218 6.38811C3.11062 7.81171 3.12101 9.23531 3.10802 10.6589C3.10075 11.4334 2.74587 12.0478 1.98885 12.4507C1.89013 12.5033 1.79245 12.571 1.72335 12.6518C1.5337 12.8734 1.49681 13.1228 1.6345 13.3779C1.78206 13.6517 2.03561 13.7809 2.37126 13.7813C3.91388 13.7813 5.45651 13.7813 6.99861 13.7813Z" fill="#344051"/>
</svg>
