<svg width="85" height="87" viewBox="0 0 85 87" fill="none" xmlns="http://www.w3.org/2000/svg">
<g filter="url(#filter0_d_1317_6076)">
<rect x="16" y="11" width="53" height="54.3766" rx="16" fill="url(#paint0_linear_1317_6076)"/>
</g>
<path d="M48.2972 33.46C47.9453 33.3877 47.5867 33.3523 47.2273 33.3544C46.4811 33.3525 45.7429 33.5066 45.061 33.8067C44.3792 34.1068 43.7691 34.546 43.2707 35.0957C42.7497 34.5216 42.1079 34.0674 41.3904 33.765C40.673 33.4627 39.8974 33.3196 39.1181 33.3457C38.3388 33.3719 37.5748 33.5667 36.8797 33.9164C36.1846 34.2661 35.5754 34.7623 35.0948 35.3701C34.6143 35.9778 34.2741 36.6824 34.0982 37.4342C33.9223 38.1861 33.9149 38.9669 34.0766 39.7218C34.2383 40.4768 34.5651 41.1875 35.0341 41.8041C35.5031 42.4206 36.1029 42.928 36.7912 43.2905V48.723C35.8406 48.4918 34.9283 48.1271 34.0823 47.6397C32.4957 46.7312 31.1785 45.4258 30.2626 43.8544C29.3467 42.283 28.8645 40.5008 28.8643 38.6867V23.1963L34.085 29.7526C36.4694 28.3897 39.3014 28.0145 41.964 28.709C44.6265 29.4034 46.9039 31.1111 48.2999 33.46H48.2972Z" fill="white"/>
<path d="M57.6688 38.6975C57.6679 40.3939 57.2452 42.064 56.4381 43.5605C55.631 45.057 54.4642 46.334 53.0407 47.2788C51.6172 48.2237 49.9807 48.8074 48.2754 48.9785C46.5701 49.1496 44.8485 48.9028 43.2624 48.2599C42.8349 48.0848 42.4198 47.8812 42.0202 47.6505L36.8021 54.196V43.2905C37.5748 43.7026 38.439 43.9176 39.3167 43.916C40.0638 43.9171 40.8027 43.7629 41.4857 43.4634C42.1687 43.1639 42.7805 42.7258 43.2816 42.1774C43.8474 42.796 44.5532 43.2731 45.3413 43.5696C46.1294 43.8661 46.9772 43.9735 47.8154 43.8831C48.6535 43.7927 49.458 43.507 50.1631 43.0495C50.8681 42.5919 51.4535 41.9755 51.8714 41.2508C52.2893 40.5261 52.5277 39.7137 52.5671 38.8802C52.6065 38.0467 52.4458 37.2158 52.0981 36.4557C51.7504 35.6955 51.2257 35.0277 50.5669 34.507C49.9081 33.9863 49.134 33.6275 48.3081 33.46C47.1493 31.5165 45.3817 30 43.2734 29.1406C44.8591 28.4993 46.5799 28.2535 48.2841 28.4249C49.9884 28.5963 51.624 29.1797 53.047 30.1237C54.4699 31.0676 55.6367 32.3433 56.4445 33.8384C57.2524 35.3334 57.6766 37.0021 57.6798 38.6975H57.6688Z" fill="white"/>
<path d="M47.4927 41.0536C47.4188 41.0536 47.3422 41.0536 47.2683 41.0536C45.4323 40.9453 44.2584 39.4937 44.2146 39.4287C44.0695 39.2491 44.0024 39.0199 44.028 38.7913C44.0537 38.5628 44.17 38.3537 44.3514 38.2101C44.5329 38.0664 44.7645 38 44.9954 38.0254C45.2264 38.0508 45.4376 38.1659 45.5828 38.3455C45.6047 38.3698 46.3462 39.2527 47.3778 39.3096C48.0618 39.3475 48.7979 38.9954 49.5312 38.2696C49.6956 38.107 49.9185 38.0156 50.151 38.0156C50.3834 38.0156 50.6064 38.107 50.7707 38.2696C50.9351 38.4323 51.0274 38.653 51.0274 38.883C51.0274 39.1131 50.9351 39.3337 50.7707 39.4964C49.7501 40.5336 48.6446 41.0536 47.4927 41.0536Z" fill="white"/>
<path d="M39.3797 41.0536C39.3058 41.0536 39.2292 41.0536 39.1553 41.0536C37.3193 40.9453 36.1454 39.4937 36.1017 39.4287C35.9565 39.2491 35.8894 39.0199 35.915 38.7913C35.9407 38.5628 36.057 38.3537 36.2385 38.2101C36.4199 38.0664 36.6515 38 36.8825 38.0254C37.1134 38.0508 37.3246 38.1659 37.4698 38.3455C37.4917 38.3698 38.2332 39.2527 39.2648 39.3096C39.9516 39.3475 40.6849 38.9954 41.4182 38.2696C41.5826 38.107 41.8055 38.0156 42.038 38.0156C42.2704 38.0156 42.4934 38.107 42.6577 38.2696C42.8221 38.4323 42.9145 38.653 42.9145 38.883C42.9145 39.1131 42.8221 39.3337 42.6577 39.4964C41.6262 40.5336 40.5207 41.0536 39.3797 41.0536Z" fill="white"/>
<defs>
<filter id="filter0_d_1317_6076" x="0" y="0" width="85" height="86.377" filterUnits="userSpaceOnUse" color-interpolation-filters="sRGB">
<feFlood flood-opacity="0" result="BackgroundImageFix"/>
<feColorMatrix in="SourceAlpha" type="matrix" values="0 0 0 0 0 0 0 0 0 0 0 0 0 0 0 0 0 0 127 0" result="hardAlpha"/>
<feOffset dy="5"/>
<feGaussianBlur stdDeviation="8"/>
<feComposite in2="hardAlpha" operator="out"/>
<feColorMatrix type="matrix" values="0 0 0 0 0 0 0 0 0 0 0 0 0 0 0 0 0 0 0.09 0"/>
<feBlend mode="normal" in2="BackgroundImageFix" result="effect1_dropShadow_1317_6076"/>
<feBlend mode="normal" in="SourceGraphic" in2="effect1_dropShadow_1317_6076" result="shape"/>
</filter>
<linearGradient id="paint0_linear_1317_6076" x1="41.1467" y1="86.7913" x2="90.9767" y2="41.8526" gradientUnits="userSpaceOnUse">
<stop stop-color="#007FFF"/>
<stop offset="1" stop-color="#0072E6"/>
</linearGradient>
</defs>
</svg>
