<svg width="67" height="12" viewBox="0 0 67 12" fill="none" xmlns="http://www.w3.org/2000/svg">
<path d="M7.22365 5.07722L8.62222 0.520508H12.4267V11.2272H10.0057V8.08416C10.0057 6.09024 10.0359 4.3647 10.0964 2.91132C9.90551 3.64274 9.66548 4.45542 9.37443 5.34749L7.52415 11.2272H5.44897L3.59869 5.34749C3.37756 4.63497 3.1432 3.82795 2.89184 2.92644C2.94098 4.6104 2.96744 6.33027 2.96744 8.08416V11.2272H0.546387V0.520508H4.35089L5.76459 5.12258C5.95548 5.77462 6.20117 6.66102 6.50168 7.78366C6.74171 6.83111 6.98362 5.9296 7.22365 5.07722Z" fill="#2C71F5"/>
<path d="M21.5383 7.57167V8.03849H15.7947C15.8741 8.56957 16.0706 8.97592 16.3806 9.25563C16.6906 9.53724 17.0875 9.67709 17.5694 9.67709C18.331 9.67709 18.8527 9.38604 19.1324 8.80582H21.3569C21.1471 9.60716 20.7011 10.2422 20.0188 10.7071C19.3365 11.1739 18.52 11.4064 17.5675 11.4064C16.3655 11.4064 15.3921 11.036 14.6513 10.2932C13.9085 9.55236 13.5381 8.56957 13.5381 7.34676C13.5381 6.12395 13.9047 5.13172 14.6362 4.4003C15.3581 3.65943 16.3258 3.28711 17.5373 3.28711C18.7487 3.28711 19.7126 3.67266 20.4535 4.44566C21.1755 5.22811 21.5364 6.26948 21.5364 7.57356L21.5383 7.57167ZM17.5089 5.01643C16.5469 5.01643 15.9799 5.52861 15.8098 6.55108H19.2382C19.1589 6.06914 18.968 5.69304 18.6675 5.42277C18.367 5.15251 17.9814 5.01643 17.5089 5.01643Z" fill="#2C71F5"/>
<path d="M27.9737 4.40061V0.520508H30.3191V11.2272H28.0342V10.2198C27.5125 11.0117 26.7358 11.4086 25.7038 11.4086C24.6719 11.4086 23.8384 11.042 23.2374 10.3105C22.6251 9.57913 22.3208 8.59067 22.3208 7.34896C22.3208 6.10725 22.627 5.1188 23.2374 4.38738C23.8384 3.65597 24.6606 3.28931 25.7038 3.28931C26.6866 3.28931 27.4426 3.65975 27.9737 4.4025V4.40061ZM26.3502 9.5281C27.4634 9.5281 28.0191 8.80235 28.0191 7.34707C28.0191 5.8918 27.4634 5.16605 26.3502 5.16605C25.8286 5.16605 25.4222 5.35883 25.1331 5.74438C24.842 6.12993 24.6965 6.6837 24.6965 7.40566C24.6965 8.81936 25.2484 9.52621 26.3502 9.52621V9.5281Z" fill="#2C71F5"/>
<path d="M33.5378 11.2272H31.9294V0.520508H33.5378V11.2272Z" fill="#2866DC"/>
<path d="M39.1907 3.28711C40.043 3.28711 40.7102 3.52525 41.1902 4.00152C41.6722 4.47779 41.9122 5.15251 41.9122 6.02378V11.2269H40.4078V6.23546C40.4078 5.15251 39.8616 4.61198 38.7692 4.61198C38.2683 4.61198 37.8166 4.80286 37.416 5.18275C37.0153 5.57397 36.815 6.12962 36.815 6.85159V11.2269H35.3105V3.46855H36.7545V4.6271C37.346 3.73503 38.1587 3.289 39.1907 3.289V3.28711Z" fill="#2866DC"/>
<path d="M49.3096 4.51968V0.520508H50.814V11.2272H49.37V10.0837C48.7879 10.9664 47.9318 11.4067 46.7997 11.4067C45.6676 11.4067 44.8549 11.0401 44.2142 10.3087C43.5716 9.57724 43.2522 8.58878 43.2522 7.34707C43.2522 6.10537 43.5735 5.11691 44.2142 4.38549C44.8549 3.65408 45.7186 3.28742 46.7997 3.28742C47.8807 3.28742 48.7293 3.69943 49.3114 4.51968H49.3096ZM45.4294 9.40714C45.8396 9.87774 46.3914 10.114 47.0832 10.114C47.7749 10.114 48.3513 9.86829 48.752 9.3769C49.1527 8.9063 49.353 8.22969 49.353 7.34707C49.353 6.46446 49.1527 5.79352 48.752 5.30213C48.3513 4.82019 47.7938 4.58016 47.0832 4.58016C46.3725 4.58016 45.8396 4.83153 45.4294 5.33237C45.0174 5.83321 44.8133 6.52494 44.8133 7.40755C44.8133 8.29017 45.0193 8.93654 45.4294 9.40714Z" fill="#2866DC"/>
<path d="M59.5192 7.4073V7.84389H53.6697C53.7397 8.60554 53.9646 9.18009 54.3464 9.56565C54.7281 9.9512 55.2441 10.144 55.8942 10.144C56.877 10.144 57.5177 9.71307 57.8182 8.85124H59.3378C59.128 9.64314 58.7179 10.2668 58.1131 10.7242C57.5064 11.1797 56.758 11.4084 55.8659 11.4084C54.7527 11.4084 53.8569 11.0379 53.1746 10.2952C52.4923 9.55431 52.1521 8.57152 52.1521 7.34871C52.1521 6.1259 52.4923 5.14312 53.1746 4.40225C53.8569 3.66139 54.7432 3.28906 55.8356 3.28906C56.928 3.28906 57.8806 3.67462 58.5421 4.44761C59.1941 5.21872 59.5192 6.20717 59.5192 7.40919V7.4073ZM55.8356 4.54967C55.2441 4.54967 54.7603 4.72922 54.3841 5.0902C54.008 5.45119 53.7756 5.97282 53.6849 6.65321H57.9694C57.8995 6.02196 57.6765 5.51356 57.3004 5.12611C56.9243 4.74056 56.4367 4.54778 55.8338 4.54778L55.8356 4.54967Z" fill="#2866DC"/>
<path d="M66.8577 3.4668L64.0908 7.24106L67.007 11.2251H65.2626L64.9016 10.7129L63.2176 8.33725C63.1571 8.41852 62.902 8.77383 62.4503 9.40508C61.9098 10.1667 61.5979 10.6071 61.5185 10.7281L61.1576 11.2251H59.4434L62.3596 7.24106L59.5927 3.4668H61.3371L61.8625 4.18876C62.0534 4.44958 62.3067 4.80868 62.6223 5.26416C62.9379 5.71964 63.1458 6.01826 63.246 6.15811C63.5257 5.74799 63.9868 5.09028 64.6294 4.18876L65.1416 3.4668H66.8558H66.8577Z" fill="#2866DC"/>
</svg>
