<svg width="299" height="183" viewBox="0 0 299 183" fill="none" xmlns="http://www.w3.org/2000/svg">
<path d="M283.059 180.568C274.993 180.568 31.109 180.568 17.7471 180.568C17.7471 106.555 77.0931 46.6387 150.403 46.6387C223.713 46.6387 283.059 106.555 283.059 180.568Z" fill="#2C71F6" fill-opacity="0.04"/>
<path d="M183.629 143.751C185.555 143.751 187.361 143.629 189.046 143.751C194.463 144.115 197.473 147.275 197.834 152.501C198.195 158.213 195.065 162.831 190.13 163.804C189.167 164.047 188.083 164.047 187.12 164.047C157.868 164.047 128.496 164.047 99.2447 164.047C98.7632 164.047 98.2816 164.168 97.9205 163.925C97.5594 163.682 97.1982 163.074 97.1982 162.71C97.1982 162.345 97.6798 161.859 98.0409 161.616C98.2816 161.373 98.7632 161.494 99.2447 161.494C128.496 161.494 157.868 161.494 187.12 161.494C192.898 161.494 196.51 156.998 195.185 151.286C194.463 148.004 192.176 146.303 188.565 146.303C181.222 146.303 173.999 146.303 166.656 146.303C149.924 146.303 133.311 146.303 116.579 146.303C115.134 146.303 114.533 145.817 114.171 144.48C109.717 127.951 105.143 111.423 100.689 94.8942C100.087 92.8282 100.448 92.342 102.495 92.342C119.468 92.342 136.562 92.342 153.535 92.342C162.924 92.342 172.314 92.342 181.583 92.342C186.518 92.342 191.333 92.342 196.389 92.342C197.473 88.5745 198.676 84.807 199.76 81.0394C201.445 75.4489 203.13 69.9799 204.695 64.3894C205.056 63.174 205.538 62.6879 206.742 62.4448C211.918 61.4726 217.094 60.5003 222.27 59.528C223.113 59.4065 224.076 59.285 224.196 60.3788C224.437 61.4726 223.594 61.7156 222.752 61.9587C218.057 62.8094 213.362 63.7817 208.547 64.6324C207.464 64.8755 206.982 65.2401 206.742 66.3339C202.167 81.6471 197.593 96.8387 192.898 112.03C189.889 122.118 186.879 132.083 183.75 142.171C183.87 142.657 183.75 143.021 183.629 143.751ZM150.285 118.35C150.525 118.472 150.766 118.472 150.887 118.472C157.387 118.472 163.887 118.472 170.267 118.472C171.471 118.472 172.073 117.986 172.193 116.77C172.193 116.041 172.434 115.312 172.554 114.583C172.916 112.152 173.397 109.721 173.758 107.169C165.813 107.169 157.989 107.169 150.164 107.169C150.285 110.937 150.285 114.583 150.285 118.35ZM150.285 95.0158C150.285 98.2971 150.285 101.335 150.285 104.495C150.285 105.346 150.766 105.468 151.488 105.468C157.748 105.468 164.128 105.468 170.388 105.346C171.712 105.346 173.397 105.589 174.119 104.981C174.962 104.252 174.842 102.551 175.082 101.214C175.444 99.1479 175.805 97.2034 176.166 94.8942C167.378 95.0158 158.831 95.0158 150.285 95.0158ZM123.922 94.8942C124.524 98.4187 125.126 101.579 125.728 104.738C125.848 105.103 126.45 105.468 126.811 105.468C133.673 105.468 140.654 105.468 147.516 105.468C148.479 105.468 148.72 105.103 148.72 104.131C148.72 101.457 148.599 98.7833 148.72 96.2311C148.72 95.1373 148.359 94.8942 147.275 94.8942C140.895 94.8942 134.395 94.8942 128.015 94.8942C126.811 94.8942 125.487 94.8942 123.922 94.8942ZM148.84 107.048C141.256 107.048 133.793 107.048 126.209 107.048C126.811 110.694 127.413 114.218 128.135 117.742C128.135 117.986 128.737 118.472 128.978 118.472C135.358 118.472 141.617 118.472 147.997 118.472C148.238 118.472 148.84 117.986 148.84 117.621C148.84 114.218 148.84 110.694 148.84 107.048ZM150.405 120.052C150.405 123.941 150.405 127.708 150.405 131.476C156.665 131.476 162.924 131.476 169.064 131.476C169.304 131.476 169.786 130.99 169.906 130.747C170.147 129.531 170.388 128.316 170.628 127.101C170.99 124.791 171.351 122.482 171.712 120.173C164.489 120.052 157.387 120.052 150.405 120.052ZM128.376 120.052C128.978 123.698 129.58 127.344 130.302 130.868C130.302 131.111 131.024 131.476 131.385 131.476C136.802 131.476 142.219 131.476 147.636 131.476C148.599 131.476 148.72 131.111 148.72 130.26C148.72 128.073 148.72 125.885 148.72 123.819C148.72 122.604 148.72 121.267 148.72 120.052C141.858 120.052 135.237 120.052 128.376 120.052ZM106.708 107.048C106.828 107.534 106.828 107.898 106.949 108.384C107.791 111.423 108.634 114.461 109.356 117.499C109.597 118.472 109.958 118.715 110.921 118.593C115.736 118.593 120.551 118.593 125.367 118.593C125.728 118.593 126.089 118.593 126.45 118.472C126.45 118.229 126.57 118.107 126.45 117.864C125.848 114.461 125.246 111.18 124.765 107.777C124.644 106.926 124.163 106.926 123.561 106.926C118.264 106.926 112.968 106.926 107.671 106.804C107.31 106.926 107.069 106.926 106.708 107.048ZM103.217 94.7727C104.18 98.1756 105.023 101.214 105.745 104.374C105.986 105.346 106.347 105.589 107.31 105.589C111.282 105.589 115.255 105.589 119.227 105.589C120.792 105.589 122.477 105.589 124.283 105.589C123.681 102.186 123.079 99.0264 122.598 95.988C122.477 95.1373 122.116 94.8942 121.274 94.8942C118.144 94.8942 115.014 94.8942 112.005 94.8942C109.236 94.7727 106.347 94.7727 103.217 94.7727ZM150.285 143.386C150.525 143.508 150.646 143.508 150.766 143.508C156.183 143.508 161.48 143.508 166.897 143.508C167.258 143.508 167.739 143.021 167.739 142.657C167.98 141.563 168.221 140.348 168.341 139.132C168.702 137.188 169.064 135.122 169.425 133.056C162.924 133.056 156.665 133.056 150.285 133.056C150.285 136.58 150.285 139.983 150.285 143.386ZM110.199 120.052C110.199 120.416 110.199 120.538 110.319 120.781C111.282 124.184 112.125 127.465 113.088 130.868C113.329 131.719 113.81 131.719 114.412 131.719C117.903 131.719 121.274 131.719 124.765 131.719C126.089 131.719 127.413 131.719 128.617 131.719C128.737 131.476 128.737 131.354 128.737 131.354C128.135 127.83 127.533 124.427 126.931 120.902C126.931 120.659 126.33 120.173 126.089 120.173C120.913 120.052 115.616 120.052 110.199 120.052ZM176.045 105.103C176.407 105.225 176.527 105.346 176.768 105.346C181.703 105.346 186.759 105.468 191.694 105.468C191.935 105.468 192.537 105.225 192.537 104.86C193.621 101.579 194.584 98.2971 195.547 95.0158C195.306 94.8942 195.065 94.8942 194.945 94.8942C189.528 94.8942 183.99 94.8942 178.573 95.0158C178.212 95.0158 177.731 95.3804 177.61 95.745C177.129 98.7833 176.527 101.943 176.045 105.103ZM130.663 133.056C131.265 136.459 131.747 139.618 132.469 142.778C132.589 143.143 133.191 143.508 133.552 143.508C138.247 143.508 142.942 143.508 147.757 143.508C148.599 143.508 148.84 143.264 148.84 142.414C148.84 140.348 148.84 138.282 148.84 136.216C148.84 135.122 148.84 134.149 148.84 133.056C142.701 133.056 136.802 133.056 130.663 133.056ZM173.638 118.593C178.573 118.593 183.148 118.593 187.842 118.593C188.204 118.593 188.685 118.107 188.805 117.742C189.407 116.163 189.768 114.583 190.25 113.003C190.852 111.058 191.333 109.114 191.935 107.169C186.639 107.169 181.583 107.169 176.407 107.169C176.045 107.169 175.564 107.534 175.564 107.898C174.962 111.301 174.36 114.704 173.638 118.593ZM187.963 120.173C187.722 120.052 187.722 120.052 187.602 120.052C183.148 120.052 178.694 120.052 174.24 120.052C173.397 120.052 173.277 120.659 173.156 121.267C172.675 124.062 172.193 126.857 171.712 129.653C171.591 130.139 171.591 130.747 171.471 131.354C171.832 131.476 171.953 131.476 172.073 131.476C175.925 131.597 179.897 131.597 183.75 131.597C184.111 131.597 184.592 131.111 184.713 130.747C185.314 129.167 185.676 127.587 186.157 125.885C186.879 124.062 187.361 122.118 187.963 120.173ZM131.024 143.629C130.422 140.226 129.821 136.945 129.219 133.785C129.219 133.542 128.617 133.177 128.376 133.177C123.561 133.177 118.866 133.177 114.051 133.177C113.931 133.177 113.931 133.299 113.81 133.42C114.653 136.702 115.616 139.862 116.579 143.143C116.699 143.386 117.061 143.751 117.301 143.751C121.755 143.629 126.209 143.629 131.024 143.629ZM184.111 133.056C183.629 133.056 183.388 132.934 183.148 132.934C180.018 132.934 176.888 133.056 173.758 133.056C171.23 133.056 171.11 133.056 170.628 135.608C170.147 138.16 169.665 140.712 169.184 143.386C172.916 143.386 176.407 143.386 180.018 143.386C180.379 143.386 180.861 142.9 180.981 142.535C182.064 139.497 183.148 136.337 184.111 133.056Z" fill="#2C71F6" fill-opacity="0.3"/>
<path d="M171.95 178.139C168.219 176.073 166.774 173.521 167.617 170.361C168.339 167.444 170.867 165.621 173.876 165.743C176.645 165.864 179.053 167.809 179.655 170.604C180.256 173.764 178.812 176.438 175.441 178.139C175.923 178.139 176.284 178.139 176.765 178.139C211.555 178.139 246.344 178.139 281.133 178.139C282.216 178.139 283.42 178.139 284.503 178.139C286.068 178.139 286.79 178.99 286.79 180.448C286.79 181.907 286.068 182.636 284.503 182.758C281.253 182.758 278.123 182.758 274.873 182.758C188.201 182.758 101.65 182.758 14.9783 182.758C14.4967 182.758 14.0152 182.758 13.5337 182.758C12.3299 182.636 11.6077 181.785 11.4873 180.57C11.4873 179.233 12.2096 178.261 13.4133 178.261C14.4967 178.139 15.4598 178.261 16.5432 178.261C50.4896 178.261 84.436 178.261 118.262 178.261C118.623 178.261 118.864 178.261 119.466 178.261C115.373 175.709 114.049 173.278 115.132 169.997C116.095 167.201 118.503 165.621 121.633 165.743C124.161 165.864 126.568 168.052 127.05 170.726C127.652 173.886 126.087 176.438 122.475 178.139C139.328 178.139 155.579 178.139 171.95 178.139ZM124.883 172.063C124.883 170.118 123.198 168.295 121.271 168.295C119.345 168.295 117.66 169.875 117.66 171.941C117.66 174.007 119.225 175.709 121.271 175.709C123.198 175.709 124.883 174.007 124.883 172.063ZM177.367 171.941C177.367 169.997 175.682 168.174 173.636 168.295C171.71 168.295 170.024 169.997 170.024 171.941C170.024 174.007 171.71 175.709 173.636 175.709C175.682 175.709 177.367 174.007 177.367 171.941Z" fill="#2C71F6" fill-opacity="0.3"/>
<path d="M294.376 182.878C293.774 182.878 293.292 182.878 292.69 182.878C291.126 182.878 290.403 182.148 290.403 180.69C290.403 179.11 291.126 178.381 292.69 178.381C293.894 178.381 295.098 178.381 296.181 178.381C297.626 178.381 298.348 179.232 298.348 180.69C298.348 182.148 297.626 182.878 296.181 182.999C295.58 182.878 294.978 182.878 294.376 182.878Z" fill="#2C71F6" fill-opacity="0.3"/>
<path d="M109.118 143.138C108.757 143.259 108.396 143.502 108.035 143.502C107.673 143.381 107.312 143.016 107.192 142.773C106.59 140.829 106.109 138.884 105.507 136.94C104.182 132.321 102.979 127.581 101.655 122.963C101.655 122.842 101.534 122.842 101.534 122.72C101.655 122.234 101.775 121.748 101.895 121.262C102.256 121.626 102.738 121.869 102.858 122.234C103.46 124.179 103.942 126.123 104.544 128.068C105.868 132.686 107.072 137.304 108.396 141.922C108.516 142.165 108.516 142.409 108.636 142.652C108.757 142.773 108.998 142.895 109.118 143.138Z" fill="#2C71F6" fill-opacity="0.3"/>
<path d="M4.02981 182.882C3.5483 182.882 2.94641 182.882 2.4649 182.882C0.899999 182.882 0.177734 182.031 0.177734 180.573C0.177734 179.114 0.899999 178.264 2.4649 178.264C3.66868 178.264 4.87245 178.264 6.07623 178.264C7.40038 178.385 8.24302 179.236 8.24302 180.573C8.24302 181.91 7.40038 182.76 6.07623 182.76C5.35396 182.882 4.75208 182.882 4.02981 182.882Z" fill="#2C71F6" fill-opacity="0.3"/>
<path d="M93.5959 110.449C93.8366 110.692 94.1978 110.935 94.1978 111.3C95.2812 115.067 96.3646 118.957 97.3276 122.724C97.448 123.089 96.9665 123.453 96.8461 123.818C96.6053 123.575 96.1238 123.332 96.0034 123.089C94.92 119.321 93.8366 115.554 92.8736 111.786C92.7533 111.421 92.994 110.935 93.1144 110.449C93.3551 110.449 93.4755 110.449 93.5959 110.449Z" fill="#2C71F6" fill-opacity="0.3"/>
<path d="M30.9891 165.501C30.9891 167.202 29.7853 168.539 28.1 168.539C26.5351 168.539 25.2109 167.202 25.2109 165.622C25.2109 163.921 26.4147 162.706 28.1 162.706C29.7853 162.584 30.9891 163.799 30.9891 165.501ZM28.1 167.202C28.9426 167.202 29.7853 166.352 29.7853 165.501C29.6649 164.529 29.1834 163.921 28.2204 163.921C27.2574 163.799 26.5351 164.65 26.5351 165.501C26.4147 166.473 27.2574 167.202 28.1 167.202Z" fill="#2C71F6" fill-opacity="0.3"/>
<path d="M228.658 96.8348C228.658 95.1333 229.862 93.918 231.547 93.918C233.233 93.918 234.557 95.2548 234.557 96.9563C234.557 98.5362 233.233 99.8731 231.547 99.8731C229.982 99.7516 228.658 98.5362 228.658 96.8348ZM233.233 96.8348C233.233 95.8625 232.51 95.1333 231.547 95.1333C230.584 95.1333 229.982 95.741 229.862 96.7132C229.742 97.564 230.584 98.4147 231.427 98.4147C232.51 98.5362 233.233 97.807 233.233 96.8348Z" fill="#2C71F6" fill-opacity="0.3"/>
<path d="M86.7263 21.1156C86.7263 22.6955 85.6429 23.7893 84.078 23.6678C82.6335 23.6678 81.4297 22.4524 81.4297 20.994C81.4297 19.5356 82.6335 18.3203 84.1984 18.3203C85.6429 18.4418 86.7263 19.5356 86.7263 21.1156ZM85.8836 21.1156C85.8836 20.1433 85.041 19.2926 84.078 19.2926C82.9946 19.2926 82.1519 20.1433 82.1519 21.1156C82.1519 22.0878 82.9946 22.9386 83.9576 22.9386C85.041 22.9386 85.8836 22.0878 85.8836 21.1156Z" fill="#2C71F6" fill-opacity="0.3"/>
<path d="M99.9699 132.205C99.8495 132.448 99.6087 132.813 99.4884 132.813C99.1272 132.813 98.6457 132.57 98.6457 132.327C98.0438 130.26 97.4419 128.316 96.9604 126.25C96.8401 126.007 97.2012 125.521 97.4419 125.399C97.5623 125.278 98.1642 125.642 98.1642 125.885C98.8865 127.83 99.368 130.017 99.9699 132.205Z" fill="#2C71F6" fill-opacity="0.3"/>
<path d="M186.392 47.3749C185.67 47.3749 185.189 47.4964 184.827 47.4964C184.587 47.4964 184.466 47.1318 184.226 47.0103C184.346 46.8887 184.587 46.6457 184.827 46.5241C185.911 46.2811 187.115 45.9165 188.198 45.7949C188.439 45.7949 188.68 45.9165 188.92 46.038C188.8 46.2811 188.8 46.6457 188.68 46.6457C187.355 46.8887 187.476 47.9825 187.235 48.9548C187.235 49.1979 187.235 49.4409 187.115 49.684C186.874 50.1701 186.633 50.5347 186.272 51.0209C186.152 50.5347 186.031 50.0486 186.152 49.4409C186.031 48.8333 186.272 48.2256 186.392 47.3749Z" fill="#2C71F6" fill-opacity="0.3"/>
<path d="M181.709 64.2635C180.866 65.4788 180.144 66.6941 179.301 67.9095C179.301 68.031 178.82 67.9095 178.699 67.7879C178.579 67.6664 178.579 67.3018 178.579 67.1803C179.181 66.0865 179.903 64.8711 180.626 63.7773C180.746 63.6558 180.987 63.5343 181.227 63.6558C181.348 63.7773 181.468 64.0204 181.709 64.2635Z" fill="#2C71F6" fill-opacity="0.3"/>
<path d="M183.264 59.8917C183.143 59.6486 182.903 59.4056 183.023 59.1625C183.384 57.9472 183.866 56.7318 184.347 55.5165C184.347 55.395 184.708 55.2734 184.829 55.2734C184.949 55.2734 185.19 55.638 185.19 55.638C184.708 56.9749 184.227 58.3118 183.745 59.6486C183.745 59.7702 183.505 59.7702 183.264 59.8917Z" fill="#2C71F6" fill-opacity="0.3"/>
<path d="M212.045 171.336C211.323 170.971 210.239 170.728 210.239 170.485C210.36 169.391 211.323 169.877 212.045 169.877C212.647 169.877 213.128 170.242 213.73 170.363C213.249 170.728 212.647 170.971 212.045 171.336Z" fill="#2C71F6" fill-opacity="0.3"/>
<path d="M209.511 173.642C209.511 173.763 209.511 173.885 209.511 174.006C209.27 174.371 209.15 174.857 208.909 175.222C208.668 174.857 208.427 174.371 208.307 174.006C208.187 173.52 208.187 173.034 208.307 172.548C208.427 172.183 208.668 171.94 208.909 171.697C209.15 171.94 209.39 172.305 209.511 172.548C209.631 172.913 209.511 173.277 209.511 173.642Z" fill="#2C71F6" fill-opacity="0.3"/>
<path d="M209.875 167.444C209.514 168.173 209.273 169.146 209.033 169.146C207.949 169.024 208.431 168.052 208.431 167.444C208.431 166.836 208.792 166.229 208.912 165.621C209.153 166.229 209.514 166.715 209.875 167.444Z" fill="#2C71F6" fill-opacity="0.3"/>
<path d="M196.028 40.3158C195.907 40.5588 195.907 40.6804 195.787 40.8019C195.065 41.6526 194.222 42.6249 193.38 43.4756C193.259 43.5972 192.898 43.5972 192.537 43.5972C192.537 43.3541 192.417 42.9895 192.657 42.7464C193.5 41.7742 194.343 40.9234 195.185 40.0727C195.306 39.9512 195.546 39.9512 195.787 39.9512C195.787 39.9512 195.907 40.1942 196.028 40.3158Z" fill="#2C71F6" fill-opacity="0.3"/>
<path d="M205.903 169.629C206.625 169.994 207.107 170.237 207.709 170.48C207.107 170.723 206.625 171.087 206.023 171.087C205.422 171.087 204.82 170.723 204.218 170.601C204.699 170.237 205.301 169.872 205.903 169.629Z" fill="#2C71F6" fill-opacity="0.3"/>
<path d="M178.817 42.7481C178.817 42.262 178.817 42.1405 178.817 42.0189C179.058 41.5328 179.299 41.0467 179.419 40.5605C179.54 41.0467 179.66 41.5328 179.66 42.0189C179.78 42.7481 180.021 43.4773 180.142 44.2065C180.142 44.5711 180.142 44.9357 180.142 45.1788C179.901 44.9357 179.419 44.8142 179.299 44.5711C179.058 43.8419 178.938 43.1127 178.817 42.7481Z" fill="#2C71F6" fill-opacity="0.3"/>
<path d="M183.755 38.375C184.718 38.375 186.885 40.198 187.005 41.1703C187.005 41.4133 186.885 41.7779 186.885 41.7779C186.644 41.7779 186.403 41.7779 186.283 41.6564C185.44 40.9272 184.598 40.0765 183.755 39.3473C183.635 39.2257 183.514 38.9827 183.514 38.7396C183.394 38.4965 183.635 38.4965 183.755 38.375Z" fill="#2C71F6" fill-opacity="0.3"/>
<path d="M47.6016 47.4902C46.5182 48.9486 45.6756 50.164 44.7125 51.3793C44.3514 50.164 45.9163 47.9764 47.6016 47.4902Z" fill="#2C71F6" fill-opacity="0.3"/>
<path d="M73.9701 67.1816C74.2109 68.5185 72.7663 70.8276 71.0811 71.1922C72.1645 69.7338 72.8867 68.64 73.9701 67.1816Z" fill="#2C71F6" fill-opacity="0.3"/>
<path d="M44.5993 68.281C43.7567 67.0657 43.1548 65.7288 42.9141 64.2704C43.0344 64.1489 43.2752 64.1489 43.3956 64.0273C43.9975 65.3642 44.5993 66.7011 45.2012 68.0379C44.9605 68.1595 44.8401 68.1595 44.5993 68.281Z" fill="#2C71F6" fill-opacity="0.3"/>
<path d="M68.9101 81.0364C67.4655 80.7934 66.2618 78.7273 66.5025 76.9043C67.3452 78.3627 68.0674 79.578 68.9101 81.0364Z" fill="#2C71F6" fill-opacity="0.3"/>
<path d="M86.4805 78.7259C86.8416 77.389 87.2027 76.0522 87.5639 74.5938C88.4065 75.323 87.925 77.9967 86.4805 78.7259Z" fill="#2C71F6" fill-opacity="0.3"/>
<path d="M84.0728 81.8809C83.9524 82.367 83.9524 82.7316 83.832 82.8531C82.869 83.4608 81.906 83.9469 80.8226 84.5546C80.7022 84.6761 80.4615 84.4331 80.2207 84.4331C80.2207 84.19 80.2207 83.9469 80.3411 83.8254C81.6652 83.2177 82.7486 82.6101 84.0728 81.8809Z" fill="#2C71F6" fill-opacity="0.3"/>
<path d="M54.5882 43.3656C53.2641 43.9732 51.9399 44.5809 50.375 45.1886C50.9769 43.8517 53.2641 42.7579 54.5882 43.3656Z" fill="#2C71F6" fill-opacity="0.3"/>
<path d="M47.8496 71.4355C49.0534 72.2863 50.1368 73.137 51.5813 74.1093C50.1368 74.3523 48.2107 73.0155 47.8496 71.4355Z" fill="#2C71F6" fill-opacity="0.3"/>
<path d="M84.8027 66.457C86.3676 66.9432 87.451 68.8877 87.0899 70.4676C86.3676 69.2523 85.6454 68.037 84.8027 66.457Z" fill="#2C71F6" fill-opacity="0.3"/>
<path d="M218.657 152.861C219.74 153.347 221.305 155.292 221.185 156.629C220.102 155.292 219.259 154.32 218.296 153.226C218.416 153.104 218.537 152.983 218.657 152.861Z" fill="#2C71F6" fill-opacity="0.3"/>
<path d="M251.046 119.562C249.843 118.833 248.639 118.226 247.194 117.375C248.518 117.01 250.445 117.983 251.167 119.076C251.167 119.198 251.046 119.319 251.046 119.562Z" fill="#2C71F6" fill-opacity="0.3"/>
<path d="M251.648 158.33C250.926 159.667 249.601 160.032 248.277 160.882C248.277 159.91 249.722 158.816 251.648 158.33Z" fill="#2C71F6" fill-opacity="0.3"/>
<path d="M63.9756 75.4441C65.2997 74.8364 66.6239 74.2288 67.948 73.6211C68.0684 73.7426 68.0684 73.8642 68.1888 74.1072C67.2258 75.201 65.7812 75.5656 64.3367 76.0518C64.096 75.8087 63.9756 75.5656 63.9756 75.4441Z" fill="#2C71F6" fill-opacity="0.3"/>
<path d="M70.8398 47.371C69.5157 46.3987 68.4323 45.548 67.2285 44.5757C68.5527 44.3326 70.7195 45.9126 70.8398 47.371Z" fill="#2C71F6" fill-opacity="0.3"/>
<path d="M59.0435 41.9043C60.488 42.0258 61.9325 42.2689 63.2567 42.3904C63.2567 42.6335 63.2567 42.8766 63.1363 42.9981C61.6918 42.8766 60.2473 42.755 58.8027 42.6335C58.9231 42.3904 59.0435 42.1474 59.0435 41.9043Z" fill="#2C71F6" fill-opacity="0.3"/>
<path d="M224.438 158.33C225.882 159.181 227.086 159.788 228.53 160.639C227.086 161.004 224.919 159.788 224.438 158.33Z" fill="#2C71F6" fill-opacity="0.3"/>
<path d="M257.301 152.252C257.422 153.346 256.098 155.169 254.773 155.776C254.773 154.926 255.977 153.224 257.301 152.252Z" fill="#2C71F6" fill-opacity="0.3"/>
<path d="M261.157 145.084C260.675 146.421 260.314 147.637 259.712 149.217C259.11 148.244 259.833 145.571 260.796 144.963C260.916 144.963 261.036 144.963 261.157 145.084Z" fill="#2C71F6" fill-opacity="0.3"/>
<path d="M69.9941 65.7188C70.2349 64.3819 72.1609 63.2881 73.9666 63.4096C72.4017 64.2604 71.1979 64.9896 69.9941 65.7188Z" fill="#2C71F6" fill-opacity="0.3"/>
<path d="M235.515 115.432C234.191 115.675 232.867 116.04 231.302 116.283C231.904 115.189 233.95 114.703 235.395 114.946C235.515 115.189 235.515 115.311 235.515 115.432Z" fill="#2C71F6" fill-opacity="0.3"/>
<path d="M67.3516 69.0078C66.9905 70.3447 66.6294 71.6815 66.1478 73.2615C65.4256 72.0461 66.0275 69.737 67.3516 69.0078Z" fill="#2C71F6" fill-opacity="0.3"/>
<path d="M59.6429 76.0584C58.6799 76.9091 56.3927 76.6661 55.4297 75.5723C56.8742 75.8153 58.1984 75.9369 59.6429 76.0584Z" fill="#2C71F6" fill-opacity="0.3"/>
<path d="M214.565 132.934C215.047 131.597 215.528 130.382 215.89 129.045C216.13 129.166 216.371 129.166 216.612 129.288C216.13 130.625 215.769 131.84 215.288 133.177C215.047 133.056 214.806 132.934 214.565 132.934Z" fill="#2C71F6" fill-opacity="0.3"/>
<path d="M43.1464 55.3906C43.026 56.849 42.7853 58.3074 42.6649 60.0089C41.8223 58.672 42.063 56.3629 43.1464 55.3906Z" fill="#2C71F6" fill-opacity="0.3"/>
<path d="M75.1726 54.5442C74.5707 53.2074 73.9688 51.992 73.4873 50.6552C73.6077 50.5336 73.7281 50.5336 73.9688 50.4121C74.9318 51.5059 75.4133 52.8428 75.7745 54.3012C75.5337 54.4227 75.293 54.5442 75.1726 54.5442Z" fill="#2C71F6" fill-opacity="0.3"/>
<path d="M261.155 140.71C261.155 139.373 261.034 138.158 261.034 136.821C261.034 136.7 261.275 136.578 261.395 136.578C261.516 136.578 261.756 136.821 261.756 136.821C261.756 138.037 261.756 139.373 261.756 140.589C261.636 140.71 261.395 140.71 261.155 140.71Z" fill="#2C71F6" fill-opacity="0.3"/>
<path d="M231.896 161.732C233.461 161.975 234.786 162.219 236.23 162.462C235.267 163.434 232.498 162.948 231.896 161.732Z" fill="#2C71F6" fill-opacity="0.3"/>
<path d="M217.939 125.15C218.782 124.056 219.625 123.084 220.588 121.99C220.829 122.112 220.949 122.355 221.19 122.476C220.347 123.57 219.504 124.664 218.662 125.636C218.421 125.515 218.18 125.393 217.939 125.15Z" fill="#2C71F6" fill-opacity="0.3"/>
<path d="M215.286 145.326C215.767 146.663 216.249 147.878 216.851 149.458C215.647 148.851 214.804 146.906 214.925 145.448C215.045 145.448 215.165 145.326 215.286 145.326Z" fill="#2C71F6" fill-opacity="0.3"/>
<path d="M77.8157 62.6905C79.2602 62.569 80.5844 63.0551 81.9085 63.7843C81.9085 63.9058 81.7881 64.1489 81.7881 64.2704C80.464 63.9058 79.0195 63.5412 77.6953 63.1766C77.6953 62.9336 77.8157 62.812 77.8157 62.6905Z" fill="#2C71F6" fill-opacity="0.3"/>
<path d="M214.573 136.943C214.573 138.645 214.573 139.982 214.573 141.319C213.61 140.589 213.489 138.159 214.573 136.943Z" fill="#2C71F6" fill-opacity="0.3"/>
<path d="M239.968 162.462C241.533 162.219 242.857 161.975 244.181 161.732C243.218 162.948 241.051 163.191 239.968 162.462Z" fill="#2C71F6" fill-opacity="0.3"/>
<path d="M224.195 119.804C224.436 118.467 226.482 117.252 227.686 117.616C226.603 118.467 225.399 119.075 224.195 119.804Z" fill="#2C71F6" fill-opacity="0.3"/>
<path d="M254.179 122.117C255.503 121.996 256.947 123.697 256.947 125.156C255.984 124.184 255.021 123.211 254.179 122.117Z" fill="#2C71F6" fill-opacity="0.3"/>
<path d="M243.575 116.162C242.251 115.919 240.926 115.675 239.241 115.432C240.565 114.582 242.853 114.946 243.575 116.162Z" fill="#2C71F6" fill-opacity="0.3"/>
<path d="M259.113 128.555C260.317 129.527 260.678 130.864 260.678 132.322C259.595 131.35 259.474 130.013 259.113 128.555Z" fill="#2C71F6" fill-opacity="0.3"/>
<path d="M83.3613 144.118C83.1205 144.118 82.8797 144.24 82.7594 144.118C82.5186 143.997 82.2779 143.753 82.0371 143.632C82.2779 143.51 82.5186 143.267 82.8797 143.146C83.1205 143.024 83.3613 143.024 83.4816 143.146C83.9631 143.267 84.4447 143.51 84.9262 143.632C84.4447 143.875 83.9631 144.118 83.4816 144.361C83.4816 144.24 83.4816 144.118 83.3613 144.118Z" fill="#2C71F6" fill-opacity="0.3"/>
<path d="M78.3088 144.118C77.9477 144.118 77.7069 144.24 77.3458 144.118C77.105 144.118 76.9846 143.753 76.8643 143.632C76.9846 143.51 77.2254 143.267 77.3458 143.146C77.5865 143.024 77.9477 143.024 78.3088 143.146C78.7903 143.267 79.2718 143.389 79.7533 143.632C79.2718 143.875 78.7903 144.118 78.4292 144.483C78.4292 144.24 78.4292 144.118 78.3088 144.118Z" fill="#2C71F6" fill-opacity="0.3"/>
<path d="M169.187 16.0094C169.066 16.0094 168.946 16.0094 168.946 16.0094C168.585 15.8878 168.224 15.6448 167.742 15.5232C168.103 15.4017 168.585 15.1586 168.946 15.0371C169.066 15.0371 169.066 15.0371 169.187 15.0371C169.668 15.1586 170.15 15.2802 170.631 15.4017C170.15 15.6448 169.668 15.8878 169.187 16.1309C169.307 16.1309 169.187 16.0094 169.187 16.0094Z" fill="#2C71F6" fill-opacity="0.3"/>
<path d="M75.4053 63.4073C75.5257 61.9489 75.7664 60.4905 75.8868 58.7891C76.7294 59.8829 76.609 62.192 75.4053 63.4073Z" fill="#2C71F6" fill-opacity="0.3"/>
<path d="M81.4215 146.175C81.4215 146.54 81.5418 146.783 81.4215 147.147C81.4215 147.391 81.0603 147.512 80.94 147.634C80.8196 147.512 80.5788 147.269 80.4584 147.147C80.3381 146.904 80.3381 146.54 80.4584 146.175C80.5788 145.689 80.6992 145.203 80.94 144.717C81.1807 145.203 81.4215 145.689 81.6622 146.175C81.5418 146.054 81.5418 146.175 81.4215 146.175Z" fill="#2C71F6" fill-opacity="0.3"/>
<path d="M174.36 16.1309C173.879 15.8878 173.397 15.6448 173.036 15.5232C173.518 15.4017 173.999 15.1586 174.481 15.0371C174.601 15.0371 174.842 15.0371 174.962 15.0371C175.323 15.1586 175.684 15.4017 175.925 15.5232C175.564 15.6448 175.323 15.8878 174.962 16.0094C174.842 16.0094 174.601 16.0094 174.481 16.0094L174.36 16.1309Z" fill="#2C71F6" fill-opacity="0.3"/>
<path d="M29.5488 84.9287C29.308 84.9287 29.0673 85.0502 28.9469 84.9287C28.7061 84.8071 28.4654 84.5641 28.2246 84.4425C28.4654 84.321 28.7061 84.0779 29.0673 83.9564C29.4284 83.8349 29.9099 83.8349 30.3914 83.9564C30.6322 83.9564 30.8729 84.1995 31.234 84.4425C30.9933 84.5641 30.7525 84.8071 30.5118 84.9287C30.0303 85.0502 29.7895 84.9287 29.5488 84.9287Z" fill="#2C71F6" fill-opacity="0.3"/>
<path d="M24.4999 84.9243C24.2592 84.9243 24.0184 85.0458 23.898 84.9243C23.6573 84.8028 23.4165 84.5597 23.1758 84.4381C23.4165 84.3166 23.6573 84.0735 23.898 84.0735C24.1388 83.952 24.3796 84.0735 24.4999 84.0735C24.9814 84.1951 25.463 84.3166 25.9445 84.4381C25.463 84.6812 24.9814 84.9243 24.4999 85.1673C24.4999 85.0458 24.4999 85.0458 24.4999 84.9243Z" fill="#2C71F6" fill-opacity="0.3"/>
<path d="M71.9124 83.7078C72.9958 83.4647 75.2829 84.3154 75.6441 85.4092C74.1995 84.9231 72.9958 84.5585 71.792 84.1939C71.9124 84.0724 71.9124 83.8293 71.9124 83.7078Z" fill="#2C71F6" fill-opacity="0.3"/>
<path d="M81.4215 141.074C81.4215 141.438 81.4215 141.681 81.4215 142.046C81.4215 142.289 81.1807 142.411 80.94 142.532C80.8196 142.411 80.4584 142.167 80.4584 142.046C80.3381 141.56 80.3381 140.952 80.4584 140.466C80.4584 140.101 80.8196 139.858 80.94 139.615C81.0603 139.858 81.3011 140.101 81.4215 140.466C81.4215 140.587 81.4215 140.831 81.4215 141.074Z" fill="#2C71F6" fill-opacity="0.3"/>
<path d="M26.5376 81.7666C26.5376 81.5235 26.5376 81.2804 26.5376 81.1589C26.658 80.9158 26.7784 80.6728 26.8988 80.4297C27.0191 80.6728 27.2599 80.9158 27.3803 81.1589C27.5006 81.402 27.5006 81.645 27.3803 81.7666C27.2599 82.2527 27.1395 82.7388 27.0191 83.3465C26.7784 82.8604 26.5376 82.3742 26.2969 81.8881C26.4173 81.8881 26.5376 81.8881 26.5376 81.7666Z" fill="#2C71F6" fill-opacity="0.3"/>
<path d="M172.316 18.2015C172.316 18.323 172.316 18.5661 172.316 18.6876C172.195 19.0522 171.954 19.2953 171.834 19.5383C171.714 19.2953 171.473 19.0522 171.353 18.6876C171.353 18.5661 171.353 18.323 171.353 18.2015C171.473 17.5938 171.714 17.1077 171.834 16.5C172.075 16.9861 172.316 17.4723 172.436 18.0799C172.436 18.2015 172.436 18.2015 172.316 18.2015Z" fill="#2C71F6" fill-opacity="0.3"/>
<path d="M27.4962 86.9881C27.4962 87.1097 27.4962 87.3527 27.4962 87.4743C27.3758 87.8389 27.1351 88.0819 27.0147 88.325C26.8943 87.9604 26.6536 87.7173 26.5332 87.3527C26.5332 87.2312 26.5332 87.1097 26.5332 86.9881C26.6536 86.502 26.8943 85.8943 27.0147 85.4082C27.2555 85.8943 27.3758 86.3805 27.6166 86.8666C27.6166 86.9881 27.6166 86.9881 27.4962 86.9881Z" fill="#2C71F6" fill-opacity="0.3"/>
<path d="M172.556 12.8553C172.316 13.463 172.075 13.8276 171.834 14.3137C171.714 13.8276 171.353 13.3415 171.353 12.8553C171.353 12.3692 171.593 11.7615 171.834 11.2754C172.075 11.8831 172.316 12.3692 172.556 12.8553Z" fill="#2C71F6" fill-opacity="0.3"/>
<path d="M287.999 128.196C287.758 128.196 287.517 128.196 287.397 128.196C287.156 128.074 286.916 127.953 286.675 127.831C286.916 127.71 287.036 127.467 287.277 127.345C287.517 127.224 287.758 127.224 287.879 127.345C288.36 127.467 288.962 127.588 289.443 127.831C288.962 128.074 288.48 128.317 287.999 128.56C288.119 128.317 287.999 128.317 287.999 128.196Z" fill="#2C71F6" fill-opacity="0.3"/>
<path d="M282.941 128.196C282.701 128.196 282.46 128.196 282.219 128.196C281.978 128.196 281.858 127.953 281.617 127.831C281.858 127.71 281.978 127.345 282.219 127.345C282.701 127.224 283.182 127.224 283.664 127.345C283.904 127.345 284.145 127.588 284.386 127.831C284.145 127.953 283.904 128.196 283.543 128.196C283.423 128.196 283.182 128.196 282.941 128.196Z" fill="#2C71F6" fill-opacity="0.3"/>
<path d="M285.109 131.954C285.109 130.982 285.109 130.131 285.109 129.402C285.109 129.281 285.23 129.038 285.471 128.916C285.591 128.916 285.832 128.916 285.952 129.038C286.313 129.524 285.952 131.347 285.109 131.954Z" fill="#2C71F6" fill-opacity="0.3"/>
<path d="M285.109 123.576C285.952 124.184 286.313 126.128 285.832 126.493C285.711 126.615 285.109 126.371 285.109 126.25C285.109 125.399 285.109 124.548 285.109 123.576Z" fill="#2C71F6" fill-opacity="0.3"/>
<path d="M121.276 169.514C122.6 169.514 123.683 170.607 123.683 171.944C123.683 173.403 122.6 174.375 121.155 174.375C119.711 174.375 118.868 173.281 118.868 171.823C118.868 170.486 119.952 169.514 121.276 169.514ZM122.72 172.066C121.998 171.58 121.637 171.094 121.276 171.094C120.915 171.094 120.313 171.701 120.433 171.944C120.433 172.309 120.915 172.917 121.276 172.917C121.516 172.917 121.998 172.43 122.72 172.066Z" fill="#2C71F6" fill-opacity="0.3"/>
<path d="M173.644 174.375C172.32 174.375 171.236 173.403 171.236 171.944C171.236 170.607 172.32 169.514 173.644 169.514C175.088 169.514 176.172 170.607 176.172 172.066C176.051 173.403 175.088 174.375 173.644 174.375ZM173.644 170.486C173.283 171.215 172.801 171.701 172.801 172.066C172.922 172.43 173.403 172.795 173.885 172.917C174.125 172.917 174.607 172.309 174.607 171.944C174.607 171.58 174.125 171.215 173.644 170.486Z" fill="#2C71F6" fill-opacity="0.3"/>
<path d="M189.544 32.7812C190.507 33.1458 191.831 34.8473 191.711 36.0626C190.748 34.9688 190.025 33.9966 189.183 33.1458C189.303 33.0243 189.423 32.9028 189.544 32.7812Z" fill="#2C71F6" fill-opacity="0.3"/>
<path d="M217.596 3.97947C216.513 3.37181 215.549 2.76414 214.346 2.15647C215.429 1.79187 217.114 2.64261 217.837 3.61487C217.716 3.73641 217.596 3.85794 217.596 3.97947Z" fill="#2C71F6" fill-opacity="0.3"/>
<path d="M218.073 37.5234C217.471 38.7388 216.267 38.9818 215.184 39.711C215.184 38.9818 216.508 38.0096 218.073 37.5234Z" fill="#2C71F6" fill-opacity="0.3"/>
<path d="M194.486 37.5234C195.81 38.2526 196.773 38.8603 198.098 39.468C196.894 39.8326 194.968 38.7388 194.486 37.5234Z" fill="#2C71F6" fill-opacity="0.3"/>
<path d="M223.009 32.2852C223.129 33.2574 221.925 34.8374 220.842 35.3235C220.842 34.5943 221.925 33.1359 223.009 32.2852Z" fill="#2C71F6" fill-opacity="0.3"/>
<path d="M226.374 25.9731C226.013 27.0669 225.652 28.2822 225.17 29.4976C224.569 28.6468 225.291 26.3377 226.013 25.8516C226.134 25.9731 226.254 25.9731 226.374 25.9731Z" fill="#2C71F6" fill-opacity="0.3"/>
<path d="M204.105 0.445332C202.902 0.688399 201.818 0.931466 200.494 1.17453C200.976 0.202266 202.781 -0.162334 204.105 0.0807325C204.105 0.202266 204.105 0.323799 204.105 0.445332Z" fill="#2C71F6" fill-opacity="0.3"/>
<path d="M185.94 15.524C186.302 14.4302 186.783 13.3364 187.144 12.1211C187.385 12.2426 187.505 12.2426 187.746 12.3642C187.385 13.458 187.024 14.5518 186.542 15.7671C186.422 15.6456 186.181 15.6456 185.94 15.524Z" fill="#2C71F6" fill-opacity="0.3"/>
<path d="M226.374 22.3335C226.374 21.2397 226.254 20.1459 226.254 18.9306C226.254 18.809 226.495 18.6875 226.615 18.6875C226.735 18.6875 226.976 18.809 226.976 18.9306C226.976 20.0244 226.976 21.1182 226.976 22.212C226.735 22.3335 226.495 22.3335 226.374 22.3335Z" fill="#2C71F6" fill-opacity="0.3"/>
<path d="M200.981 40.4336C202.306 40.6767 203.509 40.9197 204.713 41.0413C203.87 41.892 201.583 41.5274 200.981 40.4336Z" fill="#2C71F6" fill-opacity="0.3"/>
<path d="M188.942 8.84019C189.665 7.86792 190.387 7.01719 191.23 6.04492C191.35 6.16646 191.591 6.28799 191.711 6.40952C190.989 7.38179 190.267 8.23252 189.544 9.20479C189.304 9.08325 189.063 8.96172 188.942 8.84019Z" fill="#2C71F6" fill-opacity="0.3"/>
<path d="M186.659 26.209C187.141 27.3028 187.502 28.5181 187.984 29.855C186.9 29.3689 186.178 27.5458 186.298 26.452C186.419 26.3305 186.539 26.3305 186.659 26.209Z" fill="#2C71F6" fill-opacity="0.3"/>
<path d="M185.933 19.0488C185.933 20.5072 185.933 21.601 185.933 22.9379C185.09 22.2087 185.09 20.0211 185.933 19.0488Z" fill="#2C71F6" fill-opacity="0.3"/>
<path d="M207.969 41.0413C209.413 40.7982 210.497 40.5551 211.7 40.4336C210.858 41.5274 208.932 41.7705 207.969 41.0413Z" fill="#2C71F6" fill-opacity="0.3"/>
<path d="M194.355 4.22092C194.596 3.00559 196.282 2.03333 197.365 2.39793C196.402 3.00559 195.318 3.61326 194.355 4.22092Z" fill="#2C71F6" fill-opacity="0.3"/>
<path d="M220.249 6.16142C221.332 6.03988 222.657 7.49828 222.657 8.71361C221.814 7.98441 221.092 7.01215 220.249 6.16142Z" fill="#2C71F6" fill-opacity="0.3"/>
<path d="M211.21 0.938962C210.006 0.695895 208.923 0.574362 207.479 0.331295C208.562 -0.276371 210.488 -0.0333046 211.21 0.938962Z" fill="#2C71F6" fill-opacity="0.3"/>
<path d="M224.574 11.7559C225.537 12.6066 225.898 13.8219 225.898 15.0373C225.056 14.1865 224.815 12.9712 224.574 11.7559Z" fill="#2C71F6" fill-opacity="0.3"/>
<path d="M203.618 22.0828C203.618 21.5967 203.738 21.1106 203.979 20.746C204.22 20.3814 204.581 20.0168 204.942 19.6522C205.303 19.2876 205.664 19.0445 206.146 18.8014C206.627 18.5584 206.989 18.3153 207.35 18.0722C208.072 17.7076 208.674 17.343 209.035 16.9784C209.396 16.6138 209.757 16.1277 209.757 15.52C209.757 15.0339 209.516 14.5478 209.155 14.1832C208.674 13.8186 208.072 13.697 207.229 13.697C206.507 13.697 205.905 13.8186 205.424 14.0616C204.942 14.3047 204.461 14.6693 203.979 14.9124C203.618 15.1554 203.257 15.3985 202.896 15.6416C202.535 15.8846 202.053 16.0062 201.572 16.0062C201.09 16.0062 200.609 15.8846 200.247 15.52C199.886 15.1554 199.646 14.6693 199.646 14.0616C199.646 13.5755 199.766 13.0894 200.127 12.6032C200.488 12.1171 200.97 11.631 201.692 11.2664C202.414 10.7802 203.377 10.2941 204.461 9.92949C205.544 9.56489 206.627 9.44336 207.952 9.44336C209.035 9.44336 209.998 9.56489 210.841 9.92949C211.683 10.1726 212.406 10.6587 213.007 11.1448C213.609 11.631 214.091 12.2386 214.452 12.9678C214.813 13.697 214.933 14.4262 214.933 15.277C214.933 16.7354 214.452 17.9507 213.609 18.923C212.767 20.0168 211.683 20.8675 210.359 21.4752C209.757 21.7182 209.276 21.9613 208.915 22.2044C208.553 22.3259 208.313 22.6905 208.313 23.0551V23.5412C208.313 24.2704 208.072 24.8781 207.59 25.2427C207.109 25.6073 206.627 25.8503 205.905 25.8503C205.183 25.8503 204.701 25.6073 204.22 25.2427C203.738 24.8781 203.498 24.2704 203.498 23.5412V22.0828H203.618ZM206.026 33.2639C205.303 33.2639 204.581 33.0208 204.099 32.4132C203.618 31.927 203.257 31.1978 203.257 30.4686C203.257 29.7394 203.498 29.0102 204.099 28.5241C204.701 28.038 205.303 27.6733 206.026 27.6733C206.748 27.6733 207.47 27.9164 207.952 28.5241C208.433 29.0102 208.794 29.7394 208.794 30.4686C208.794 31.1978 208.553 31.927 207.952 32.4132C207.35 32.8993 206.748 33.2639 206.026 33.2639Z" fill="#2C71F6" fill-opacity="0.3"/>
<path d="M136.685 81.272C136.323 81.272 135.962 81.1505 135.601 80.9074C135.12 80.5428 134.759 80.1782 134.638 79.5705C134.518 78.9629 134.638 78.4767 134.879 77.9906C135.24 77.5045 135.601 77.1399 136.203 77.0183C136.444 77.0183 136.564 76.8968 136.685 76.8968C137.046 76.8968 137.407 77.0183 137.768 77.2614C138.249 77.626 138.611 77.9906 138.731 78.5983C138.851 79.2059 138.851 79.6921 138.49 80.2997C138.129 80.7859 137.768 81.1505 137.166 81.272C137.046 81.272 136.925 81.272 136.685 81.272ZM134.759 72.8862C134.518 72.8862 134.157 72.7647 133.916 72.6431C133.675 72.5216 133.314 72.2785 133.194 71.5493L129.943 57.6945C129.823 56.9653 129.943 56.6007 130.064 56.4792C130.305 56.1146 130.666 55.8715 131.147 55.75C131.268 55.75 131.508 55.75 131.629 55.75C131.869 55.75 132.231 55.8715 132.471 55.9931C132.712 56.1146 133.073 56.3577 133.194 57.0869L136.444 70.9417C136.564 71.6709 136.444 72.0355 136.323 72.157C136.083 72.5216 135.722 72.7647 135.24 72.8862C135.12 72.8862 134.999 72.8862 134.759 72.8862Z" fill="#2C71F6" fill-opacity="0.3"/>
<path d="M161.957 81.2763C161.836 81.2763 161.595 81.2763 161.355 81.1548C160.753 81.0333 160.392 80.6687 160.031 80.1825C159.669 79.6964 159.669 79.0887 159.79 78.4811C159.91 77.8734 160.271 77.5088 160.753 77.1442C161.114 76.9011 161.475 76.7796 161.836 76.7796C161.957 76.7796 162.197 76.7796 162.318 76.9011C162.92 77.0227 163.401 77.3873 163.642 77.8734C164.003 78.3595 164.003 78.8457 163.883 79.4533C163.762 80.061 163.401 80.5471 162.92 80.7902C162.679 81.1548 162.318 81.2763 161.957 81.2763ZM163.883 72.8905C163.762 72.8905 163.521 72.8905 163.401 72.769C162.92 72.6475 162.558 72.4044 162.318 72.0398C162.197 71.7967 161.957 71.4321 162.197 70.8245L165.448 56.9697C165.568 56.2405 165.929 55.9974 166.17 55.8759C166.411 55.7543 166.651 55.6328 167.012 55.6328C167.133 55.6328 167.374 55.6328 167.494 55.6328C167.975 55.7543 168.337 55.9974 168.577 56.362C168.698 56.6051 168.938 56.9697 168.698 57.5773L165.448 71.4321C165.327 72.1613 164.966 72.4044 164.725 72.5259C164.364 72.769 164.123 72.8905 163.883 72.8905Z" fill="#2C71F6" fill-opacity="0.3"/>
<path d="M149.323 79.8137C148.721 79.8137 148.239 79.5706 147.878 79.206C147.517 78.7199 147.276 78.2338 147.276 77.6261C147.276 77.0184 147.517 76.5323 147.878 76.1677C148.239 75.8031 148.721 75.56 149.323 75.56C149.925 75.56 150.406 75.8031 150.888 76.1677C151.369 76.5323 151.49 77.0184 151.49 77.6261C151.49 78.2338 151.249 78.7199 150.888 79.206C150.406 79.6922 149.925 79.8137 149.323 79.8137ZM149.323 71.1848C148.841 71.1848 148.48 71.0633 148.119 70.6987C147.878 70.5772 147.638 70.2126 147.638 69.4834V55.264C147.638 54.5348 147.878 54.2917 148.119 54.0486C148.48 53.684 148.841 53.5625 149.323 53.5625C149.804 53.5625 150.286 53.684 150.647 54.0486C150.888 54.1702 151.128 54.5348 151.128 55.264V69.4834C151.128 70.2126 150.888 70.4556 150.647 70.6987C150.286 71.0633 149.804 71.1848 149.323 71.1848Z" fill="#2C71F6" fill-opacity="0.3"/>
</svg>
