<svg width="20" height="18" viewBox="0 0 20 18" fill="none" xmlns="http://www.w3.org/2000/svg">
<path fill-rule="evenodd" clip-rule="evenodd" d="M8.2321 1C9.01783 -0.333333 10.9822 -0.333333 11.7679 1L19.7235 14.5C20.5092 15.8333 19.527 17.5 17.9556 17.5H2.04444C0.472974 17.5 -0.509193 15.8333 0.276541 14.5L8.2321 1ZM10 4.5C10.5523 4.5 11 4.94772 11 5.5V10C11 10.5523 10.5523 11 10 11C9.44771 11 9 10.5523 9 10V5.5C9 4.94772 9.44771 4.5 10 4.5ZM11 13C11 12.4477 10.5523 12 10 12C9.44771 12 9 12.4477 9 13V13.1C9 13.6523 9.44771 14.1 10 14.1C10.5523 14.1 11 13.6523 11 13.1V13Z" fill="white"/>
</svg>
