<svg width="" height="" viewBox="0 0 30 32" fill="none" xmlns="http://www.w3.org/2000/svg">
<path d="M20.2972 10.46C19.9453 10.3877 19.5867 10.3523 19.2273 10.3544C18.4811 10.3525 17.7429 10.5066 17.061 10.8067C16.3792 11.1068 15.7691 11.546 15.2707 12.0957C14.7497 11.5216 14.1079 11.0674 13.3904 10.765C12.673 10.4627 11.8974 10.3196 11.1181 10.3457C10.3388 10.3719 9.57475 10.5667 8.87968 10.9164C8.1846 11.2661 7.57537 11.7623 7.09483 12.3701C6.61428 12.9778 6.27409 13.6824 6.09818 14.4342C5.92226 15.1861 5.91489 15.9669 6.07659 16.7218C6.23828 17.4768 6.56512 18.1875 7.03411 18.8041C7.5031 19.4206 8.10286 19.928 8.79121 20.2905V25.723C7.84058 25.4918 6.92834 25.1271 6.08231 24.6397C4.49575 23.7312 3.17846 22.4258 2.26259 20.8544C1.34673 19.283 0.86449 17.5008 0.864258 15.6867V0.196289L6.08505 6.75263C8.4694 5.38967 11.3014 5.01454 13.964 5.70897C16.6265 6.4034 18.9039 8.11111 20.2999 10.46H20.2972Z" fill="white"/>
<path d="M29.6688 15.6975C29.6679 17.3939 29.2452 19.064 28.4381 20.5605C27.631 22.057 26.4642 23.334 25.0407 24.2788C23.6172 25.2237 21.9807 25.8074 20.2754 25.9785C18.5701 26.1496 16.8485 25.9028 15.2624 25.2599C14.8349 25.0848 14.4198 24.8812 14.0202 24.6505L8.8021 31.196V20.2905C9.57476 20.7026 10.439 20.9176 11.3167 20.916C12.0638 20.9171 12.8027 20.7629 13.4857 20.4634C14.1687 20.1639 14.7805 19.7258 15.2816 19.1774C15.8474 19.796 16.5532 20.2731 17.3413 20.5696C18.1294 20.8661 18.9772 20.9735 19.8154 20.8831C20.6535 20.7927 21.458 20.507 22.1631 20.0495C22.8681 19.5919 23.4535 18.9755 23.8714 18.2508C24.2893 17.5261 24.5277 16.7137 24.5671 15.8802C24.6065 15.0467 24.4458 14.2158 24.0981 13.4557C23.7504 12.6955 23.2257 12.0277 22.5669 11.507C21.9081 10.9863 21.134 10.6275 20.3081 10.46C19.1493 8.51648 17.3817 6.99999 15.2734 6.14059C16.8591 5.49925 18.5799 5.25348 20.2841 5.42491C21.9884 5.59633 23.624 6.1797 25.047 7.12367C26.4699 8.06764 27.6367 9.34328 28.4445 10.8384C29.2524 12.3334 29.6766 14.0021 29.6798 15.6975H29.6688Z" fill="white"/>
<path d="M19.4927 18.0536C19.4188 18.0536 19.3422 18.0536 19.2683 18.0536C17.4323 17.9453 16.2584 16.4937 16.2146 16.4287C16.0695 16.2491 16.0024 16.0199 16.028 15.7913C16.0537 15.5628 16.17 15.3537 16.3514 15.2101C16.5329 15.0664 16.7645 15 16.9954 15.0254C17.2264 15.0508 17.4376 15.1659 17.5828 15.3455C17.6047 15.3698 18.3462 16.2527 19.3778 16.3096C20.0618 16.3475 20.7979 15.9954 21.5312 15.2696C21.6956 15.107 21.9185 15.0156 22.151 15.0156C22.3834 15.0156 22.6064 15.107 22.7707 15.2696C22.9351 15.4323 23.0274 15.653 23.0274 15.883C23.0274 16.1131 22.9351 16.3337 22.7707 16.4964C21.7501 17.5336 20.6446 18.0536 19.4927 18.0536Z" fill="white"/>
<path d="M11.3797 18.0536C11.3058 18.0536 11.2292 18.0536 11.1553 18.0536C9.31929 17.9453 8.14543 16.4937 8.10165 16.4287C7.95651 16.2491 7.88939 16.0199 7.91505 15.7913C7.9407 15.5628 8.05704 15.3537 8.23847 15.2101C8.41989 15.0664 8.65155 15 8.88246 15.0254C9.11338 15.0508 9.32464 15.1659 9.46978 15.3455C9.49167 15.3698 10.2332 16.2527 11.2648 16.3096C11.9516 16.3475 12.6849 15.9954 13.4182 15.2696C13.5826 15.107 13.8055 15.0156 14.038 15.0156C14.2704 15.0156 14.4934 15.107 14.6577 15.2696C14.8221 15.4323 14.9145 15.653 14.9145 15.883C14.9145 16.1131 14.8221 16.3337 14.6577 16.4964C13.6262 17.5336 12.5207 18.0536 11.3797 18.0536Z" fill="white"/>
</svg>
