<svg width="" height="" viewBox="0 0 16 16" fill="none" xmlns="http://www.w3.org/2000/svg">
<path d="M1.77983 9.55842L8.71528 1.58884C9.86438 0.268403 11.8663 0.129506 13.1868 1.27861C14.5072 2.42771 14.6461 4.42967 13.497 5.75011L12.4575 6.94462C11.9442 6.73721 11.3832 6.62302 10.7956 6.62302C8.34425 6.62302 6.35704 8.61023 6.35704 11.0616M1.77983 9.55842C0.630727 10.8789 0.769625 12.8808 2.09007 14.0299C3.72671 15.4542 5.69343 14.7173 6.94789 13.2758C6.57206 12.6241 6.35704 11.8679 6.35704 11.0616M1.77983 9.55842L5.59432 5.17515C6.29196 6.40151 6.9131 7.23158 7.70033 7.88035C6.87172 8.68671 6.35704 9.81404 6.35704 11.0616M11.6472 2.17179C10.5034 1.87673 9.80989 2.67369 9.46312 3.07216M7.79459 11.8659L13.7968 10.2576M15.2332 11.0614C15.2332 13.5128 13.246 15.5 10.7947 15.5C8.34333 15.5 6.35612 13.5128 6.35612 11.0614C6.35612 8.61009 8.34333 6.62288 10.7947 6.62288C13.246 6.62288 15.2332 8.61009 15.2332 11.0614Z" stroke="" stroke-linecap="round"/>
</svg>
