<svg width="19" height="19" viewBox="0 0 19 19" fill="none" xmlns="http://www.w3.org/2000/svg">
<path d="M12.2221 6.17813L6.6971 13.8281M7.54735 8.38502C8.06202 7.90444 8.08966 7.09763 7.60907 6.58296C7.12849 6.06829 6.32168 6.04065 5.80701 6.52123C5.29234 7.00182 5.2647 7.80863 5.74528 8.3233C6.22587 8.83797 7.03268 8.86561 7.54735 8.38502ZM13.0721 13.3551C13.5868 12.8745 13.6144 12.0677 13.1338 11.553C12.6532 11.0384 11.8464 11.0107 11.3318 11.4913C10.8171 11.9719 10.7895 12.7787 11.27 13.2934C11.7506 13.8081 12.5574 13.8357 13.0721 13.3551ZM15.9736 5.82341V5.91607C15.9736 6.41845 15.9736 6.66964 16.0586 6.89847C16.0704 6.93026 16.0833 6.96159 16.0975 6.9924C16.1992 7.21425 16.3769 7.39187 16.7321 7.7471C17.5497 8.56471 17.9585 8.97352 17.9962 9.47653C18.0013 9.54417 18.0013 9.61208 17.9962 9.67972C17.9585 10.1827 17.5497 10.5915 16.7321 11.4091C16.3768 11.7644 16.1992 11.942 16.0975 12.1638C16.0833 12.1947 16.0704 12.226 16.0586 12.2578C15.9736 12.4866 15.9736 12.7378 15.9736 13.2402V13.3328C15.9736 14.6146 15.9736 15.2554 15.5755 15.6536C15.1773 16.0518 14.5364 16.0518 13.2547 16.0518H13.162C12.6597 16.0518 12.4085 16.0518 12.1796 16.1367C12.1479 16.1485 12.1165 16.1615 12.0857 16.1756C11.8639 16.2774 11.6863 16.455 11.331 16.8102C10.5134 17.6278 10.1046 18.0366 9.60159 18.0743C9.53396 18.0794 9.46604 18.0794 9.39841 18.0743C8.89539 18.0366 8.48659 17.6278 7.66897 16.8102C7.31374 16.455 7.13613 16.2774 6.91427 16.1756C6.88346 16.1615 6.85213 16.1485 6.82035 16.1367C6.59151 16.0518 6.34032 16.0518 5.83795 16.0518H5.74528C4.46357 16.0518 3.82271 16.0518 3.42453 15.6536C3.02635 15.2554 3.02635 14.6146 3.02635 13.3328V13.2402C3.02635 12.7378 3.02635 12.4866 2.94144 12.2578C2.92965 12.226 2.91667 12.1947 2.90254 12.1638C2.80076 11.942 2.62315 11.7644 2.26792 11.4091C1.4503 10.5915 1.0415 10.1827 1.0038 9.67972C0.998733 9.61208 0.998733 9.54417 1.0038 9.47653C1.0415 8.97352 1.4503 8.56471 2.26792 7.7471C2.62315 7.39187 2.80076 7.21425 2.90254 6.9924C2.91667 6.96159 2.92965 6.93026 2.94144 6.89847C3.02635 6.66964 3.02635 6.41845 3.02635 5.91607V5.82341C3.02635 4.54169 3.02635 3.90083 3.42453 3.50265C3.82271 3.10448 4.46357 3.10448 5.74528 3.10448H5.83795C6.34032 3.10448 6.59151 3.10448 6.82035 3.01957C6.85213 3.00777 6.88346 2.9948 6.91427 2.98066C7.13613 2.87889 7.31374 2.70127 7.66897 2.34604C8.48659 1.52843 8.89539 1.11962 9.39841 1.08193C9.46604 1.07686 9.53396 1.07686 9.60159 1.08193C10.1046 1.11962 10.5134 1.52843 11.331 2.34604C11.6863 2.70127 11.8639 2.87889 12.0857 2.98066C12.1165 2.9948 12.1479 3.00777 12.1796 3.01957C12.4085 3.10448 12.6597 3.10448 13.162 3.10448H13.2547C14.5364 3.10448 15.1773 3.10448 15.5755 3.50265C15.9736 3.90083 15.9736 4.54169 15.9736 5.82341Z" stroke="#344051" stroke-width="1.5" stroke-linecap="round"/>
</svg>
