<svg width="18" height="19" viewBox="0 0 18 19" fill="none" xmlns="http://www.w3.org/2000/svg">
<path d="M13.2203 3.5229C12.9274 3.81579 12.9274 4.29067 13.2203 4.58356C13.5132 4.87645 13.988 4.87645 14.2809 4.58356L13.2203 3.5229ZM15.131 3.73353C15.4239 3.44064 15.4239 2.96576 15.131 2.67287C14.8381 2.37998 14.3632 2.37998 14.0703 2.67287L15.131 3.73353ZM3.23055 2.67287C2.93765 2.37998 2.46278 2.37998 2.16988 2.67287C1.87699 2.96576 1.87699 3.44064 2.16989 3.73353L3.23055 2.67287ZM3.01992 4.58356C3.31281 4.87645 3.78768 4.87645 4.08058 4.58356C4.37347 4.29067 4.37347 3.81579 4.08058 3.5229L3.01992 4.58356ZM9.40057 7.45335C9.40057 7.03914 9.06479 6.70335 8.65057 6.70335C8.23636 6.70335 7.90057 7.03914 7.90057 7.45335H9.40057ZM8.65057 10.8535H7.90057C7.90057 11.0524 7.97959 11.2432 8.12024 11.3838L8.65057 10.8535ZM9.8203 13.0839C10.1132 13.3768 10.5881 13.3768 10.881 13.0839C11.1739 12.791 11.1739 12.3161 10.881 12.0232L9.8203 13.0839ZM7.90057 2.35317C7.90057 2.76738 8.23636 3.10317 8.65057 3.10317C9.06479 3.10317 9.40057 2.76738 9.40057 2.35317H7.90057ZM9.40057 1.07812C9.40057 0.663911 9.06479 0.328125 8.65057 0.328125C8.23636 0.328125 7.90057 0.663911 7.90057 1.07812H9.40057ZM6.95036 0.328125C6.53615 0.328125 6.20036 0.663911 6.20036 1.07812C6.20036 1.49234 6.53615 1.82812 6.95036 1.82812V0.328125ZM10.3505 1.82812C10.7647 1.82812 11.1005 1.49234 11.1005 1.07812C11.1005 0.663911 10.7647 0.328125 10.3505 0.328125V1.82812ZM14.2809 4.58356L15.131 3.73353L14.0703 2.67287L13.2203 3.5229L14.2809 4.58356ZM2.16989 3.73353L3.01992 4.58356L4.08058 3.5229L3.23055 2.67287L2.16989 3.73353ZM15.5505 10.4279C15.5505 14.2388 12.4612 17.3281 8.65027 17.3281V18.8281C13.2896 18.8281 17.0505 15.0672 17.0505 10.4279H15.5505ZM8.65027 17.3281C4.83936 17.3281 1.75 14.2388 1.75 10.4279H0.25C0.25 15.0672 4.01093 18.8281 8.65027 18.8281V17.3281ZM1.75 10.4279C1.75 6.61694 4.83936 3.52758 8.65027 3.52758V2.02758C4.01093 2.02758 0.25 5.78851 0.25 10.4279H1.75ZM8.65027 3.52758C12.4612 3.52758 15.5505 6.61694 15.5505 10.4279H17.0505C17.0505 5.78851 13.2896 2.02758 8.65027 2.02758V3.52758ZM7.90057 7.45335V10.8535H9.40057V7.45335H7.90057ZM8.12024 11.3838L9.8203 13.0839L10.881 12.0232L9.1809 10.3231L8.12024 11.3838ZM9.40057 2.35317V1.07812H7.90057V2.35317H9.40057ZM6.95036 1.82812H10.3505V0.328125H6.95036V1.82812Z" fill="#344051"/>
</svg>
