<svg width="17" height="15" viewBox="0 0 17 15" fill="none" xmlns="http://www.w3.org/2000/svg">
<path d="M13.5924 11.5625H16.0924V5.875C16.0924 4.97754 15.3462 4.25 14.4258 4.25H2.75909C1.83861 4.25 1.09242 4.97754 1.09242 5.875V11.5625H3.59242M13.5924 6.6875H11.9258M12.7591 4.25V2.625C12.7591 1.72754 12.0129 1 11.0924 1H6.09242C5.17195 1 4.42576 1.72754 4.42576 2.625V4.25H12.7591ZM4.42576 9.125H12.7591V12.375C12.7591 13.2725 12.0129 14 11.0924 14H6.09242C5.17195 14 4.42576 13.2725 4.42576 12.375V9.125Z" stroke="" stroke-linecap="round" stroke-linejoin="round"/>
</svg>
