<svg width="51" height="51" viewBox="0 0 51 51" fill="none" xmlns="http://www.w3.org/2000/svg">
<path d="M39.0249 0.509021C45.218 0.509021 50.2234 5.51439 50.2234 11.7075V42.6729C50.2234 46.8299 46.8723 50.181 42.7153 50.181H8.01708C3.86007 50.181 0.509021 46.8299 0.509021 42.6729V11.7075C0.509021 5.51439 5.51439 0.509021 11.7075 0.509021H39.0249ZM39.0249 0H11.7075C5.25988 0 0 5.25988 0 11.7075V42.6729C0 47.0844 3.60556 50.69 8.01708 50.69H42.6729C47.0844 50.69 50.69 47.0844 50.69 42.6729V11.7075C50.69 5.25988 45.4725 0 39.0249 0Z" fill="url(#paint0_linear_1317_5943)"/>
<path d="M42.6698 41.5264H8.01392C3.85691 41.5264 0.505859 38.1754 0.505859 34.0184V11.7063C0.505859 5.51318 5.51123 0.507812 11.7043 0.507812H39.0218C45.2149 0.507812 50.2202 5.51318 50.2202 11.7063V34.0184C50.2202 38.1754 46.8268 41.5264 42.6698 41.5264Z" fill="url(#paint1_linear_1317_5943)"/>
<path d="M30.5372 15.5669C30.1555 15.4821 29.8161 15.4821 29.4344 15.4821C28.6284 15.4821 27.9073 15.6094 27.1862 15.9487C26.4651 16.2881 25.8288 16.7547 25.3198 17.3061C24.7683 16.7122 24.1321 16.2456 23.3685 15.9063C22.6474 15.5669 21.799 15.4397 20.9931 15.4821C20.1447 15.5245 19.3812 15.6942 18.6601 16.076C17.939 16.4577 17.3027 16.9668 16.7937 17.603C16.2846 18.2393 15.9453 19.0028 15.7756 19.7239C15.606 20.5299 15.606 21.2934 15.7756 22.0994C15.9453 22.9053 16.2846 23.6264 16.7937 24.2627C17.3027 24.899 17.8965 25.408 18.6601 25.7898V31.4314C17.6845 31.2193 16.7088 30.8376 15.8605 30.3285C14.2061 29.3953 12.8488 27.9955 11.8731 26.3836C10.8975 24.7717 10.4309 22.9053 10.4309 21.0389V4.91992L15.8605 11.7069C18.3632 10.2646 21.29 9.88288 24.0472 10.6464C26.6772 11.3251 29.0526 13.1491 30.5372 15.5669Z" fill="white"/>
<path d="M40.2509 20.997C40.2509 22.7362 39.7843 24.5178 38.936 26.0448C38.0876 27.6143 36.8999 28.9293 35.4152 29.9473C33.9306 30.9229 32.2339 31.5168 30.4523 31.6865C28.7131 31.8561 26.8891 31.6016 25.2348 30.9653C24.7682 30.7957 24.344 30.5412 23.9199 30.3291L18.5327 37.116V25.7903C19.3387 26.2145 20.2295 26.4266 21.1627 26.4266C21.9686 26.4266 22.6897 26.2993 23.4108 25.96C24.0895 25.6206 24.7682 25.154 25.2772 24.6026C25.8711 25.2389 26.6346 25.7479 27.3982 26.0448C28.2465 26.3842 29.0949 26.469 29.9857 26.3842C30.8765 26.2993 31.6824 26.0024 32.446 25.4934C33.1671 25.0268 33.8033 24.3905 34.1851 23.627C34.6093 22.9059 34.8638 22.0151 34.9062 21.1667C34.9486 20.3183 34.779 19.47 34.3972 18.6216C34.0154 17.8156 33.464 17.1369 32.8277 16.5855C32.149 16.0341 31.3431 15.6523 30.4523 15.4826C29.2646 13.4465 27.3982 11.8771 25.2348 10.9863C26.8891 10.35 28.6707 10.0531 30.4523 10.2652C32.2763 10.4348 33.9306 11.0711 35.4152 12.0043C36.8999 12.9799 38.0876 14.3373 38.936 15.9068C39.8268 17.5187 40.2509 19.2579 40.2509 20.997Z" fill="white"/>
<path d="M29.6477 23.4572C29.5628 23.4572 29.5204 23.4572 29.4356 23.4572C27.5267 23.3724 26.2966 21.8453 26.2542 21.7605C26.1269 21.5908 26.0421 21.3363 26.0845 21.1242C26.1269 20.9121 26.2118 20.6576 26.4239 20.5303C26.5935 20.4031 26.8481 20.3182 27.0601 20.3606C27.2722 20.4031 27.5267 20.4879 27.654 20.7C27.654 20.7424 28.46 21.6332 29.5204 21.718C30.1991 21.7605 31.0051 21.3787 31.7262 20.6576C31.8958 20.4879 32.1504 20.3606 32.3624 20.3606C32.5745 20.3606 32.829 20.4455 32.9987 20.6576C33.1684 20.8272 33.2957 21.0818 33.2957 21.2938C33.2957 21.5059 33.2108 21.7605 32.9987 21.9301C32.0231 22.9482 30.8354 23.4572 29.6477 23.4572Z" fill="white"/>
<path d="M21.248 23.4572C21.1632 23.4572 21.1208 23.4572 21.0359 23.4572C19.1271 23.3724 17.897 21.8453 17.8545 21.7605C17.7273 21.5908 17.6424 21.3363 17.6849 21.1242C17.7273 20.9121 17.8121 20.6576 18.0242 20.5303C18.1939 20.4031 18.4484 20.3182 18.6605 20.3606C18.8726 20.4031 19.1271 20.4879 19.2543 20.7C19.2543 20.7424 20.0603 21.6332 21.1208 21.718C21.7994 21.7605 22.6054 21.3787 23.3265 20.6576C23.4962 20.4879 23.7507 20.3606 23.9628 20.3606C24.1749 20.3606 24.4294 20.4455 24.5991 20.6576C24.7687 20.8272 24.896 21.0818 24.896 21.2938C24.896 21.5059 24.8112 21.7605 24.5991 21.9301C23.581 22.9482 22.4357 23.4572 21.248 23.4572Z" fill="white"/>
<path d="M11.8327 44.2427C12.2569 44.2427 12.5963 44.3699 12.8508 44.6668C13.1053 44.9638 13.2325 45.3455 13.2325 45.8121C13.2325 46.2787 13.1053 46.6605 12.8508 46.9574C12.5963 47.2544 12.2569 47.3816 11.8327 47.3816C11.4085 47.3816 11.1116 47.2119 10.8995 46.915V48.4845H10.136V44.2851H10.8571V44.7093C11.0692 44.4123 11.4085 44.2427 11.8327 44.2427ZM11.0692 46.5757C11.1964 46.7453 11.4085 46.8302 11.663 46.8302C11.9176 46.8302 12.0872 46.7453 12.2569 46.5757C12.3842 46.406 12.469 46.1515 12.469 45.8545C12.469 45.5576 12.3842 45.3031 12.2569 45.1334C12.1297 44.9638 11.9176 44.8789 11.663 44.8789C11.4085 44.8789 11.2389 44.9638 11.0692 45.1334C10.9419 45.3031 10.8571 45.5576 10.8571 45.8545C10.8571 46.1515 10.9419 46.406 11.0692 46.5757ZM16.7108 44.2851C16.7957 44.2851 16.8381 44.2851 16.8805 44.2851V44.9638H16.7108C16.4139 44.9638 16.2018 45.0486 16.0746 45.1759C15.9049 45.3031 15.8625 45.5152 15.8625 45.8121V47.3816H15.0989V44.3275H15.8201V44.8789C15.9473 44.4547 16.2867 44.2851 16.7108 44.2851ZM21.4617 45.897V46.0666H19.1711C19.2135 46.3212 19.2984 46.5332 19.4256 46.6605C19.5529 46.7878 19.765 46.8726 19.9771 46.8726C20.3164 46.8726 20.5285 46.7453 20.6558 46.4484H21.3769C21.292 46.7453 21.1224 46.9998 20.8678 47.1695C20.6133 47.3392 20.3164 47.424 19.9346 47.424C19.468 47.424 19.1287 47.2968 18.8318 46.9998C18.5348 46.7029 18.4076 46.3212 18.4076 45.8545C18.4076 45.3879 18.5348 45.0062 18.8318 44.7093C19.1287 44.4123 19.468 44.2851 19.9346 44.2851C20.4012 44.2851 20.783 44.4547 21.0375 44.7517C21.3344 45.0062 21.4617 45.3879 21.4617 45.897ZM19.9346 44.8365C19.5105 44.8365 19.2559 45.091 19.1711 45.5576H20.6982C20.6558 45.3455 20.5709 45.1759 20.4437 45.0062C20.3164 44.8365 20.1467 44.8365 19.9346 44.8365ZM26.8488 44.2427C27.1882 44.2427 27.4427 44.3275 27.6124 44.5396C27.782 44.7517 27.9093 45.0062 27.9093 45.3455V47.3816H27.1458V45.4728C27.1458 45.091 26.9761 44.8789 26.6367 44.8789C26.4671 44.8789 26.2974 44.9638 26.1701 45.091C26.0429 45.2183 26.0005 45.4304 26.0005 45.6849V47.3816H25.2794V45.4728C25.2794 45.091 25.1097 44.8789 24.7279 44.8789C24.5582 44.8789 24.3886 44.9638 24.2613 45.091C24.1341 45.2183 24.0916 45.4304 24.0916 45.6849V47.3816H23.3281V44.3275H24.0492V44.7517C24.2613 44.4123 24.5582 44.2427 24.8976 44.2427C25.3642 44.2427 25.6611 44.4123 25.8308 44.7941C26.1277 44.4547 26.4247 44.2427 26.8488 44.2427ZM30.6665 47.3816H29.903V44.3275H30.6665V47.3816ZM30.6665 43.9033H29.9454V43.2246H30.6665V43.9033ZM34.6962 46.0242V44.3275H35.4598V47.3816H34.7387V46.9574C34.5266 47.2968 34.1872 47.4665 33.763 47.4665C33.4237 47.4665 33.1692 47.3816 32.9995 47.1695C32.7874 46.9574 32.7026 46.7029 32.7026 46.3636V44.3275H33.4661V46.2363C33.4661 46.6181 33.6782 46.8302 34.06 46.8302C34.2296 46.8302 34.3993 46.7453 34.5266 46.6181C34.6114 46.4484 34.6962 46.2787 34.6962 46.0242ZM40.9318 44.2427C41.2711 44.2427 41.5256 44.3275 41.6953 44.5396C41.865 44.7517 41.9922 45.0062 41.9922 45.3455V47.3816H41.2287V45.4728C41.2287 45.091 41.059 44.8789 40.7197 44.8789C40.55 44.8789 40.3803 44.9638 40.2531 45.091C40.1258 45.2183 40.0834 45.4304 40.0834 45.6849V47.3816H39.3623V45.4728C39.3623 45.091 39.1926 44.8789 38.8108 44.8789C38.6412 44.8789 38.4715 44.9638 38.3442 45.091C38.217 45.2183 38.1746 45.4304 38.1746 45.6849V47.3816H37.411V44.3275H38.1746V44.7517C38.3867 44.4123 38.6836 44.2427 39.0229 44.2427C39.4895 44.2427 39.7865 44.4123 39.9561 44.7941C40.2106 44.4547 40.5076 44.2427 40.9318 44.2427Z" fill="url(#paint2_linear_1317_5943)"/>
<defs>
<linearGradient id="paint0_linear_1317_5943" x1="0" y1="25.355" x2="50.7102" y2="25.355" gradientUnits="userSpaceOnUse">
<stop offset="0.00104742" stop-color="#00843C"/>
<stop offset="0.4186" stop-color="#499E39"/>
<stop offset="0.814" stop-color="#89B437"/>
<stop offset="1" stop-color="#A2BD36"/>
</linearGradient>
<linearGradient id="paint1_linear_1317_5943" x1="6.1056" y1="2.3763" x2="47.1862" y2="44.4925" gradientUnits="userSpaceOnUse">
<stop stop-color="#A2BD36"/>
<stop offset="0.186" stop-color="#89B437"/>
<stop offset="0.5814" stop-color="#499E39"/>
<stop offset="0.999" stop-color="#00843C"/>
</linearGradient>
<linearGradient id="paint2_linear_1317_5943" x1="6.90379" y1="41.9258" x2="43.4933" y2="50.6439" gradientUnits="userSpaceOnUse">
<stop stop-color="#A2BD36"/>
<stop offset="0.186" stop-color="#89B437"/>
<stop offset="0.5814" stop-color="#499E39"/>
<stop offset="0.999" stop-color="#00843C"/>
</linearGradient>
</defs>
</svg>
