<svg width="133" height="51" viewBox="0 0 133 51" fill="none" xmlns="http://www.w3.org/2000/svg">
<path d="M64.4 12.3387C65.8036 12.3387 66.9096 12.8066 67.7603 13.7849C68.5684 14.7633 68.9938 16.0819 68.9938 17.6982C68.9938 19.3146 68.5684 20.6332 67.7603 21.6115C66.9096 22.5898 65.8036 23.1002 64.4 23.1002C62.9537 23.1002 61.8478 22.5473 61.1247 21.3988V22.8875H58.7002V8.68066H61.2098V13.9125C61.9329 12.8492 62.9963 12.3387 64.4 12.3387ZM61.8478 20.1227C62.3157 20.6757 62.9537 20.9734 63.7619 20.9734C64.5701 20.9734 65.2507 20.6757 65.7186 20.0802C66.1865 19.4847 66.3991 18.6765 66.3991 17.6131C66.3991 16.5497 66.1865 15.7841 65.7186 15.2311C65.2507 14.6782 64.6126 14.423 63.7619 14.423C62.9112 14.423 62.2732 14.7207 61.8053 15.2737C61.3374 15.8266 61.1247 16.6774 61.1247 17.6982C61.1247 18.7616 61.3799 19.5698 61.8478 20.1227ZM72.6519 22.845H70.1423V8.68066H72.6519V22.845ZM76.7778 22.845H74.2682V12.5514H76.7778V22.845ZM76.7778 11.2328H74.3107V8.89334H76.7778V11.2328ZM84.0514 12.3387C85.1573 12.3387 86.0505 12.679 86.6886 13.317C87.3266 13.9551 87.6669 14.8909 87.6669 16.0393V22.845H85.1573V16.4647C85.1573 15.1461 84.5193 14.508 83.2432 14.508C82.6052 14.508 82.0522 14.7207 81.6268 15.1886C81.2015 15.6565 80.9463 16.2945 80.9463 17.1027V22.845H78.4367V12.5514H80.8612V14.0401C81.6269 12.8917 82.6902 12.3387 84.0514 12.3387ZM99.109 22.845H96.2591L93.2816 18.081L91.7503 19.6123V22.845H89.2832V8.68066H91.7503V16.8475L95.9188 12.5939H98.8963L95.0255 16.4647L99.109 22.845ZM64.1022 27.7791C65.5484 27.7791 66.6543 28.247 67.5051 29.2253C68.3558 30.2037 68.7811 31.4797 68.7811 33.1386C68.7811 34.755 68.3558 36.0736 67.5051 37.0519C66.6543 38.0302 65.5059 38.5406 64.1022 38.5406C62.656 38.5406 61.5501 37.9877 60.7844 36.8817V42.1987H58.7853V28.0344H60.6994V29.5656C61.465 28.3746 62.6135 27.7791 64.1022 27.7791ZM61.5501 35.8609C62.0605 36.4989 62.8261 36.8392 63.7194 36.8392C64.6126 36.8392 65.3783 36.4989 65.9312 35.8609C66.4417 35.2229 66.7394 34.2871 66.7394 33.1386C66.7394 31.9902 66.4842 31.0969 65.9312 30.5014C65.4208 29.8634 64.6552 29.5656 63.7194 29.5656C62.8261 29.5656 62.0605 29.8634 61.5501 30.5014C60.9971 31.182 60.7419 32.0752 60.7419 33.2237C60.7419 34.2871 60.9971 35.1803 61.5501 35.8609ZM75.2891 27.8642C75.5868 27.8642 75.7569 27.8642 75.8846 27.8642V29.7783H75.3741C74.3533 29.7783 73.5451 30.0335 72.9921 30.544C72.4392 31.0544 72.1414 31.7775 72.1414 32.7133V38.2854H70.1423V28.0344H72.0564V29.8634C72.7369 28.5448 73.8003 27.8642 75.2891 27.8642ZM85.6252 33.2237V33.8192H77.8837C77.9688 34.84 78.2665 35.6057 78.777 36.1161C79.2874 36.6265 79.968 36.8817 80.8187 36.8817C82.1373 36.8817 82.9455 36.3288 83.3708 35.1803H85.37C85.0722 36.2437 84.5618 37.0519 83.7536 37.6474C82.9454 38.2429 81.9671 38.5406 80.7761 38.5406C79.2874 38.5406 78.1389 38.0302 77.2032 37.0519C76.3099 36.0736 75.842 34.755 75.842 33.1386C75.842 31.5223 76.3099 30.2037 77.2032 29.2253C78.0964 28.247 79.2874 27.7366 80.7336 27.7366C82.2223 27.7366 83.4559 28.247 84.3066 29.2679C85.1573 30.3313 85.6252 31.6499 85.6252 33.2237ZM80.7336 29.4806C79.968 29.4806 79.3299 29.7358 78.8195 30.2037C78.3091 30.6716 78.0113 31.3521 77.8837 32.2879H83.5409C83.4559 31.4372 83.1581 30.7992 82.6477 30.2887C82.1798 29.7358 81.5418 29.4806 80.7336 29.4806ZM98.1732 27.7791C99.2791 27.7791 100.172 28.1194 100.768 28.7575C101.406 29.3955 101.704 30.2887 101.704 31.3947V38.2854H99.7045V31.6499C99.7045 30.2462 99.0664 29.5231 97.7478 29.5231C97.0247 29.5231 96.4718 29.7783 96.0039 30.3313C95.536 30.8842 95.3233 31.6499 95.3233 32.6282V38.2854H93.3667V31.6499C93.3667 30.2462 92.6861 29.5231 91.3675 29.5231C90.6444 29.5231 90.0914 29.7783 89.6235 30.3313C89.1556 30.8842 88.943 31.6499 88.943 32.6282V38.2854H86.9863V28.0344H88.9004V29.5656C89.6235 28.3746 90.6018 27.7791 91.8779 27.7791C93.4092 27.7791 94.4726 28.4172 95.0255 29.6932C95.7486 28.4172 96.812 27.7791 98.1732 27.7791ZM105.574 26.5881H103.533V24.4614H105.574V26.5881ZM105.532 38.2854H103.575V28.0344H105.574V38.2854H105.532ZM114.124 33.8192V28.0344H116.123V38.2854H114.209V36.7541C113.443 37.9451 112.338 38.5406 110.976 38.5406C109.87 38.5406 108.977 38.2429 108.339 37.6049C107.701 36.9668 107.403 36.0736 107.403 34.9251V28.0344H109.403V34.6274C109.403 36.0736 110.126 36.7541 111.572 36.7541C112.295 36.7541 112.933 36.4989 113.401 35.9885C113.869 35.4781 114.124 34.755 114.124 33.8192ZM129.139 27.7791C130.245 27.7791 131.138 28.1194 131.734 28.7575C132.372 29.3955 132.669 30.2887 132.669 31.3947V38.2854H130.67V31.6499C130.67 30.2462 130.032 29.5231 128.714 29.5231C127.991 29.5231 127.438 29.7783 126.97 30.3313C126.502 30.8842 126.289 31.6499 126.289 32.6282V38.2854H124.29V31.6499C124.29 30.2462 123.609 29.5231 122.291 29.5231C121.568 29.5231 121.015 29.7783 120.547 30.3313C120.079 30.8842 119.866 31.6499 119.866 32.6282V38.2854H117.867V28.0344H119.781V29.5656C120.504 28.3746 121.483 27.7791 122.759 27.7791C124.29 27.7791 125.353 28.4172 125.906 29.6932C126.715 28.4172 127.778 27.7791 129.139 27.7791Z" fill="url(#paint0_linear_1480_2557)"/>
<path d="M39.1327 0.510427C45.3429 0.510427 50.3621 5.52962 50.3621 11.7398V42.7908C50.3621 46.9593 47.0018 50.3196 42.8333 50.3196H8.03922C3.87073 50.3196 0.510426 46.9593 0.510426 42.7908V11.7398C0.510426 5.52962 5.52962 0.510427 11.7398 0.510427H39.1327ZM39.1327 0H11.7398C5.27441 0 0 5.27441 0 11.7398V42.7908C0 47.2145 3.61552 50.83 8.03922 50.83H42.7907C47.2144 50.83 50.83 47.2145 50.83 42.7908V11.7398C50.83 5.27441 45.5981 0 39.1327 0Z" fill="url(#paint1_linear_1480_2557)"/>
<path d="M42.7899 41.6407H8.03831C3.86983 41.6407 0.509521 38.2804 0.509521 34.1119V11.7382C0.509521 5.52799 5.52872 0.508789 11.7389 0.508789H39.1318C45.342 0.508789 50.3612 5.52799 50.3612 11.7382V34.1119C50.3612 38.2804 46.9583 41.6407 42.7899 41.6407Z" fill="url(#paint2_linear_1480_2557)"/>
<path d="M30.6225 15.61C30.2397 15.525 29.8994 15.525 29.5166 15.525C28.7084 15.525 27.9853 15.6526 27.2622 15.9928C26.5391 16.3331 25.9011 16.801 25.3907 17.354C24.8377 16.7585 24.1997 16.2906 23.434 15.9503C22.7109 15.61 21.8602 15.4824 21.052 15.525C20.2013 15.5675 19.4357 15.7376 18.7126 16.1205C17.9895 16.5033 17.3515 17.0137 16.841 17.6517C16.3306 18.2898 15.9903 19.0554 15.8202 19.7785C15.65 20.5867 15.65 21.3523 15.8202 22.1605C15.9903 22.9687 16.3306 23.6918 16.841 24.3298C17.3515 24.9679 17.947 25.4783 18.7126 25.8611V31.5183C17.7343 31.3057 16.756 30.9228 15.9052 30.4124C14.2464 29.4766 12.8852 28.073 11.9069 26.4566C10.9286 24.8402 10.4607 22.9687 10.4607 21.0971V4.93359L15.9052 11.7393C18.4148 10.2931 21.3498 9.91026 24.1146 10.6759C26.7518 11.3565 29.1338 13.1855 30.6225 15.61Z" fill="white"/>
<path d="M40.3619 21.0552C40.3619 22.7991 39.8941 24.5856 39.0433 26.1169C38.1926 27.6907 37.0016 29.0093 35.5129 30.0302C34.0241 31.0085 32.3227 31.604 30.5362 31.7741C28.7923 31.9443 26.9632 31.6891 25.3044 31.051C24.8365 30.8809 24.4111 30.6257 23.9858 30.413L18.5837 37.2187V25.8617C19.3919 26.287 20.2852 26.4997 21.2209 26.4997C22.0291 26.4997 22.7522 26.3721 23.4753 26.0318C24.1559 25.6915 24.8365 25.2237 25.3469 24.6707C25.9424 25.3087 26.708 25.8192 27.4737 26.1169C28.3244 26.4572 29.1751 26.5423 30.0683 26.4572C30.9616 26.3721 31.7698 26.0744 32.5354 25.5639C33.2585 25.0961 33.8965 24.458 34.2794 23.6924C34.7047 22.9693 34.9599 22.076 35.0025 21.2253C35.045 20.3746 34.8749 19.5239 34.492 18.6732C34.1092 17.865 33.5563 17.1844 32.9182 16.6315C32.2377 16.0785 31.4295 15.6957 30.5362 15.5255C29.3452 13.4838 27.4737 11.91 25.3044 11.0168C26.9632 10.3787 28.7497 10.081 30.5362 10.2937C32.3653 10.4638 34.0241 11.1018 35.5129 12.0376C37.0016 13.0159 38.1926 14.3771 39.0433 15.9509C39.9366 17.5673 40.3619 19.3112 40.3619 21.0552Z" fill="white"/>
<path d="M29.7274 23.5244C29.6423 23.5244 29.5998 23.5244 29.5147 23.5244C27.6006 23.4393 26.3671 21.908 26.3245 21.8229C26.1969 21.6528 26.1118 21.3976 26.1544 21.1849C26.1969 20.9722 26.282 20.717 26.4947 20.5894C26.6648 20.4618 26.92 20.3767 27.1327 20.4193C27.3454 20.4618 27.6006 20.5469 27.7282 20.7596C27.7282 20.8021 28.5364 21.6953 29.5998 21.7804C30.2803 21.8229 31.0885 21.4401 31.8116 20.717C31.9817 20.5469 32.237 20.4193 32.4496 20.4193C32.6623 20.4193 32.9175 20.5043 33.0877 20.717C33.2578 20.8872 33.3854 21.1424 33.3854 21.3551C33.3854 21.5677 33.3003 21.8229 33.0877 21.9931C32.1094 23.0139 30.9184 23.5244 29.7274 23.5244Z" fill="white"/>
<path d="M21.3055 23.5244C21.2204 23.5244 21.1779 23.5244 21.0928 23.5244C19.1787 23.4393 17.9452 21.908 17.9026 21.8229C17.775 21.6528 17.69 21.3976 17.7325 21.1849C17.775 20.9722 17.8601 20.717 18.0728 20.5894C18.2429 20.4618 18.4981 20.3767 18.7108 20.4193C18.9235 20.4618 19.1787 20.5469 19.3063 20.7596C19.3063 20.8021 20.1145 21.6953 21.1779 21.7804C21.8584 21.8229 22.6666 21.4401 23.3897 20.717C23.5599 20.5469 23.8151 20.4193 24.0278 20.4193C24.2404 20.4193 24.4957 20.5043 24.6658 20.717C24.8359 20.8872 24.9635 21.1424 24.9635 21.3551C24.9635 21.5677 24.8785 21.8229 24.6658 21.9931C23.6449 23.0139 22.4965 23.5244 21.3055 23.5244Z" fill="white"/>
<path d="M11.8645 44.3675C12.2899 44.3675 12.6301 44.4951 12.8854 44.7929C13.1406 45.0906 13.2682 45.4735 13.2682 45.9413C13.2682 46.4092 13.1406 46.7921 12.8854 47.0898C12.6301 47.3876 12.2899 47.5152 11.8645 47.5152C11.4392 47.5152 11.1414 47.345 10.9287 47.0473V48.6211H10.1631V44.4101H10.8862V44.8354C11.0989 44.5377 11.4392 44.3675 11.8645 44.3675ZM11.0989 46.707C11.2265 46.8771 11.4392 46.9622 11.6944 46.9622C11.9496 46.9622 12.1197 46.8771 12.2899 46.707C12.4175 46.5368 12.5025 46.2816 12.5025 45.9839C12.5025 45.6861 12.4175 45.4309 12.2899 45.2608C12.1623 45.0906 11.9496 45.0056 11.6944 45.0056C11.4392 45.0056 11.269 45.0906 11.0989 45.2608C10.9713 45.4309 10.8862 45.6861 10.8862 45.9839C10.8862 46.2816 10.9713 46.5368 11.0989 46.707ZM16.7561 44.4101C16.8412 44.4101 16.8837 44.4101 16.9262 44.4101V45.0906H16.7561C16.4583 45.0906 16.2457 45.1757 16.1181 45.3033C15.9479 45.4309 15.9054 45.6436 15.9054 45.9413V47.5152H15.1397V44.4526H15.8628V45.0056C15.9905 44.5802 16.3307 44.4101 16.7561 44.4101ZM21.5201 46.0264V46.1966H19.2232C19.2657 46.4518 19.3508 46.6645 19.4784 46.7921C19.606 46.9197 19.8187 47.0047 20.0313 47.0047C20.3716 47.0047 20.5843 46.8771 20.7119 46.5794H21.435C21.3499 46.8771 21.1798 47.1323 20.9246 47.3025C20.6694 47.4726 20.3716 47.5577 19.9888 47.5577C19.5209 47.5577 19.1806 47.4301 18.8829 47.1323C18.5851 46.8346 18.4575 46.4518 18.4575 45.9839C18.4575 45.516 18.5851 45.1332 18.8829 44.8354C19.1806 44.5377 19.5209 44.4101 19.9888 44.4101C20.4567 44.4101 20.8395 44.5802 21.0947 44.878C21.3925 45.1332 21.5201 45.516 21.5201 46.0264ZM19.9888 44.963C19.5634 44.963 19.3082 45.2182 19.2232 45.6861H20.7544C20.7119 45.4735 20.6268 45.3033 20.4992 45.1332C20.3716 44.963 20.2015 44.963 19.9888 44.963ZM26.9221 44.3675C27.2624 44.3675 27.5176 44.4526 27.6877 44.6653C27.8579 44.878 27.9855 45.1332 27.9855 45.4735V47.5152H27.2198V45.6011C27.2198 45.2182 27.0497 45.0056 26.7094 45.0056C26.5393 45.0056 26.3691 45.0906 26.2415 45.2182C26.1139 45.3459 26.0714 45.5585 26.0714 45.8137V47.5152H25.3483V45.6011C25.3483 45.2182 25.1781 45.0056 24.7953 45.0056C24.6252 45.0056 24.455 45.0906 24.3274 45.2182C24.1998 45.3459 24.1573 45.5585 24.1573 45.8137V47.5152H23.3916V44.4526H24.1147V44.878C24.3274 44.5377 24.6252 44.3675 24.9655 44.3675C25.4333 44.3675 25.7311 44.5377 25.9012 44.9205C26.199 44.5802 26.4967 44.3675 26.9221 44.3675ZM30.7503 47.5152H29.9846V44.4526H30.7503V47.5152ZM30.7503 44.0272H30.0272V43.3467H30.7503V44.0272ZM34.7912 46.154V44.4526H35.5568V47.5152H34.8337V47.0898C34.621 47.4301 34.2807 47.6002 33.8554 47.6002C33.5151 47.6002 33.2599 47.5152 33.0897 47.3025C32.8771 47.0898 32.792 46.8346 32.792 46.4943V44.4526H33.5576V46.3667C33.5576 46.7495 33.7703 46.9622 34.1531 46.9622C34.3233 46.9622 34.4934 46.8771 34.621 46.7495C34.7061 46.5794 34.7912 46.4092 34.7912 46.154ZM41.0439 44.3675C41.3842 44.3675 41.6394 44.4526 41.8095 44.6653C41.9797 44.878 42.1073 45.1332 42.1073 45.4735V47.5152H41.3416V45.6011C41.3416 45.2182 41.1715 45.0056 40.8312 45.0056C40.6611 45.0056 40.4909 45.0906 40.3633 45.2182C40.2357 45.3459 40.1932 45.5585 40.1932 45.8137V47.5152H39.4701V45.6011C39.4701 45.2182 39.2999 45.0056 38.9171 45.0056C38.747 45.0056 38.5768 45.0906 38.4492 45.2182C38.3216 45.3459 38.2791 45.5585 38.2791 45.8137V47.5152H37.5134V44.4526H38.2791V44.878C38.4918 44.5377 38.7895 44.3675 39.1298 44.3675C39.5977 44.3675 39.8954 44.5377 40.0656 44.9205C40.3208 44.5802 40.6185 44.3675 41.0439 44.3675Z" fill="url(#paint3_linear_1480_2557)"/>
<defs>
<linearGradient id="paint0_linear_1480_2557" x1="62.9551" y1="4.26352" x2="116.044" y2="55.5308" gradientUnits="userSpaceOnUse">
<stop stop-color="#A2BD36"/>
<stop offset="0.186" stop-color="#89B437"/>
<stop offset="0.5814" stop-color="#499E39"/>
<stop offset="0.999" stop-color="#00843C"/>
</linearGradient>
<linearGradient id="paint1_linear_1480_2557" x1="0" y1="25.425" x2="50.8502" y2="25.425" gradientUnits="userSpaceOnUse">
<stop offset="0.00104742" stop-color="#00843C"/>
<stop offset="0.4186" stop-color="#499E39"/>
<stop offset="0.814" stop-color="#89B437"/>
<stop offset="1" stop-color="#A2BD36"/>
</linearGradient>
<linearGradient id="paint2_linear_1480_2557" x1="6.12472" y1="2.38244" x2="47.3188" y2="44.615" gradientUnits="userSpaceOnUse">
<stop stop-color="#A2BD36"/>
<stop offset="0.186" stop-color="#89B437"/>
<stop offset="0.5814" stop-color="#499E39"/>
<stop offset="0.999" stop-color="#00843C"/>
</linearGradient>
<linearGradient id="paint3_linear_1480_2557" x1="6.92196" y1="42.0443" x2="43.6125" y2="50.7864" gradientUnits="userSpaceOnUse">
<stop stop-color="#A2BD36"/>
<stop offset="0.186" stop-color="#89B437"/>
<stop offset="0.5814" stop-color="#499E39"/>
<stop offset="0.999" stop-color="#00843C"/>
</linearGradient>
</defs>
</svg>
