<svg width="22" height="22" viewBox="0 0 22 22" fill="none" xmlns="http://www.w3.org/2000/svg">
<path d="M9.2751 7.12714L11.7307 15.8792M17 5L21 1M18.9932 3.00675C20.3279 4.34144 20.0059 9.25609 19.8492 10.9619C19.8137 11.3477 19.6558 11.7078 19.4033 12.0016C16.8494 14.9731 14.203 17.6771 11.3133 20.2645C10.2489 21.2175 8.64313 21.238 7.51351 20.3633C5.2719 18.6277 3.37226 16.7281 1.63665 14.4865C0.762028 13.3569 0.78253 11.7511 1.73552 10.6867C4.32292 7.797 7.02692 5.15064 9.99845 2.59671C10.2922 2.34421 10.6523 2.18627 11.0381 2.15083C12.7439 1.99408 17.6586 1.67207 18.9932 3.00675ZM8 11.5001C8 10.6717 7.32843 10.0001 6.5 10.0001C5.67157 10.0001 5 10.6717 5 11.5001C5 12.3285 5.67157 13.0001 6.5 13.0001C7.32843 13.0001 8 12.3285 8 11.5001ZM16 11.5001C16 10.6717 15.3284 10.0001 14.5 10.0001C13.6716 10.0001 13 10.6717 13 11.5001C13 12.3285 13.6716 13.0001 14.5 13.0001C15.3284 13.0001 16 12.3285 16 11.5001Z" />
</svg>
