<svg width="26" height="27" viewBox="0 0 26 27" fill="none" xmlns="http://www.w3.org/2000/svg">
<path d="M13 17.25C12.3096 17.25 11.75 17.8096 11.75 18.5C11.75 19.1904 12.3096 19.75 13 19.75V17.25ZM13.009 19.75C13.6993 19.75 14.259 19.1904 14.259 18.5C14.259 17.8096 13.6993 17.25 13.009 17.25V19.75ZM19.8284 21.8284L20.7123 22.7123L20.7123 22.7123L19.8284 21.8284ZM18.6569 7.83548L17.7917 8.73773V8.73773L18.6569 7.83548ZM22.1349 12.9022C22.6332 13.38 23.4244 13.3634 23.9022 12.8651C24.38 12.3668 24.3634 11.5756 23.8651 11.0978L22.1349 12.9022ZM2.13487 11.0978C1.63657 11.5756 1.61996 12.3668 2.09776 12.8651C2.57556 13.3634 3.36684 13.38 3.86513 12.9022L2.13487 11.0978ZM7.34315 7.83548L8.20828 8.73772H8.20829L7.34315 7.83548ZM13 19.75H13.009V17.25H13V19.75ZM19.75 10V15H22.25V10H19.75ZM6.25 15V10H3.75V15H6.25ZM13 21.75C11.079 21.75 9.76408 21.7473 8.77747 21.6147C7.82683 21.4869 7.37028 21.2594 7.05546 20.9445L5.28769 22.7123C6.14444 23.5691 7.21649 23.9273 8.44435 24.0924C9.63626 24.2527 11.1497 24.25 13 24.25V21.75ZM3.75 15C3.75 16.8503 3.74735 18.3637 3.90759 19.5556C4.07268 20.7835 4.43094 21.8556 5.28769 22.7123L7.05546 20.9445C6.74063 20.6297 6.51311 20.1732 6.3853 19.2225C6.25265 18.2359 6.25 16.921 6.25 15H3.75ZM19.75 15C19.75 16.921 19.7473 18.2359 19.6147 19.2225C19.4869 20.1732 19.2594 20.6297 18.9445 20.9445L20.7123 22.7123C21.5691 21.8556 21.9273 20.7835 22.0924 19.5556C22.2527 18.3637 22.25 16.8503 22.25 15H19.75ZM13 24.25C14.8503 24.25 16.3637 24.2527 17.5556 24.0924C18.7835 23.9273 19.8556 23.5691 20.7123 22.7123L18.9445 20.9445C18.6297 21.2594 18.1732 21.4869 17.2225 21.6147C16.2359 21.7473 14.921 21.75 13 21.75V24.25ZM17.7917 8.73773L22.1349 12.9022L23.8651 11.0978L19.522 6.93324L17.7917 8.73773ZM3.86513 12.9022L8.20828 8.73772L6.47802 6.93324L2.13487 11.0978L3.86513 12.9022ZM19.522 6.93324C18.2138 5.67883 17.1446 4.65 16.1878 3.95003C15.2002 3.22751 14.1958 2.75 13 2.75V5.25C13.4611 5.25 13.9517 5.41174 14.7117 5.96771C15.5025 6.54624 16.4333 7.43514 17.7917 8.73773L19.522 6.93324ZM8.20829 8.73772C9.56674 7.43514 10.4975 6.54624 11.2883 5.96771C12.0483 5.41174 12.5389 5.25 13 5.25V2.75C11.8042 2.75 10.7998 3.22751 9.81219 3.95003C8.85542 4.64999 7.78623 5.67883 6.47802 6.93324L8.20829 8.73772Z" />
</svg>
