<svg width="25" height="22" viewBox="0 0 25 22" fill="none" xmlns="http://www.w3.org/2000/svg">
<path d="M0 1.25856C0.0974299 1.04787 0.171935 0.813775 0.303752 0.626498C0.618966 0.175864 1.066 0.000291913 1.599 0.000291913C4.32703 0.000291913 7.05507 0.000291913 9.78311 0.000291913C10.0983 0.000291913 10.2817 0.140749 10.276 0.374845C10.2703 0.614794 10.0926 0.743546 9.77164 0.743546C7.08946 0.743546 4.413 0.743546 1.73081 0.743546C1.64485 0.743546 1.55315 0.743546 1.46718 0.743546C1.03734 0.772808 0.727859 1.09469 0.727859 1.53362C0.727859 4.40715 0.727859 7.28653 0.727859 10.1601C0.727859 10.6048 1.0488 10.9326 1.48437 10.9618C1.52449 10.9618 1.56461 10.9618 1.60473 10.9618C5.2039 10.9618 8.79735 10.9618 12.3965 10.9618C12.471 10.9618 12.5398 10.9618 12.6143 10.9501C13.0269 10.8799 13.2849 10.558 13.2849 10.1132C13.2849 7.26312 13.2849 4.40715 13.2849 1.55703C13.2849 1.08299 12.9696 0.749399 12.5054 0.737694C12.173 0.725989 11.8463 0.737694 11.5139 0.737694C11.4394 0.737694 11.3706 0.737694 11.2961 0.720137C11.107 0.67917 11.0038 0.550417 11.0096 0.351436C11.021 0.152454 11.1299 0.0178491 11.3248 0.0119967C11.8177 0.00614431 12.3106 -0.0231177 12.792 0.0354063C13.474 0.11734 13.9955 0.790365 14.0012 1.51606C14.007 2.70995 14.0012 3.89799 14.0012 5.09188C14.0012 6.75396 14.0012 8.41018 14.0012 10.0723C14.0012 11.0438 13.3651 11.6992 12.4194 11.7051C11.428 11.7051 10.4422 11.7051 9.4507 11.7051C9.36473 11.7051 9.27876 11.7051 9.15841 11.7051C9.23865 12.1733 9.31315 12.6122 9.38766 13.057C9.41058 13.1857 9.4507 13.3145 9.45643 13.4432C9.46216 13.6598 9.55386 13.73 9.77164 13.7242C11.3592 13.7125 12.941 13.7242 14.5285 13.7242C14.5973 13.7242 14.6718 13.7242 14.7864 13.7242C14.7864 13.613 14.7864 13.5193 14.7864 13.4257C14.7864 12.027 14.7864 10.6341 14.7864 9.23537C14.7864 8.3224 15.3366 7.76642 16.2307 7.76057C16.5745 7.76057 16.9184 7.76057 17.2852 7.76057C17.2852 7.65523 17.2967 7.56744 17.2967 7.47965C17.2967 6.86515 17.2967 6.2448 17.2967 5.6303C17.2967 5.03921 17.6119 4.70562 18.185 4.70562C18.9644 4.70562 19.7439 4.70562 20.5291 4.70562C21.0678 4.70562 21.3887 5.04506 21.3945 5.60689C21.3945 6.31503 21.3945 7.01732 21.3945 7.76642C21.7899 7.76642 22.1739 7.76642 22.5579 7.76642C23.2456 7.77227 23.7729 8.23461 23.8875 8.91934C23.9047 9.02469 23.9047 9.13003 23.9047 9.24123C23.9047 10.6634 23.9047 12.0855 23.9047 13.5076C23.9047 13.6656 23.9162 13.771 24.0996 13.8412C24.4492 13.9758 24.6211 14.286 24.73 14.6313V20.8933C24.4893 21.5547 24.0136 21.7888 23.3373 21.7595C22.4203 21.7244 21.5033 21.7536 20.5864 21.7536C14.1159 21.7536 7.65111 21.7536 1.18062 21.7536C0.819557 21.7536 0.510074 21.66 0.280827 21.3732C0.160473 21.2211 0.0916987 21.0455 0 20.8816C0 18.7923 0 16.7089 0 14.6196C0.309483 13.8822 0.550192 13.7183 1.33536 13.7183C2.13773 13.7183 2.94009 13.7183 3.74819 13.7183C3.94878 13.7183 4.05767 13.6832 4.07486 13.4491C4.08632 13.2326 4.1551 13.016 4.18949 12.7995C4.25253 12.4425 4.30984 12.0855 4.37288 11.7051C4.2468 11.7051 4.16083 11.7051 4.06913 11.7051C3.23238 11.7051 2.39563 11.7051 1.55888 11.7051C1.16916 11.7051 0.819557 11.5822 0.515805 11.3247C0.240709 11.0847 0.108892 10.7628 0 10.4293C0 7.36846 0 4.31351 0 1.25856ZM12.3736 14.4616C8.67126 14.4616 4.96892 14.4616 1.26659 14.4616C0.808095 14.4616 0.722127 14.5552 0.722127 15.0234C0.722127 16.8318 0.722127 18.6402 0.722127 20.4486C0.722127 20.9051 0.813826 21.0045 1.25513 21.0045C8.66553 21.0045 16.0817 21.0045 23.4921 21.0045C23.899 21.0045 24.0021 20.8933 24.0021 20.4778C24.0021 18.6753 24.0021 16.8786 24.0021 15.0761C24.0021 14.5376 23.9334 14.4616 23.4118 14.4616C19.7324 14.4616 16.0587 14.4616 12.3793 14.4616H12.3736ZM21.3945 9.34657C21.4919 9.34657 21.5607 9.34657 21.6294 9.34657C22.0077 9.36413 22.2312 9.57481 22.2427 9.96107C22.2541 10.3649 22.2541 10.7687 22.2427 11.1667C22.2312 11.5354 22.002 11.7578 21.6409 11.7636C20.1049 11.7636 18.569 11.7636 17.033 11.7636C16.6834 11.7636 16.4485 11.5412 16.437 11.1901C16.4198 10.7746 16.4198 10.3532 16.437 9.93181C16.4485 9.57481 16.6777 9.36413 17.0273 9.34657C17.1133 9.34657 17.1935 9.34657 17.2737 9.34657V8.51553C17.2394 8.50968 17.2222 8.49797 17.2107 8.49797C16.8955 8.49797 16.586 8.49797 16.2708 8.49797C15.7263 8.49797 15.5085 8.71451 15.5085 9.27049C15.5085 10.6692 15.5085 12.0621 15.5085 13.4608C15.5085 13.5427 15.5143 13.6188 15.52 13.7066H23.1482C23.1482 13.7066 23.1769 13.6656 23.1769 13.6481C23.1769 12.1265 23.1826 10.6107 23.1769 9.08906C23.1769 8.79644 22.9648 8.53309 22.7012 8.51553C22.2713 8.48627 21.8415 8.50968 21.4002 8.50968V9.34657H21.3945ZM20.6437 9.33486C20.6551 9.28219 20.6609 9.25878 20.6609 9.23537C20.6609 8.03563 20.6609 6.83589 20.6609 5.642C20.6609 5.44887 20.5634 5.43132 20.4202 5.43132C19.698 5.43132 18.9702 5.43717 18.248 5.43132C18.0475 5.43132 18.0073 5.5074 18.0073 5.69467C18.0131 6.83589 18.0073 7.97711 18.0073 9.11833C18.0073 9.18855 18.0188 9.25878 18.0245 9.33486H20.6437ZM4.7626 13.7008H8.74577C8.74004 13.613 8.74003 13.5369 8.72857 13.4667C8.63687 12.9575 8.53944 12.4483 8.45921 11.9392C8.43055 11.7578 8.37324 11.6934 8.18411 11.6992C7.49064 11.7109 6.79717 11.6992 6.10943 11.6992C5.78275 11.6992 5.45034 11.6992 5.10647 11.6992C4.99185 12.3723 4.87723 13.0219 4.75687 13.6949L4.7626 13.7008ZM17.1649 11.0028H21.5091V10.1015H17.1649V11.0028Z" />
<path d="M23.3373 21.6015C22.9705 21.5898 22.6037 21.5839 22.2369 21.5839C21.9618 21.5839 20.8557 21.5956 20.5806 21.5956H1.17489C0.813826 21.5956 0.561655 21.4961 0.383988 21.2679C0.315214 21.1801 0.263634 21.0748 0.206322 20.9636C0.183397 20.9226 0.166204 20.8816 0.143279 20.8407V14.6137C0.418375 13.9875 0.607504 13.8588 1.33536 13.8588H2.63634C3.00313 13.8588 3.37566 13.8588 3.74245 13.8588C3.96024 13.8588 4.18949 13.8119 4.21241 13.4491C4.21814 13.3145 4.2468 13.1799 4.28118 13.0453C4.29838 12.9692 4.31557 12.8873 4.32703 12.8112C4.36715 12.5654 4.53909 11.5412 4.53909 11.5412H1.55888C1.19208 11.5412 0.8826 11.43 0.607504 11.1959C0.349601 10.9735 0.223516 10.6517 0.131817 10.3649V1.28782C0.166204 1.2293 0.189129 1.17077 0.217784 1.11225C0.280827 0.965937 0.338139 0.82548 0.418375 0.708432C0.682009 0.328026 1.066 0.146602 1.59327 0.146602H9.78311C9.92639 0.146602 10.0295 0.175864 10.0869 0.234388C10.1212 0.269502 10.1327 0.310469 10.1327 0.368993C10.1327 0.427517 10.1327 0.591384 9.77164 0.591384H1.61046C1.55888 0.591384 1.5073 0.591384 1.45572 0.591384C0.945643 0.632351 0.584579 1.01276 0.584579 1.52191C0.584579 4.40129 0.584579 7.27482 0.584579 10.1483C0.584579 10.6634 0.957105 11.0613 1.47291 11.0964C1.5073 11.0964 1.53595 11.0964 1.57034 11.0964H12.4023C12.5054 11.0964 12.5742 11.0964 12.643 11.0847C13.1186 11.0028 13.4281 10.6165 13.4281 10.1074C13.4281 7.25726 13.4281 4.40129 13.4281 1.55118C13.4281 1.00105 13.0499 0.603089 12.5111 0.579679C12.3736 0.579679 12.2303 0.579679 12.0928 0.579679H11.5197C11.4451 0.579679 11.3878 0.579679 11.3363 0.567974C11.2102 0.538712 11.1586 0.474336 11.1643 0.345583C11.1701 0.216831 11.2274 0.146602 11.3363 0.146602H11.6285C11.7833 0.134897 11.938 0.134897 12.0928 0.134897C12.3679 0.134897 12.5856 0.146602 12.7862 0.170011C13.3823 0.24024 13.8637 0.843037 13.8694 1.50436C13.8694 2.3354 13.8694 3.16644 13.8694 3.99748V10.0547C13.8694 10.9384 13.2906 11.5354 12.4252 11.5412H8.99221L9.25011 13.0628C9.25584 13.1097 9.2673 13.1565 9.27876 13.2033C9.29596 13.2794 9.31315 13.3555 9.31888 13.4315C9.33035 13.8119 9.58252 13.8529 9.77164 13.8529C10.5969 13.8529 11.4108 13.8471 12.2246 13.8471H14.9297V9.21196C14.9297 8.38092 15.4168 7.88932 16.2307 7.88347H17.4228L17.4342 7.64352C17.4342 7.57329 17.44 7.51477 17.44 7.45039V5.60104C17.44 5.08602 17.6921 4.82267 18.185 4.82267C18.5575 4.82267 18.9243 4.82267 19.2968 4.82267C19.7038 4.82267 20.1164 4.82267 20.5233 4.82267C20.9875 4.82267 21.2454 5.09188 21.2454 5.57763C21.2454 6.06923 21.2454 6.56668 21.2454 7.07584V7.88347H22.5522C23.1711 7.89517 23.6411 8.29899 23.7442 8.91349C23.7614 9.00713 23.7614 9.10662 23.7614 9.20611V9.44606C23.7614 10.7863 23.7614 12.1323 23.7614 13.4725C23.7614 13.6539 23.7844 13.8412 24.048 13.9407C24.3002 14.0343 24.4664 14.2509 24.5925 14.6371V20.8524C24.3976 21.3381 24.0423 21.5722 23.4348 21.5722H23.3373V21.6015ZM1.27232 14.3153C0.739321 14.3153 0.584579 14.4733 0.584579 15.0234V20.4486C0.584579 20.987 0.745052 21.1509 1.26086 21.1509H23.4978C23.9849 21.1509 24.1512 20.9811 24.1512 20.4778V15.0761C24.1512 14.4557 24.0136 14.3153 23.4176 14.3153H1.27232ZM16.2708 8.35751C15.6461 8.35751 15.3653 8.63843 15.3653 9.27634V13.4667C15.3653 13.5193 15.3653 13.5779 15.371 13.6364L15.3825 13.8588H23.2342L23.2743 13.7768C23.2972 13.7417 23.3144 13.7066 23.3144 13.6539V12.6298C23.3144 11.4534 23.3201 10.2712 23.3144 9.09492C23.3144 8.72036 23.0393 8.39848 22.7069 8.37507C22.5292 8.36337 22.3516 8.35751 22.1739 8.35751H21.2569V9.49288H21.6352C21.9447 9.50458 22.0994 9.6626 22.1109 9.96692C22.1223 10.3649 22.1223 10.7687 22.1109 11.1667C22.0994 11.4593 21.9389 11.6173 21.6524 11.6173H17.0388C16.7579 11.6173 16.5975 11.4593 16.586 11.1842C16.5688 10.757 16.5688 10.3415 16.586 9.93766C16.5975 9.6626 16.7579 9.50458 17.0388 9.49288H17.4228V8.39848L17.3139 8.37507C17.268 8.36337 17.2508 8.35751 17.2222 8.35751H16.2708ZM4.59067 13.8529H8.90051L8.88331 13.613C8.88331 13.5544 8.87758 13.4959 8.86612 13.4432L8.77442 12.9341C8.71138 12.5946 8.64834 12.2611 8.60249 11.9216C8.56237 11.6641 8.44201 11.5588 8.2013 11.5588C7.87463 11.5588 7.55941 11.5646 7.2442 11.5646H4.99185L4.59067 13.8529ZM17.0216 11.155H21.6524V9.96107H17.0216V11.155ZM18.2423 5.29086C18.1621 5.29086 18.0475 5.30256 17.9615 5.3845C17.8755 5.47228 17.8698 5.58933 17.8698 5.70053C17.8698 6.50816 17.8698 7.31579 17.8698 8.12927V9.12418C17.8698 9.17685 17.8698 9.22952 17.8813 9.28219L17.8984 9.48703H20.7583L20.7812 9.36998C20.7984 9.3056 20.8041 9.27634 20.8041 9.24708V8.27558C20.8041 7.40357 20.8041 6.52571 20.8041 5.65371C20.8041 5.53666 20.7755 5.44887 20.7182 5.39035C20.6322 5.30256 20.5004 5.30256 20.4316 5.30256H19.2682C18.9301 5.30256 18.5919 5.30256 18.2538 5.30256H18.2423V5.29086Z" />
<path d="M12.4596 7.05243C12.4596 7.78398 12.4596 8.51553 12.4596 9.24708C12.4596 9.79135 12.1673 10.084 11.64 10.0898C11.4394 10.0898 11.2388 10.0898 11.0382 10.0898C10.4823 10.0898 10.1958 9.79135 10.1958 9.21782C10.1958 7.99467 10.1958 6.77151 10.1958 5.54836C10.1958 5.28501 10.1958 5.02165 10.1958 4.75829C10.2072 4.28425 10.5167 3.97992 10.9752 3.97407C11.1815 3.97407 11.3936 3.97407 11.5999 3.97407C12.1673 3.97407 12.4538 4.27254 12.4538 4.85778C12.4538 5.58933 12.4538 6.32088 12.4538 7.05243H12.4596ZM11.726 4.73488H10.9408V9.33486H11.726V4.73488Z" />
<path d="M11.0382 9.93766C10.5625 9.93766 10.339 9.70357 10.339 9.21782V5.30256C10.339 5.12114 10.339 4.94557 10.339 4.76414C10.3505 4.37203 10.5912 4.12623 10.9809 4.12038H11.6056C12.087 4.12038 12.3163 4.35448 12.3163 4.85778V9.24123C12.3163 9.70357 12.087 9.93766 11.64 9.93766H11.0382ZM10.7918 9.47532H11.8635V4.58272H10.7918V9.47532Z" />
<path d="M2.53891 4.17305C1.67923 4.22572 1.38694 4.00918 1.44425 3.07865C1.45572 2.93234 1.44425 2.78603 1.44425 2.63387C1.46145 2.28273 1.71362 2.01352 2.05749 1.99596C2.36124 1.98425 2.67073 1.98425 2.97448 1.99596C3.30689 2.01352 3.55906 2.28273 3.57052 2.62217C3.58198 2.90893 3.58198 3.1957 3.57052 3.48247C3.55906 3.89799 3.31262 4.14964 2.9057 4.17305C2.76816 4.1789 2.63061 4.17305 2.52745 4.17305H2.53891ZM2.17784 3.41224H2.8312V2.75092H2.17784V3.41224Z" />
<path d="M2.31539 4.03845C2.01737 4.03845 1.83397 3.98577 1.73081 3.87458C1.61046 3.74583 1.56461 3.49417 1.58753 3.09036C1.58753 3.00842 1.58753 2.93234 1.58753 2.85041C1.58753 2.78018 1.58753 2.7158 1.58753 2.64558C1.60473 2.36466 1.79959 2.15983 2.06322 2.14812C2.21223 2.14227 2.36124 2.13642 2.51025 2.13642C2.65926 2.13642 2.814 2.13642 2.96302 2.14812C3.21519 2.15983 3.41578 2.37051 3.42724 2.63387C3.4387 2.91479 3.4387 3.20155 3.42724 3.48832C3.42151 3.82191 3.23238 4.02089 2.89997 4.03259C2.84839 4.03259 2.63061 4.03259 2.63061 4.03259H2.53318C2.44721 4.03259 2.3727 4.03845 2.30966 4.03845H2.31539ZM2.0403 3.5644H2.98021V2.61046H2.0403V3.5644Z" />
<path d="M3.57625 8.67354C3.64502 9.6626 3.2725 9.7972 2.50452 9.7972C1.73081 9.7972 1.37548 9.63334 1.43852 8.70866C1.44999 8.55064 1.43852 8.39848 1.43852 8.24047C1.45572 7.90103 1.6735 7.64352 2.00591 7.61426C2.32686 7.585 2.6478 7.585 2.96875 7.60841C3.34127 7.63767 3.55906 7.89517 3.57052 8.27558C3.57052 8.41604 3.57052 8.5565 3.57052 8.67354H3.57625ZM2.18358 8.34581V9.03054H2.83693V8.34581H2.18358Z" />
<path d="M2.49306 9.65089C2.06895 9.65089 1.84544 9.59822 1.72508 9.45776C1.60473 9.32316 1.55888 9.08906 1.58753 8.71451C1.59327 8.62672 1.58753 8.53894 1.58753 8.457C1.58753 8.38678 1.58753 8.31655 1.58753 8.24632C1.599 7.97126 1.77093 7.77813 2.0231 7.76057C2.18931 7.74887 2.36124 7.73716 2.52745 7.73716C2.67073 7.73716 2.814 7.73716 2.95728 7.75472C3.24384 7.77813 3.41578 7.9654 3.42724 8.28143C3.42724 8.37507 3.42724 8.46871 3.42724 8.5565V8.67354C3.4559 9.07736 3.41005 9.32901 3.28969 9.46362C3.14641 9.62163 2.87132 9.65089 2.49879 9.65089H2.48733H2.49306ZM2.0403 9.17685H2.98021V8.1995H2.0403V9.17685Z" />
<path d="M7.18689 8.68525C7.18689 8.53894 7.18116 8.39263 7.18689 8.24047C7.20408 7.87762 7.43333 7.62011 7.79439 7.5967C8.09814 7.57329 8.40763 7.57329 8.71138 7.5967C9.07817 7.62011 9.31315 7.88932 9.32461 8.26388C9.33035 8.53309 9.33035 8.80815 9.32461 9.07736C9.31315 9.49288 9.05525 9.76794 8.6426 9.77965C8.3847 9.79135 8.1268 9.79135 7.8689 9.77965C7.44479 9.76209 7.19262 9.49288 7.18689 9.05395C7.18689 8.93105 7.18689 8.80815 7.18689 8.68525ZM8.58529 9.03054V8.33996H7.93194V9.03054H8.58529Z" />
<path d="M8.24715 9.63919C8.12107 9.63919 7.99498 9.63919 7.87463 9.63334C7.53076 9.62163 7.3359 9.4168 7.33017 9.05395V8.54479C7.33017 8.4453 7.33017 8.34581 7.33017 8.25217C7.34736 7.9537 7.52503 7.76642 7.80012 7.74886C7.94913 7.73716 8.09814 7.73131 8.24715 7.73131C8.39616 7.73131 8.54517 7.73131 8.69419 7.74886C8.98074 7.76642 9.16414 7.97126 9.16987 8.27558C9.1756 8.54479 9.1756 8.814 9.16987 9.07736C9.16414 9.4168 8.95782 9.62748 8.62541 9.63919C8.49933 9.63919 8.36751 9.64504 8.24142 9.64504L8.24715 9.63919ZM7.78866 9.17685H8.72857V8.19365H7.78866V9.17685Z" />
<path d="M3.58198 5.8761C3.58198 6.01656 3.58198 6.15701 3.58198 6.29162C3.56479 6.69543 3.30689 6.95879 2.9057 6.9705C2.64207 6.97635 2.37844 6.97635 2.10907 6.9705C1.71362 6.95879 1.44999 6.68373 1.44425 6.27991C1.44425 5.999 1.43852 5.72394 1.44425 5.44302C1.45572 5.07432 1.70789 4.81096 2.06895 4.7934C2.34978 4.7817 2.63061 4.7817 2.91143 4.7934C3.31262 4.80511 3.55906 5.06261 3.57625 5.47814C3.57625 5.60689 3.57625 5.74149 3.57625 5.87025L3.58198 5.8761ZM2.18358 5.54836V6.22139H2.84266V5.54836H2.18358Z" />
<path d="M2.50452 6.83589C2.3727 6.83589 2.24089 6.83589 2.10907 6.83589C1.79386 6.82419 1.58753 6.61935 1.5818 6.29162C1.5818 6.01656 1.57607 5.74149 1.5818 5.46058C1.59327 5.16211 1.78239 4.96898 2.06895 4.95727C2.21223 4.95142 2.36124 4.95142 2.50452 4.95142C2.63634 4.95142 2.76816 4.95142 2.9057 4.95142C3.23238 4.96312 3.41578 5.15625 3.42724 5.49569C3.42724 5.58348 3.42724 5.67126 3.42724 5.75905V5.99315C3.42724 6.09264 3.42724 6.19798 3.42724 6.29747C3.41578 6.62521 3.21519 6.83004 2.89424 6.83589C2.76242 6.83589 2.63061 6.83589 2.49879 6.83589H2.50452ZM2.03457 6.37355H2.98021V5.40791H2.03457V6.37355Z" />
<path d="M4.34423 5.8761C4.34423 5.71808 4.3385 5.56592 4.34423 5.40791C4.36715 5.08017 4.60786 4.81681 4.92881 4.80511C5.24402 4.78755 5.5535 4.78755 5.86872 4.80511C6.20113 4.82267 6.4533 5.08017 6.46476 5.42546C6.47622 5.72979 6.47622 6.03411 6.46476 6.33258C6.4533 6.69543 6.18393 6.95879 5.8286 6.9705C5.56497 6.9822 5.30133 6.97635 5.03197 6.9705C4.60786 6.96464 4.34423 6.70129 4.33276 6.26236C4.33276 6.1336 4.33276 5.999 4.33276 5.87025L4.34423 5.8761ZM5.07782 6.21554H5.74263V5.55422H5.07782V6.21554Z" />
<path d="M5.0377 6.83004C4.6881 6.82419 4.49324 6.62521 4.48178 6.26821C4.48178 6.18628 4.48178 6.10434 4.48178 6.02241V5.72979C4.48178 5.62444 4.48178 5.52495 4.48178 5.41961C4.49897 5.16211 4.6881 4.96312 4.93454 4.95142C5.08928 4.94557 5.24975 4.93971 5.40449 4.93971C5.55924 4.93971 5.70825 4.93971 5.85726 4.95142C6.11516 4.96312 6.30429 5.16211 6.31575 5.43132C6.32721 5.72979 6.32721 6.02826 6.31575 6.32673C6.30429 6.60765 6.09796 6.81248 5.81714 6.82419C5.69678 6.82419 5.5707 6.83004 5.45034 6.83004C5.31279 6.83004 5.16952 6.83004 5.03197 6.83004H5.0377ZM4.92881 6.36185H5.88018V5.40791H4.92881V6.36185Z" />
<path d="M5.41022 4.1789C4.56201 4.23157 4.28118 3.98577 4.3385 3.10206C4.34996 2.95575 4.3385 2.80944 4.3385 2.65728C4.34996 2.28273 4.61359 2.01352 4.98039 2.00181C5.26121 1.99596 5.54204 1.99011 5.82287 2.00181C6.18966 2.01352 6.4533 2.28858 6.46476 2.66313C6.47049 2.93234 6.46476 3.20155 6.46476 3.47662C6.45903 3.90384 6.20686 4.1672 5.79421 4.18476C5.65666 4.18476 5.51912 4.18476 5.39876 4.18476L5.41022 4.1789ZM5.07209 3.42394H5.7369V2.75092H5.07209V3.42394Z" />
<path d="M5.2039 4.03845C4.91161 4.03845 4.72248 3.98577 4.61932 3.87458C4.49897 3.74583 4.45312 3.50003 4.48178 3.10791C4.48178 3.02013 4.48178 2.93819 4.48178 2.85041C4.48178 2.78603 4.48178 2.72166 4.48178 2.66313C4.49324 2.36466 4.69383 2.15397 4.98612 2.14812C5.1294 2.14812 5.27268 2.14227 5.41596 2.14227C5.54777 2.14227 5.68532 2.14227 5.81714 2.14812C6.10943 2.15983 6.31575 2.36466 6.32148 2.66313C6.32721 2.93234 6.32148 3.20155 6.32148 3.47076C6.32148 3.82191 6.12662 4.02089 5.78848 4.03259C5.7369 4.03259 5.68532 4.03259 5.63947 4.03259H5.40449C5.32426 4.03259 5.26121 4.03259 5.19817 4.03259L5.2039 4.03845ZM4.93454 3.57025H5.88591V2.60461H4.93454V3.57025Z" />
<path d="M8.27581 4.1789C7.39894 4.23743 7.12958 3.99748 7.18689 3.09036C7.19835 2.94405 7.18689 2.79774 7.18689 2.64558C7.20408 2.27102 7.46771 2.00766 7.84024 1.99596C8.11534 1.99011 8.3847 1.99011 8.6598 1.99596C9.03805 2.00766 9.30742 2.27687 9.31888 2.66313C9.32461 2.92649 9.31888 3.18985 9.31888 3.44735C9.31315 3.89799 9.06098 4.15549 8.61395 4.17305C8.49359 4.17305 8.37324 4.17305 8.27008 4.17305L8.27581 4.1789ZM7.92621 2.75092V3.4298H8.58529V2.75092H7.92621Z" />
<path d="M8.05229 4.03845C7.75427 4.03845 7.56515 3.98577 7.46198 3.87458C7.34163 3.74583 7.30151 3.50003 7.32444 3.10206C7.32444 3.02013 7.32444 2.93819 7.32444 2.86211C7.32444 2.79189 7.32444 2.72751 7.32444 2.65728C7.34163 2.35296 7.54222 2.15397 7.83451 2.14812C7.97206 2.14812 8.10388 2.14812 8.24142 2.14812C8.37897 2.14812 8.51079 2.14812 8.64834 2.14812C8.95782 2.15397 9.15841 2.36466 9.16987 2.67484C9.1756 2.93234 9.16987 3.1957 9.16987 3.45321C9.16987 3.82776 8.97501 4.02089 8.60249 4.03259H8.26435C8.17838 4.03259 8.10961 4.03845 8.04083 4.03845H8.05229ZM7.78293 3.57025H8.72857V2.59876H7.78293V3.57025Z" />
<path d="M7.18116 5.84098C7.12958 5.05091 7.34736 4.73488 8.22423 4.7934C8.37897 4.80511 8.52798 4.7934 8.68272 4.7934C9.04379 4.81096 9.30169 5.06847 9.31315 5.43132C9.32461 5.72394 9.32461 6.02241 9.31315 6.31503C9.29596 6.68958 9.02659 6.95294 8.6598 6.96464C8.4019 6.9705 8.14399 6.96464 7.89182 6.96464C7.45052 6.95879 7.19262 6.69543 7.18116 6.2448C7.18116 6.11605 7.18116 5.98144 7.18116 5.83513V5.84098ZM8.58529 5.55422H7.92621V6.21554H8.58529V5.55422Z" />
<path d="M7.89182 6.83004C7.53076 6.83004 7.3359 6.62521 7.32444 6.25065C7.32444 6.16287 7.32444 6.07508 7.32444 5.98144V5.84098C7.30151 5.45473 7.34163 5.22648 7.45625 5.09773C7.55941 4.98068 7.74281 4.92801 8.0351 4.92801C8.09241 4.92801 8.15546 4.92801 8.2185 4.93386C8.27008 4.93386 8.32739 4.93386 8.3847 4.93386H8.67699C8.96928 4.94557 9.16414 5.14455 9.16987 5.43132C9.18133 5.72394 9.18133 6.01656 9.16987 6.30332C9.15841 6.59594 8.95209 6.80078 8.65407 6.81248C8.52798 6.81248 8.40763 6.81248 8.28154 6.81248C8.14972 6.81248 8.01791 6.81248 7.89182 6.81248V6.83004ZM7.78293 6.3677H8.72857V5.41376H7.78293V6.3677Z" />
<path d="M4.34423 8.69695C4.34423 8.53309 4.33276 8.36922 4.34423 8.20535C4.36715 7.89517 4.58494 7.63767 4.88869 7.61426C5.2211 7.59085 5.56497 7.585 5.89737 7.61426C6.22978 7.63767 6.4533 7.90103 6.46476 8.23461C6.47622 8.52723 6.47622 8.82571 6.46476 9.11833C6.4533 9.48117 6.20113 9.75624 5.84579 9.77379C5.55924 9.79135 5.26695 9.79135 4.98039 9.77379C4.5964 9.75039 4.34996 9.48117 4.3385 9.08321C4.3385 8.95446 4.3385 8.81985 4.3385 8.6911L4.34423 8.69695ZM5.7369 9.03639V8.34581H5.07782V9.03639H5.7369Z" />
<path d="M5.40449 9.64504C5.26695 9.64504 5.1294 9.64504 4.99185 9.63334C4.6881 9.61578 4.49897 9.40509 4.48751 9.08321C4.48751 9.00128 4.48751 8.91934 4.48751 8.84326V8.53894C4.48751 8.42774 4.48751 8.3224 4.48751 8.2112C4.5047 7.95955 4.67663 7.77227 4.90015 7.75472C5.07209 7.74301 5.24402 7.73716 5.42169 7.73716C5.57643 7.73716 5.7369 7.73716 5.89164 7.75472C6.14381 7.77227 6.31575 7.9654 6.32721 8.24047C6.33867 8.53309 6.33867 8.82571 6.32721 9.11833C6.31575 9.41095 6.12089 9.61578 5.84006 9.63334C5.69678 9.64504 5.54777 9.64504 5.40449 9.64504ZM4.94027 9.1827H5.88591V8.1995H4.94027V9.1827Z" />
<path d="M2.67073 19.0323C3.04325 19.0323 3.40432 19.0323 3.76538 19.0323C3.85135 19.0323 3.94305 19.0323 4.02901 19.0498C4.22387 19.085 4.31557 19.2196 4.30984 19.4185C4.30984 19.6058 4.20668 19.7521 4.02328 19.7521C3.47882 19.7638 2.92863 19.7697 2.38417 19.7404C2.132 19.7287 1.94287 19.4595 1.93714 19.1727C1.9314 18.2129 1.9314 17.2473 1.93714 16.2875C1.93714 15.9188 2.19504 15.6964 2.59049 15.6906C3.50748 15.6906 4.42446 15.6906 5.34145 15.6906C10.9007 15.6906 16.4657 15.6906 22.0249 15.6906C22.5923 15.6906 22.7871 15.8895 22.7871 16.4748C22.7871 17.3058 22.7871 18.1369 22.7871 18.9679C22.7871 19.5707 22.5923 19.7697 22.0077 19.7697C18.2079 19.7697 14.4082 19.7697 10.6084 19.7697C8.93489 19.7697 7.26139 19.7697 5.58789 19.7697C5.50765 19.7697 5.42742 19.7697 5.34718 19.758C5.14659 19.7346 5.04343 19.6 5.0377 19.4068C5.0377 19.2137 5.13513 19.0791 5.32999 19.044C5.43315 19.0264 5.53631 19.0264 5.6452 19.0264C10.9752 19.0264 16.2994 19.0264 21.6294 19.0264C21.7613 19.0264 21.8988 19.0264 22.0478 19.0264V16.4455H2.67073V19.0323Z" />
<path d="M5.58789 19.6234C5.49046 19.6234 5.43315 19.6234 5.37584 19.6175C5.25548 19.6 5.19817 19.5356 5.19244 19.4127C5.19244 19.2839 5.24402 19.2196 5.36438 19.202C5.4618 19.1844 5.55924 19.1844 5.65666 19.1844H22.2026V16.3109H2.52745V19.1844H3.75965C3.83988 19.1844 3.92012 19.1844 4.00036 19.202C4.12071 19.2254 4.17229 19.2898 4.16656 19.4244C4.16656 19.5122 4.13791 19.6175 4.01755 19.6175C3.77111 19.6175 3.5304 19.6292 3.28396 19.6292C2.98594 19.6292 2.68792 19.6292 2.38417 19.6058C2.21796 19.6 2.07468 19.4068 2.07468 19.1844C2.06895 18.2247 2.06322 17.2649 2.07468 16.3051C2.07468 16.0183 2.26381 15.8544 2.59049 15.8544H22.0249C22.5178 15.8544 22.6439 15.9832 22.6439 16.4923V18.9796C22.6439 19.5005 22.512 19.6351 22.0077 19.6351C22.0077 19.6351 5.58216 19.6351 5.57643 19.6351L5.58789 19.6234Z" />
<path d="M12.3621 17.3702C12.6258 17.3702 12.8951 17.3644 13.1588 17.3702C13.3995 17.3761 13.5313 17.5107 13.5313 17.7272C13.5313 17.9379 13.3995 18.0959 13.1645 18.1018C12.6258 18.1135 12.087 18.1135 11.5483 18.1018C11.3191 18.1018 11.1815 17.9379 11.1872 17.7272C11.1872 17.5107 11.3248 17.3819 11.5655 17.3702C11.8291 17.3644 12.0928 17.3702 12.3621 17.3702Z" />
<path d="M12.3621 17.9613C12.0928 17.9613 11.8234 17.9613 11.5598 17.9496C11.4165 17.9496 11.3363 17.8618 11.3363 17.7213C11.3363 17.6336 11.3649 17.5165 11.577 17.5107C11.6859 17.5107 11.789 17.5107 11.8922 17.5107H12.8378C12.9467 17.5107 13.0499 17.5107 13.153 17.5107C13.388 17.5165 13.388 17.6687 13.388 17.7213C13.388 17.8618 13.3078 17.9437 13.1645 17.9496C12.8951 17.9554 12.6258 17.9613 12.3621 17.9613Z" />
</svg>
