<svg width="26" height="23" viewBox="0 0 26 23" fill="none" xmlns="http://www.w3.org/2000/svg">
<path d="M19.9302 8.30223C16.7692 8.30223 13.6009 8.30223 10.44 8.30223C8.94854 8.30223 7.4497 8.30223 5.95827 8.30223C5.57985 8.30223 5.43145 8.46549 5.43145 8.87362C5.43145 9.2083 5.43145 9.54297 5.43145 9.8858C5.43145 10.2858 5.43145 10.6858 5.43145 11.1184C4.18489 10.9143 3.11641 11.3388 2.05534 11.9265C1.63982 12.155 1.16494 12.253 0.712322 12.3836C0.482301 12.4489 0.237441 12.4489 0 12.4734V13.4121C0.2226 13.4039 0.422941 13.3958 0.615861 13.3795C1.45432 13.2815 2.21116 12.9387 2.96801 12.5387C4.49653 11.7306 5.95085 11.902 7.28646 13.053C8.01362 13.6815 8.71852 14.3427 9.46052 14.9549C10.2174 15.5834 10.2248 16.4895 9.48278 17.3057C8.36236 16.4813 7.23451 15.665 6.09183 14.8243C5.92117 15.1018 5.77277 15.3548 5.61695 15.6161C5.69115 15.6814 5.73567 15.7303 5.78761 15.763C6.9674 16.6282 8.13976 17.4935 9.32696 18.3506C9.44568 18.4404 9.59408 18.4893 9.74248 18.5138C10.3435 18.6281 10.9519 18.7261 11.553 18.8322C13.2225 19.1179 14.8994 19.4117 16.5689 19.7056C16.836 19.7546 17.0364 19.9097 17.1328 20.2035C17.3109 20.7423 16.9547 21.2239 16.3686 21.232C14.2687 21.232 12.1762 21.232 10.0764 21.232C9.1563 21.232 8.2659 21.0443 7.42744 20.6198C6.54445 20.1627 5.66889 19.6729 4.79333 19.1913C4.16263 18.8485 3.50967 18.5628 2.80477 18.522C2.01082 18.473 1.21688 18.4812 0.422941 18.4649C0.289381 18.4649 0.1484 18.4649 0 18.4649V19.4199C0.660381 19.4199 1.29108 19.4199 1.92178 19.4199C2.78993 19.4199 3.62097 19.6158 4.40007 20.0566C5.11239 20.4566 5.83955 20.8484 6.55187 21.2484C7.561 21.8116 8.62948 22.1707 9.76474 22.1871C12.013 22.2116 14.2538 22.1952 16.5021 22.1871C17.3035 22.1871 17.9861 21.5014 18.0529 20.6525C18.1271 19.7219 17.5929 18.9138 16.7692 18.7669C15.211 18.4812 13.6528 18.22 12.0946 17.9506C11.5455 17.8526 10.9965 17.7629 10.4325 17.6649C10.5587 17.3955 10.6997 17.1751 10.7739 16.9221C10.8481 16.6935 10.9519 16.6446 11.1523 16.6446C14.0906 16.6446 17.0289 16.6446 19.9598 16.6446C20.4421 16.6446 20.5683 16.5058 20.5683 15.9834C20.5683 13.657 20.5683 11.3306 20.5683 9.00423C20.5683 8.43283 20.457 8.31039 19.945 8.31039L19.9302 8.30223ZM19.6705 9.2736V10.9796C18.921 10.849 18.231 10.0899 18.1271 9.2736H19.6705ZM6.31443 9.26543H7.84296C7.84296 9.99192 7.07869 10.849 6.31443 10.9796V9.26543ZM19.6705 15.6732H18.1419C18.1494 14.9385 18.9062 14.0896 19.6705 13.959V15.6732ZM19.6556 12.8815C19.5814 13.0203 19.3217 13.0285 19.1436 13.1019C18.1345 13.5182 17.4964 14.31 17.2441 15.4528C17.1996 15.6487 17.1328 15.6895 16.9622 15.6895C15.0033 15.6895 13.0444 15.6895 11.0855 15.6895C10.9297 15.6895 10.8555 15.6405 10.8184 15.4691C10.6997 14.9794 10.44 14.5875 10.0764 14.2774C9.65344 13.91 9.2305 13.5346 8.80756 13.1591C8.7482 13.1101 8.69626 13.053 8.59238 12.9468H10.0467V12.0163H8.3772V12.7509C7.93942 12.3918 7.55358 12.0734 7.14547 11.7387C7.19741 11.6979 7.24936 11.649 7.30872 11.6163C8.0433 11.1347 8.53302 10.449 8.72594 9.53481C8.77046 9.33074 8.83724 9.25727 9.03016 9.25727C11.6717 9.25727 14.3058 9.25727 16.9473 9.25727C17.118 9.25727 17.1996 9.29809 17.2441 9.50215C17.5483 10.8 18.2978 11.6163 19.4775 11.951C19.6408 12 19.7001 12.0571 19.6853 12.2367C19.6705 12.4571 19.7447 12.7264 19.6482 12.8815H19.6556ZM24.5677 6.75947C22.8982 3.79639 20.4941 2.00059 17.348 1.50266C16.4353 1.35573 15.5004 1.41287 14.5803 1.38022C14.4839 1.38022 14.38 1.38022 14.2613 1.38022C14.2613 1.07003 14.2613 0.808826 14.2613 0.555781C14.2613 0.0823416 13.957 -0.12989 13.5712 0.0823416C11.9314 0.980244 10.2916 1.88631 8.65174 2.78421C8.47366 2.88216 8.32526 3.02909 8.36978 3.24949C8.40688 3.41274 8.51076 3.61681 8.64432 3.69028C10.2841 4.61267 11.9314 5.51873 13.5786 6.41664C13.9496 6.6207 14.2464 6.40847 14.2538 5.95136C14.2538 5.68199 14.2538 5.41262 14.2538 5.1106C14.6471 5.1106 14.9959 5.1106 15.3446 5.1106C16.1311 5.09427 16.9176 5.14325 17.6819 5.37997C20.5757 6.27787 22.5272 9.03688 22.6162 12.3591C22.631 12.8162 22.7646 12.9632 23.1727 12.9632C23.9296 12.9632 24.6938 12.9632 25.4507 12.9632C25.8588 12.9632 26.0072 12.7999 25.9997 12.3591C25.9849 10.3511 25.5174 8.48181 24.5603 6.7758L24.5677 6.75947ZM23.5215 11.9755C23.4398 11.4939 23.3879 11.0123 23.284 10.5388C22.5717 7.15128 19.9302 4.55553 16.7915 4.21269C15.8046 4.10658 14.8029 4.15555 13.8086 4.14739C13.5638 4.14739 13.408 4.33513 13.4005 4.61267C13.3931 4.79225 13.4005 4.97999 13.4005 5.22487C12.1911 4.55553 11.0113 3.91067 9.77958 3.23316C11.0113 2.55565 12.1837 1.9108 13.4005 1.24145C13.4005 1.45368 13.4005 1.61694 13.4005 1.77203C13.4005 2.14752 13.5564 2.31893 13.8977 2.31893C14.5507 2.31893 15.211 2.31893 15.864 2.31893C20.1528 2.33526 23.7589 5.39629 24.8496 9.95927C25.0055 10.6041 25.0648 11.2735 25.1761 11.9591H23.5289L23.5215 11.9755ZM12.9924 10.147C11.8201 10.147 10.8777 11.1755 10.8777 12.4652C10.8777 13.7549 11.8127 14.7916 12.985 14.7916C14.1574 14.7916 15.0997 13.7631 15.0997 12.4734C15.0997 11.1837 14.1648 10.147 12.9924 10.147ZM12.9924 13.8366C12.3172 13.8366 11.7385 13.1836 11.7533 12.4489C11.7681 11.7061 12.3469 11.0939 13.0073 11.1021C13.6825 11.1102 14.239 11.7387 14.239 12.4734C14.239 13.208 13.6602 13.8366 12.9924 13.8366ZM15.9308 12.0163H17.6077V12.9223H15.9308V12.0163Z" />
</svg>
