<svg width="26" height="27" viewBox="0 0 26 27" fill="none" xmlns="http://www.w3.org/2000/svg">
<path d="M16.1738 4L19.3483 9.55534M6.65039 9.55534L9.82487 4M21.3806 9.5555H4.61937C4.38132 9.55068 4.14523 9.59948 3.92859 9.69829C3.71195 9.79709 3.52032 9.94337 3.36789 10.1263C3.21546 10.3092 3.10613 10.5241 3.04801 10.755C2.98989 10.9859 2.98447 11.2269 3.03214 11.4602L4.7781 20.19C4.8523 20.5539 5.05178 20.8803 5.34179 21.1123C5.63181 21.3443 5.99401 21.4673 6.36534 21.4598H19.6347C20.006 21.4673 20.3682 21.3443 20.6582 21.1123C20.9482 20.8803 21.1477 20.5539 21.2219 20.19L22.9679 11.4602C23.0155 11.2269 23.0101 10.9859 22.952 10.755C22.8939 10.5241 22.7845 10.3092 22.6321 10.1263C22.4797 9.94337 22.288 9.79709 22.0714 9.69829C21.8548 9.59948 21.6187 9.55068 21.3806 9.5555Z" />
</svg>
