<svg width="24" height="25" viewBox="0 0 23 23" fill="none" xmlns="http://www.w3.org/2000/svg">
<path d="M20.4606 5.57003L19.8108 5.94448V5.94448L20.4606 5.57003ZM20.9796 6.47056L21.6294 6.09611V6.09611L20.9796 6.47056ZM20.9795 16.7024L21.6294 17.0769V17.0769L20.9795 16.7024ZM20.4607 17.6029L21.1105 17.9773L20.4607 17.6029ZM19.6373 13.0319L19.0488 13.4968L19.063 13.5148L19.0783 13.5319L19.6373 13.0319ZM16.7888 18.2133L16.9921 17.4914L16.9748 17.4865L16.9573 17.4825L16.7888 18.2133ZM15.3604 18.3914L15.0175 17.7244L15.0013 17.7327L14.9855 17.7419L15.3604 18.3914ZM19.5381 18.7603L19.2556 18.0655H19.2556L19.5381 18.7603ZM18.0715 18.5746L18.2763 17.8531L18.2748 17.8527L18.0715 18.5746ZM20.7213 14.2437L20.1622 14.7438L20.1636 14.7452L20.7213 14.2437ZM16.7887 4.95964L16.9572 5.69046L16.9747 5.68643L16.992 5.68155L16.7887 4.95964ZM15.3605 4.78157L14.9857 5.4312L15.0015 5.44032L15.0178 5.44867L15.3605 4.78157ZM19.6373 10.141L19.0783 9.64102L19.063 9.65813L19.0488 9.67614L19.6373 10.141ZM21.4956 7.76794L22.2415 7.8463V7.84629L21.4956 7.76794ZM20.7213 8.92921L20.1636 8.42773L20.1622 8.4292L20.7213 8.92921ZM19.5381 4.41267L19.2556 5.1074L19.2556 5.1074L19.5381 4.41267ZM18.0715 4.59832L18.2749 5.32024L18.2763 5.31984L18.0715 4.59832ZM14.1778 3.55993L13.4666 3.79806L13.4718 3.81341L13.4776 3.82852L14.1778 3.55993ZM15.0064 4.57723L14.6019 5.2088L14.6165 5.21817L14.6316 5.22685L15.0064 4.57723ZM13.2057 1.27217L13.6448 0.664144L13.6448 0.664144L13.2057 1.27217ZM13.8267 2.5114L13.1151 2.74815L13.1155 2.74953L13.8267 2.5114ZM14.1778 19.613L13.4776 19.3444L13.4718 19.3595L13.4666 19.3749L14.1778 19.613ZM15.0063 18.5958L14.6314 17.9462L14.6163 17.9549L14.6017 17.9643L15.0063 18.5958ZM13.2057 21.9009L13.6448 22.5089L13.6448 22.5089L13.2057 21.9009ZM13.8267 20.6616L13.1155 20.4235L13.1151 20.4249L13.8267 20.6616ZM2.03935 5.57003L2.68919 5.94448L2.03935 5.57003ZM1.52045 6.47056L2.17029 6.84501H2.17029L1.52045 6.47056ZM1.52045 16.7024L0.870616 17.0769H0.870617L1.52045 16.7024ZM2.03934 17.6029L1.3895 17.9773H1.3895L2.03934 17.6029ZM2.86269 13.0319L3.42169 13.5319L3.437 13.5148L3.45123 13.4968L2.86269 13.0319ZM5.71125 18.2133L5.5427 17.4825L5.52519 17.4865L5.5079 17.4914L5.71125 18.2133ZM7.13965 18.3914L7.51454 17.7419L7.49872 17.7327L7.48247 17.7244L7.13965 18.3914ZM2.96187 18.7603L3.24443 18.0655H3.24442L2.96187 18.7603ZM4.4285 18.5746L4.22515 17.8527L4.22374 17.8531L4.4285 18.5746ZM1.00437 15.405L1.75027 15.4834L1.00437 15.405ZM1.77875 14.2437L2.33644 14.7452L2.33776 14.7438L1.77875 14.2437ZM5.71129 4.95964L5.50796 5.68155L5.52525 5.68643L5.54276 5.69046L5.71129 4.95964ZM7.13946 4.78157L7.48221 5.44867L7.49846 5.44032L7.51428 5.4312L7.13946 4.78157ZM2.86266 10.141L3.4512 9.67614L3.43697 9.65813L3.42167 9.64102L2.86266 10.141ZM1.00437 7.76794L0.258475 7.84629L0.258476 7.8463L1.00437 7.76794ZM1.77875 8.92921L2.33776 8.4292L2.33644 8.42773L1.77875 8.92921ZM4.42848 4.59832L4.22373 5.31984L4.22514 5.32023L4.42848 4.59832ZM8.32219 3.55993L9.02245 3.82852L9.02825 3.81341L9.03339 3.79806L8.32219 3.55993ZM7.49362 4.57723L7.86844 5.22685L7.88349 5.21817L7.89812 5.2088L7.49362 4.57723ZM8.67327 2.5114L9.38447 2.74953L9.38493 2.74815L8.67327 2.5114ZM8.32216 19.613L9.03335 19.3749L9.02822 19.3595L9.02242 19.3444L8.32216 19.613ZM7.49375 18.5958L7.89832 17.9643L7.88369 17.9549L7.86864 17.9462L7.49375 18.5958ZM9.29431 21.9009L8.85521 22.5089L8.85521 22.5089L9.29431 21.9009ZM8.67327 20.6616L9.38493 20.4249L9.38447 20.4235L8.67327 20.6616ZM19.8108 5.94448L20.3297 6.84501L21.6294 6.09611L21.1105 5.19558L19.8108 5.94448ZM20.3297 16.328L19.8108 17.2284L21.1105 17.9773L21.6294 17.0769L20.3297 16.328ZM20.2259 12.567C20.0834 12.3866 19.9343 11.9747 19.9343 11.5864H18.4343C18.4343 12.2496 18.6614 13.0063 19.0488 13.4968L20.2259 12.567ZM16.9573 17.4825C16.3024 17.3314 15.6153 17.4172 15.0175 17.7244L15.7032 19.0585C15.9859 18.9132 16.3107 18.8727 16.6202 18.9441L16.9573 17.4825ZM19.8108 17.2284C19.6055 17.5848 19.4834 17.7941 19.3765 17.9373C19.3278 18.0025 19.2961 18.0345 19.278 18.05C19.2633 18.0628 19.2576 18.0647 19.2556 18.0655L19.8207 19.455C20.161 19.3166 20.3936 19.0823 20.5783 18.8349C20.7511 18.6035 20.9234 18.3021 21.1105 17.9773L19.8108 17.2284ZM17.8667 19.2961C18.2268 19.3983 18.5601 19.4942 18.8452 19.5394C19.1502 19.5879 19.4802 19.5935 19.8207 19.455L19.2556 18.0655C19.2536 18.0664 19.2482 18.0689 19.229 18.0701C19.2054 18.0715 19.1606 18.0707 19.0804 18.058C18.9044 18.0301 18.6714 17.9652 18.2763 17.8531L17.8667 19.2961ZM21.6294 17.0769C21.8046 16.7727 21.9687 16.4904 22.0772 16.2398C22.1934 15.9714 22.2778 15.6715 22.2415 15.3267L20.7497 15.4834C20.75 15.4859 20.7509 15.4922 20.7471 15.5107C20.7425 15.5331 20.7309 15.5739 20.7007 15.6437C20.6342 15.7973 20.5223 15.9937 20.3297 16.328L21.6294 17.0769ZM20.1636 14.7452C20.4214 15.032 20.5716 15.2007 20.6685 15.337C20.7126 15.3989 20.7324 15.4364 20.7415 15.4573C20.749 15.4746 20.7495 15.4809 20.7497 15.4834L22.2415 15.3267C22.2053 14.9818 22.0604 14.706 21.8909 14.4677C21.7327 14.2452 21.5136 14.0032 21.2789 13.7423L20.1636 14.7452ZM16.6202 4.22883C16.3107 4.30019 15.986 4.25973 15.7033 4.11447L15.0178 5.44867C15.6155 5.75578 16.3025 5.84146 16.9572 5.69046L16.6202 4.22883ZM19.0488 9.67614C18.6615 10.1665 18.4343 10.9234 18.4343 11.5864H19.9343C19.9343 11.1984 20.0834 10.7863 20.2259 10.6059L19.0488 9.67614ZM20.3297 6.84501C20.5223 7.17924 20.6342 7.37569 20.7007 7.52924C20.7309 7.59903 20.7425 7.63991 20.7471 7.66223C20.7509 7.68075 20.75 7.68705 20.7497 7.68958L22.2415 7.84629C22.2778 7.50143 22.1934 7.20156 22.0772 6.9332C21.9687 6.68261 21.8047 6.40027 21.6294 6.09611L20.3297 6.84501ZM21.2789 9.43069C21.5136 9.16977 21.7327 8.9278 21.8909 8.70529C22.0604 8.46697 22.2053 8.19119 22.2415 7.8463L20.7497 7.68957C20.7495 7.6921 20.749 7.69841 20.7415 7.71568C20.7324 7.73651 20.7126 7.77404 20.6685 7.83596C20.5716 7.97223 20.4214 8.14099 20.1636 8.42773L21.2789 9.43069ZM21.1105 5.19558C20.9234 4.87085 20.7511 4.56943 20.5783 4.33808C20.3935 4.09066 20.161 3.85635 19.8207 3.71793L19.2556 5.1074C19.2576 5.10822 19.2633 5.11018 19.278 5.12291C19.2961 5.13846 19.3278 5.17047 19.3765 5.23567C19.4834 5.3788 19.6055 5.58817 19.8108 5.94448L21.1105 5.19558ZM18.2763 5.31984C18.6714 5.2077 18.9044 5.14288 19.0804 5.11494C19.1606 5.10221 19.2054 5.10146 19.229 5.10288C19.2482 5.10405 19.2536 5.10659 19.2556 5.1074L19.8207 3.71793C19.4802 3.57946 19.1502 3.58507 18.8452 3.63349C18.5602 3.67875 18.2268 3.77465 17.8668 3.87681L18.2763 5.31984ZM13.4776 3.82852C13.6955 4.39682 14.0894 4.88058 14.6019 5.2088L15.4109 3.94566C15.1683 3.79032 14.9815 3.5611 14.8781 3.29134L13.4776 3.82852ZM11.836 1.82373C12.2183 1.82373 12.4419 1.82487 12.6063 1.84368C12.6809 1.85222 12.7215 1.86242 12.7426 1.86942C12.7601 1.87521 12.7648 1.8789 12.7666 1.88019L13.6448 0.664144C13.3654 0.462348 13.0653 0.386398 12.7768 0.353395C12.5075 0.322593 12.1836 0.32373 11.836 0.32373V1.82373ZM14.5384 2.27465C14.4284 1.94409 14.3271 1.63613 14.2129 1.39016C14.0907 1.12678 13.9241 0.865853 13.6448 0.664144L12.7666 1.88019C12.7684 1.88149 12.7735 1.88488 12.7846 1.89985C12.7981 1.9179 12.8207 1.95342 12.8524 2.02184C12.9223 2.17241 12.9942 2.38485 13.1151 2.74815L14.5384 2.27465ZM14.8781 19.8816C14.9816 19.6119 15.1683 19.3827 15.4108 19.2273L14.6017 17.9643C14.0893 18.2925 13.6955 18.7762 13.4776 19.3444L14.8781 19.8816ZM11.836 22.8493C12.1836 22.8493 12.5075 22.8505 12.7768 22.8197C13.0653 22.7866 13.3654 22.7107 13.6448 22.5089L12.7666 21.2929C12.7648 21.2941 12.7601 21.2978 12.7426 21.3036C12.7215 21.3106 12.6809 21.3208 12.6063 21.3294C12.4419 21.3482 12.2183 21.3493 11.836 21.3493V22.8493ZM13.1151 20.4249C12.9942 20.7882 12.9223 21.0006 12.8524 21.1512C12.8207 21.2196 12.7981 21.2551 12.7846 21.2732C12.7735 21.2882 12.7684 21.2916 12.7666 21.2929L13.6448 22.5089C13.9241 22.3072 14.0907 22.0463 14.2129 21.7829C14.3271 21.5369 14.4284 21.229 14.5384 20.8984L13.1151 20.4249ZM13.1155 2.74953L13.4666 3.79806L14.889 3.3218L14.5379 2.27327L13.1155 2.74953ZM15.7354 4.13195L15.3812 3.92761L14.6316 5.22685L14.9857 5.4312L15.7354 4.13195ZM16.992 5.68155L18.2749 5.32023L17.8682 3.87641L16.5854 4.23773L16.992 5.68155ZM20.1622 8.4292L19.0783 9.64102L20.1964 10.641L21.2803 9.42922L20.1622 8.4292ZM19.0783 13.5319L20.1622 14.7438L21.2803 13.7437L20.1963 12.5319L19.0783 13.5319ZM16.5854 18.9352L17.8682 19.2965L18.2748 17.8527L16.9921 17.4914L16.5854 18.9352ZM15.3811 19.2454L15.7352 19.041L14.9855 17.7419L14.6314 17.9462L15.3811 19.2454ZM13.4666 19.3749L13.1155 20.4235L14.5379 20.8998L14.889 19.8511L13.4666 19.3749ZM1.38952 5.19558L0.870615 6.09611L2.17029 6.84501L2.68919 5.94448L1.38952 5.19558ZM0.870617 17.0769L1.3895 17.9773L2.68917 17.2284L2.17029 16.328L0.870617 17.0769ZM3.45123 13.4968C3.83863 13.0063 4.06566 12.2496 4.06566 11.5864H2.56566C2.56566 11.9747 2.41665 12.3866 2.27414 12.567L3.45123 13.4968ZM5.87979 18.9441C6.1893 18.8727 6.51407 18.9132 6.79683 19.0585L7.48247 17.7244C6.88468 17.4172 6.19761 17.3314 5.5427 17.4825L5.87979 18.9441ZM1.3895 17.9773C1.57662 18.3021 1.74887 18.6035 1.92166 18.8349C2.10645 19.0823 2.33897 19.3166 2.67931 19.455L3.24442 18.0655C3.24243 18.0647 3.23671 18.0628 3.22196 18.05C3.20393 18.0345 3.17217 18.0025 3.12347 17.9373C3.01657 17.7941 2.89448 17.5848 2.68917 17.2284L1.3895 17.9773ZM4.22374 17.8531C3.82858 17.9652 3.59559 18.0301 3.41957 18.058C3.33943 18.0707 3.29457 18.0715 3.27101 18.0701C3.25178 18.0689 3.24642 18.0664 3.24443 18.0655L2.67931 19.455C3.01977 19.5935 3.34981 19.5879 3.65481 19.5394C3.93986 19.4942 4.27324 19.3983 4.63326 19.2961L4.22374 17.8531ZM2.17029 16.328C1.9777 15.9937 1.86582 15.7973 1.79933 15.6437C1.76911 15.5739 1.75752 15.5331 1.75295 15.5107C1.74915 15.4922 1.75 15.4859 1.75027 15.4834L0.258478 15.3267C0.222247 15.6715 0.306633 15.9714 0.422838 16.2398C0.531347 16.4904 0.695355 16.7727 0.870616 17.0769L2.17029 16.328ZM1.22106 13.7423C0.986444 14.0032 0.767319 14.2452 0.609081 14.4677C0.439594 14.706 0.294711 14.9818 0.258478 15.3267L1.75027 15.4834C1.75053 15.4809 1.75101 15.4746 1.75855 15.4573C1.76764 15.4364 1.78744 15.3989 1.83148 15.337C1.92839 15.2007 2.07861 15.032 2.33644 14.7452L1.22106 13.7423ZM5.54276 5.69046C6.19755 5.84146 6.88449 5.75578 7.48221 5.44867L6.79671 4.11447C6.51399 4.25973 6.18928 4.30019 5.87982 4.22883L5.54276 5.69046ZM2.27412 10.6059C2.41662 10.7863 2.56566 11.1984 2.56566 11.5864H4.06566C4.06566 10.9234 3.83854 10.1665 3.4512 9.67614L2.27412 10.6059ZM0.870615 6.09611C0.695352 6.40027 0.531343 6.68261 0.422835 6.9332C0.30663 7.20156 0.222247 7.50143 0.258475 7.84629L1.75027 7.68958C1.75 7.68705 1.74915 7.68075 1.75295 7.66223C1.75752 7.63991 1.76911 7.59903 1.79933 7.52924C1.86582 7.37569 1.9777 7.17924 2.17029 6.84501L0.870615 6.09611ZM2.33644 8.42773C2.0786 8.14099 1.92839 7.97223 1.83148 7.83596C1.78744 7.77404 1.76764 7.73651 1.75855 7.71568C1.751 7.69841 1.75053 7.6921 1.75027 7.68957L0.258476 7.8463C0.294709 8.19119 0.439588 8.46697 0.609076 8.70529C0.767313 8.92779 0.986438 9.16977 1.22105 9.43069L2.33644 8.42773ZM2.68919 5.94448C2.8945 5.58817 3.01658 5.3788 3.12348 5.23567C3.17217 5.17047 3.20393 5.13846 3.22196 5.12291C3.23671 5.11018 3.24243 5.10822 3.24443 5.1074L2.6793 3.71793C2.33897 3.85635 2.10646 4.09066 1.92167 4.33808C1.74889 4.56943 1.57664 4.87084 1.38952 5.19558L2.68919 5.94448ZM4.63323 3.87681C4.27321 3.77465 3.93983 3.67875 3.65479 3.63349C3.34979 3.58507 3.01975 3.57946 2.6793 3.71793L3.24443 5.1074C3.24642 5.10659 3.25179 5.10405 3.27102 5.10288C3.29458 5.10146 3.33944 5.10221 3.41958 5.11494C3.59559 5.14288 3.82858 5.2077 4.22373 5.31984L4.63323 3.87681ZM7.62194 3.29134C7.51847 3.5611 7.33165 3.79032 7.08911 3.94566L7.89812 5.2088C8.41057 4.88058 8.80447 4.39683 9.02245 3.82852L7.62194 3.29134ZM10.664 0.32373C10.3164 0.32373 9.9925 0.322593 9.72323 0.353395C9.43472 0.386398 9.13464 0.462348 8.85521 0.664144L9.7334 1.88019C9.73519 1.8789 9.7399 1.87521 9.75738 1.86942C9.77851 1.86242 9.81906 1.85222 9.89371 1.84368C10.0581 1.82487 10.2817 1.82373 10.664 1.82373V0.32373ZM9.38493 2.74815C9.50579 2.38485 9.57766 2.17241 9.64757 2.02184C9.67933 1.95342 9.70193 1.91791 9.71537 1.89985C9.72652 1.88488 9.73161 1.88149 9.7334 1.88019L8.85521 0.664144C8.5759 0.865853 8.40934 1.12678 8.28706 1.39016C8.17285 1.63613 8.07159 1.94409 7.96162 2.27465L9.38493 2.74815ZM9.02242 19.3444C8.80448 18.7762 8.41067 18.2925 7.89832 17.9643L7.08918 19.2273C7.33167 19.3827 7.51845 19.6119 7.6219 19.8816L9.02242 19.3444ZM10.664 21.3493C10.2817 21.3493 10.0581 21.3482 9.89371 21.3294C9.81906 21.3208 9.7785 21.3106 9.75738 21.3036C9.7399 21.2978 9.73519 21.2941 9.7334 21.2929L8.85521 22.5089C9.13464 22.7107 9.43472 22.7866 9.72324 22.8197C9.9925 22.8505 10.3164 22.8493 10.664 22.8493V21.3493ZM7.96162 20.8984C8.07159 21.229 8.17285 21.5369 8.28706 21.7829C8.40934 22.0463 8.5759 22.3072 8.85521 22.5089L9.73341 21.2929C9.73161 21.2916 9.72652 21.2882 9.71537 21.2732C9.70193 21.2551 9.67933 21.2196 9.64757 21.1512C9.57766 21.0006 9.50579 20.7882 9.38493 20.4249L7.96162 20.8984ZM7.96208 2.27327L7.611 3.3218L9.03339 3.79806L9.38447 2.74953L7.96208 2.27327ZM7.51428 5.4312L7.86844 5.22685L7.11879 3.92761L6.76464 4.13195L7.51428 5.4312ZM5.91463 4.23773L4.63182 3.87641L4.22514 5.32023L5.50796 5.68155L5.91463 4.23773ZM1.21974 9.42922L2.30365 10.641L3.42167 9.64102L2.33776 8.4292L1.21974 9.42922ZM2.30368 12.5319L1.21974 13.7437L2.33776 14.7438L3.42169 13.5319L2.30368 12.5319ZM5.5079 17.4914L4.22515 17.8527L4.63185 19.2965L5.91459 18.9352L5.5079 17.4914ZM7.86864 17.9462L7.51454 17.7419L6.76476 19.041L7.11886 19.2454L7.86864 17.9462ZM7.61097 19.8511L7.96208 20.8998L9.38447 20.4235L9.03335 19.3749L7.61097 19.8511ZM11.836 21.3493H10.664V22.8493H11.836V21.3493ZM10.664 1.82373H11.836V0.32373H10.664V1.82373ZM14.1343 11.5783C14.1343 13.1962 12.8227 14.5078 11.2048 14.5078V16.0078C13.6511 16.0078 15.6343 14.0246 15.6343 11.5783H14.1343ZM11.2048 14.5078C9.5869 14.5078 8.27532 13.1962 8.27532 11.5783H6.77532C6.77532 14.0246 8.75847 16.0078 11.2048 16.0078V14.5078ZM8.27532 11.5783C8.27532 9.96041 9.5869 8.64883 11.2048 8.64883V7.14883C8.75847 7.14883 6.77532 9.13198 6.77532 11.5783H8.27532ZM11.2048 8.64883C12.8227 8.64883 14.1343 9.96041 14.1343 11.5783H15.6343C15.6343 9.13198 13.6511 7.14883 11.2048 7.14883V8.64883Z" />
</svg>
